# https://github.com/mikedh/trimesh
v 0.08750964 0.07801486 0.02340901
v 0.08679056 0.07801518 0.02411611
v 0.08834881 0.07769236 0.02429289
v 0.08762684 0.07767720 0.02500000
v 0.08984246 0.07702101 0.02588388
v 0.08901541 0.07740886 0.02500000
v 0.08911510 0.07697675 0.02659099
v 0.08829108 0.07738097 0.02570711
v 0.08991565 0.07741586 0.02411611
v 0.08924595 0.07768270 0.02340901
v 0.08737994 0.07731510 0.02659099
v 0.08671853 0.07762657 0.02588388
f 1 2 3
f 2 4 3
f 5 6 7
f 6 8 7
f 9 10 6
f 10 3 6
f 6 3 8
f 3 4 8
f 8 4 11
f 4 12 11

