# https://github.com/mikedh/trimesh
v -0.01295727 -0.01013300 0.05116547
v -0.01285778 -0.01024420 0.05118150
v -0.01626371 0.00222671 0.05055379
v -0.00385663 -0.00307632 0.05240488
v -0.00064109 -0.00150777 0.05275571
v 0.00124493 0.00062009 0.05293745
v -0.00611916 -0.01523506 0.05213463
v -0.00505806 -0.01565570 0.05226466
v 0.00032045 -0.01156919 0.05285358
v -0.00378304 -0.01600997 0.05241331
v -0.00233058 -0.01625263 0.05257413
v -0.00987751 -0.01315185 0.05164124
v -0.00230391 -0.00620010 0.05257873
v -0.01151045 -0.01175018 0.05139867
v -0.00699949 -0.00460941 0.05202689
v -0.01243957 -0.01071166 0.05124892
v -0.00956230 -0.01337185 0.05168523
v -0.00892134 -0.01381922 0.05177463
v -0.00703904 -0.01487040 0.05202190
v 0.00124414 0.00753773 0.05294279
v 0.00016783 0.00965019 0.05283827
v -0.00090368 0.01004565 0.05272839
v -0.00968622 -0.00219309 0.05166840
v -0.00801175 -0.00273320 0.05189644
v -0.00505301 0.00992447 0.05226525
v 0.00095084 0.01096608 0.05291595
v -0.01030711 0.01281920 0.05157935
v -0.01079855 0.01236747 0.05150478
v -0.00929683 0.01357144 0.05172294
v -0.00426313 0.01589095 0.05235801
v -0.00546598 0.01551881 0.05221589
v -0.00319996 0.01085089 0.05247941
v -0.00745103 0.01466871 0.05196932
v -0.00757520 0.01459490 0.05195275
v -0.01078277 -0.00548293 0.05150928
v -0.01285421 0.01021369 0.05118081
v -0.01190399 0.01135136 0.05133706
v 0.00124431 0.01019868 0.05294288
v 0.00124427 0.01639184 0.05294382
v -0.00018736 0.01137751 0.05280231
v 0.00000052 0.01644922 0.05282139
v -0.00132447 0.01178854 0.05268413
v -0.00215909 0.01630882 0.05259453
v -0.00389692 0.01596368 0.05239918
v -0.00211966 -0.00104162 0.05259881
v -0.00628670 -0.00328964 0.05211594
v 0.00758545 0.00482509 0.05346937
v 0.00385053 0.01152663 0.05318241
v 0.00572699 0.00784375 0.05333510
v 0.00687267 0.00339952 0.05341988
v 0.00388464 0.00690501 0.05318533
v 0.00352562 0.00452434 0.05315433
v 0.00204429 0.00596729 0.05302048
v 0.00124460 0.00529090 0.05293970
v 0.00018331 0.00564756 0.05283983
v -0.00096984 0.00229814 0.05272147
v -0.00275004 0.00912928 0.05252962
v 0.00200907 0.01058835 0.05301719
v 0.00489091 0.01570901 0.05326912
v 0.00364948 0.01604117 0.05316508
v 0.00224671 0.01626352 0.05303718
v 0.00151627 0.01637930 0.05297059
v 0.00947350 0.01343612 0.05358910
v 0.00975626 0.01324296 0.05360623
v 0.00938268 0.00422147 0.05358404
v 0.01140188 0.01185668 0.05369778
v 0.01236507 0.01079992 0.05374608
v 0.00876830 0.01391785 0.05354636
v 0.00687594 0.01494746 0.05342013
v 0.00602541 0.01527376 0.05335544
v 0.01117686 0.00361887 0.05368584
v 0.01589174 0.00426193 0.05389953
v 0.01553103 0.00543260 0.05388592
v 0.01468591 0.00741840 0.05385222
v 0.01459145 0.00757816 0.05384814
v 0.01359380 0.00926534 0.05380498
v 0.01286276 0.01025388 0.05377103
v 0.00998513 0.00300247 0.05361957
v 0.01527633 -0.00601922 0.05387578
v 0.01571601 -0.00486870 0.05389295
v 0.01604788 -0.00362045 0.05390526
v 0.01626599 -0.00222851 0.05391312
v 0.01638232 -0.00148613 0.05391728
v 0.01644954 0.00000000 0.05391965
v 0.01630935 0.00215810 0.05391469
v 0.01596348 0.00390051 0.05390214
v 0.01026366 -0.01285471 0.05363552
v 0.01080039 -0.01236479 0.05366444
v 0.00879168 0.00238518 0.05354783
v 0.01186500 -0.01139304 0.05372179
v 0.01325095 -0.00974537 0.05378928
v 0.01343687 -0.00947270 0.05379768
v 0.01392731 -0.00875341 0.05381983
v 0.01495558 -0.00685854 0.05386324
v 0.00925956 -0.01359749 0.05357661
v 0.00092938 -0.00466796 0.05291384
v 0.00124420 -0.00530147 0.05294367
v 0.00237219 0.00117682 0.05305091
v 0.00249943 -0.00782730 0.05306258
v 0.00141700 -0.00830662 0.05296108
v 0.00251338 -0.01048584 0.05306386
v 0.00124506 -0.00740237 0.05293622
v 0.00124419 -0.00882079 0.05294414
v -0.00165293 -0.01636584 0.05264915
v 0.00000052 -0.01644902 0.05282140
v 0.00124431 -0.01187714 0.05294318
v 0.00124442 -0.01636844 0.05294231
v 0.00196521 -0.01211744 0.05301308
v 0.00215276 -0.01630959 0.05303059
v 0.00361010 -0.01266573 0.05316167
v 0.00390019 -0.01596355 0.05318532
v 0.00425371 -0.01589354 0.05321661
v 0.00543182 -0.01553095 0.05331220
v 0.00741425 -0.01468770 0.05345769
v 0.00757826 -0.01459080 0.05346828
v -0.01328446 0.00969857 0.05111008
v -0.01343709 0.00947235 0.05108346
v -0.00858363 -0.00441014 0.05182041
v -0.01398174 0.00866515 0.05098853
v -0.01499163 0.00677753 0.05080358
v -0.01527991 0.00601121 0.05074793
v -0.01573760 0.00479460 0.05065958
v -0.01607899 0.00347366 0.05059142
v -0.01639229 0.00135873 0.05052760
v -0.01531214 -0.00568320 0.05074251
v -0.01644850 0.00000000 0.05051601
v -0.01631026 -0.00214317 0.05054443
v -0.01597190 -0.00386089 0.05061281
v -0.01589923 -0.00422980 0.05062749
v -0.01555208 -0.00536880 0.05069601
v -0.01471885 -0.00735076 0.05085462
v -0.01462833 -0.00750552 0.05087092
v -0.01363826 -0.00919825 0.05104900
f 1 2 3
f 4 5 6
f 7 8 9
f 8 10 9
f 9 10 11
f 12 13 14
f 13 15 14
f 14 15 16
f 15 2 16
f 12 17 13
f 17 18 13
f 13 18 19
f 20 21 22
f 23 24 25
f 22 21 26
f 27 28 25
f 27 25 29
f 30 31 32
f 31 33 32
f 32 33 25
f 33 34 25
f 25 34 29
f 35 23 36
f 23 25 36
f 36 25 37
f 25 28 37
f 21 38 26
f 38 39 26
f 26 39 40
f 39 41 40
f 40 41 42
f 41 43 42
f 42 43 32
f 43 44 32
f 32 44 30
f 6 45 4
f 45 46 4
f 4 46 15
f 47 48 49
f 50 51 52
f 51 53 52
f 52 53 54
f 53 20 54
f 54 20 55
f 20 22 55
f 55 22 56
f 22 57 56
f 56 57 45
f 57 25 45
f 45 25 46
f 25 24 46
f 58 48 59
f 59 60 58
f 60 61 58
f 58 61 38
f 61 62 38
f 38 62 39
f 63 47 64
f 47 65 64
f 64 65 66
f 65 67 66
f 63 68 47
f 68 69 47
f 47 69 48
f 69 70 48
f 48 70 59
f 71 72 73
f 71 73 65
f 73 74 65
f 65 74 75
f 75 76 65
f 76 77 65
f 65 77 67
f 78 79 80
f 80 81 78
f 81 82 78
f 78 82 83
f 83 84 78
f 84 85 78
f 78 85 71
f 85 86 71
f 71 86 72
f 87 88 89
f 88 90 89
f 89 90 91
f 91 92 89
f 92 93 89
f 89 93 78
f 93 94 78
f 78 94 79
f 49 51 47
f 51 50 47
f 47 50 89
f 50 95 89
f 89 95 87
f 5 96 6
f 96 97 6
f 6 97 98
f 97 99 98
f 100 101 95
f 50 98 95
f 98 99 95
f 95 99 100
f 99 102 100
f 100 102 103
f 102 13 103
f 103 13 9
f 13 19 9
f 9 19 7
f 11 104 9
f 104 105 9
f 9 105 106
f 105 107 106
f 106 107 108
f 107 109 108
f 108 109 110
f 109 111 110
f 110 111 112
f 112 113 110
f 113 114 110
f 110 114 101
f 114 115 101
f 101 115 95
f 116 117 2
f 46 118 15
f 118 35 15
f 15 35 2
f 35 36 2
f 2 36 116
f 117 119 2
f 119 120 2
f 2 120 121
f 121 122 2
f 122 123 2
f 2 123 3
f 3 124 125
f 124 126 125
f 125 126 127
f 127 128 125
f 128 129 125
f 125 129 130
f 130 131 125
f 131 132 125
f 125 132 3
f 132 133 3
f 3 133 1

