# https://github.com/mikedh/trimesh
v 0.06278026 0.08186539 -0.00000000
v 0.06216530 0.08183508 -0.00000000
v 0.06216512 0.08183404 0.00050000
v 0.06497632 0.08191156 0.00025000
v 0.06451834 0.08190985 0.00025000
v 0.06385423 0.08189351 0.00135000
v 0.06402099 0.08190150 0.00073750
v 0.06298594 0.08187287 0.00050000
v 0.06339556 0.08188806 0.00012500
v 0.06339558 0.08188812 -0.00000000
v 0.06339556 0.08188806 -0.00012500
v 0.06216512 0.08183404 -0.00050000
v 0.06451834 0.08190985 -0.00025000
v 0.06497632 0.08191156 -0.00025000
v 0.06402099 0.08190150 -0.00073750
v 0.06385423 0.08189351 -0.00135000
v 0.06298594 0.08187287 -0.00050000
v 0.11339551 0.07152665 -0.00000001
v 0.11375921 0.07129873 -0.00000000
v 0.11377501 0.07128855 -0.00017229
v 0.11303001 0.07175022 -0.00005358
v 0.11302931 0.07175070 -0.00000000
v 0.11307931 0.07171957 -0.00042348
v 0.11308061 0.07171874 -0.00042711
v 0.11378841 0.07127986 -0.00021900
v 0.11321291 0.07163610 -0.00079048
v 0.11382261 0.07125788 -0.00033736
v 0.11323391 0.07162293 -0.00082274
v 0.11386731 0.07122901 -0.00042209
v 0.11342101 0.07150511 -0.00111099
v 0.11391451 0.07119850 -0.00051159
v 0.11347441 0.07147113 -0.00116056
v 0.11398921 0.07114993 -0.00059685
v 0.11372021 0.07131450 -0.00138897
v 0.11404491 0.07111377 -0.00066031
v 0.11378301 0.07127389 -0.00142302
v 0.11414771 0.07104649 -0.00073128
v 0.11402181 0.07111952 -0.00155243
v 0.11420391 0.07100977 -0.00077001
v 0.11433231 0.07092502 -0.00081590
v 0.11414401 0.07103922 -0.00158120
v 0.11438641 0.07088935 -0.00083521
v 0.11441711 0.07085969 -0.00164552
v 0.11453030 0.07079357 -0.00084391
v 0.11452781 0.07078552 -0.00163834
v 0.11458971 0.07075404 -0.00084750
v 0.11481431 0.07059357 -0.00161974
v 0.11472781 0.07066124 -0.00081458
v 0.11491171 0.07052710 -0.00158457
v 0.11479141 0.07061845 -0.00079939
v 0.11515851 0.07035882 -0.00149555
v 0.11491281 0.07053614 -0.00073286
v 0.11526831 0.07028273 -0.00141940
v 0.11494741 0.07051271 -0.00071393
v 0.11546671 0.07014527 -0.00128185
v 0.11507040 0.07042871 -0.00059736
v 0.11557371 0.07007011 -0.00115846
v 0.11510251 0.07040680 -0.00056696
v 0.11571911 0.06996805 -0.00099094
v 0.11519301 0.07034461 -0.00042345
v 0.11580851 0.06990464 -0.00081931
v 0.11520771 0.07033446 -0.00040004
v 0.11589461 0.06984358 -0.00065399
v 0.11527111 0.07029072 -0.00021982
v 0.11595971 0.06979713 -0.00042503
v 0.11527351 0.07028907 -0.00021302
v 0.11598561 0.06977864 -0.00033388
v 0.11529751 0.07027247 -0.00002480
v 0.11529781 0.07027225 -0.00000001
v 0.11565831 0.07001655 -0.00000001
v 0.11601601 0.06975689 -0.00000002
v 0.11601601 0.06975689 -0.00000000
v 0.11601601 0.06975689 -0.00000002
v 0.11565831 0.07001655 -0.00000001
v 0.11565831 0.07001655 -0.00000001
v 0.11529781 0.07027225 -0.00000001
v 0.11529781 0.07027226 -0.00000000
v 0.11601601 0.06975689 -0.00000000
v 0.11601541 0.06975727 0.00004374
v 0.11529781 0.07027226 -0.00000000
v 0.11596891 0.06979053 0.00041241
v 0.11528211 0.07028312 0.00017210
v 0.11596411 0.06979402 0.00042645
v 0.11526871 0.07029237 0.00021900
v 0.11584401 0.06987962 0.00077178
v 0.11523501 0.07031566 0.00033706
v 0.11581291 0.06990160 0.00082156
v 0.11519051 0.07034629 0.00042213
v 0.11564081 0.07002325 0.00109703
v 0.11514410 0.07037821 0.00051083
v 0.11557561 0.07006881 0.00115925
v 0.11506931 0.07042948 0.00059681
v 0.11533951 0.07023383 0.00138460
v 0.11501401 0.07046736 0.00066035
v 0.11527071 0.07028121 0.00142245
v 0.11491161 0.07053700 0.00073123
v 0.11503601 0.07044290 0.00155159
v 0.11485511 0.07057539 0.00077030
v 0.11472761 0.07066142 0.00081616
v 0.11491201 0.07052685 0.00158127
v 0.11467611 0.07069618 0.00083468
v 0.11464601 0.07070704 0.00164499
v 0.11452971 0.07079399 0.00084396
v 0.11452901 0.07078481 0.00163797
v 0.11447191 0.07083267 0.00084762
v 0.11424911 0.07097080 0.00162118
v 0.11433211 0.07092519 0.00081454
v 0.11414451 0.07103908 0.00158382
v 0.11426871 0.07096712 0.00079955
v 0.11389441 0.07120230 0.00149452
v 0.11414641 0.07104740 0.00073301
v 0.11378561 0.07127217 0.00141957
v 0.11411331 0.07106912 0.00071500
v 0.11358561 0.07140065 0.00128177
v 0.11398791 0.07115084 0.00059769
v 0.11347721 0.07146932 0.00115862
v 0.11395881 0.07116973 0.00057055
v 0.11333231 0.07156115 0.00099388
v 0.11386441 0.07123088 0.00042370
v 0.11323991 0.07161914 0.00081931
v 0.11385231 0.07123871 0.00040488
v 0.11315301 0.07167366 0.00065516
v 0.11378571 0.07128164 0.00021995
v 0.11308631 0.07171518 0.00042510
v 0.11378441 0.07128247 0.00021645
v 0.11306011 0.07173152 0.00033460
v 0.11375951 0.07129850 0.00002654
f 1 2 3
f 4 5 6
f 5 7 6
f 6 7 8
f 7 9 8
f 8 9 3
f 9 10 3
f 3 10 1
f 10 11 1
f 11 12 1
f 1 12 2
f 13 14 15
f 14 16 15
f 15 16 11
f 16 17 11
f 11 17 12
f 18 19 20
f 21 22 18
f 21 18 23
f 18 20 23
f 23 20 24
f 20 25 24
f 24 25 26
f 25 27 26
f 26 27 28
f 27 29 28
f 28 29 30
f 29 31 30
f 30 31 32
f 31 33 32
f 32 33 34
f 33 35 34
f 34 35 36
f 35 37 36
f 36 37 38
f 37 39 38
f 39 40 38
f 38 40 41
f 40 42 41
f 41 42 43
f 42 44 43
f 43 44 45
f 44 46 45
f 45 46 47
f 46 48 47
f 47 48 49
f 48 50 49
f 49 50 51
f 50 52 51
f 51 52 53
f 52 54 53
f 53 54 55
f 54 56 55
f 55 56 57
f 56 58 57
f 57 58 59
f 58 60 59
f 59 60 61
f 60 62 61
f 61 62 63
f 62 64 63
f 63 64 65
f 64 66 65
f 65 66 67
f 66 68 67
f 69 70 68
f 70 71 68
f 68 71 67
f 72 73 74
f 75 76 77
f 78 70 79
f 70 80 79
f 79 80 81
f 80 82 81
f 81 82 83
f 82 84 83
f 83 84 85
f 84 86 85
f 85 86 87
f 86 88 87
f 87 88 89
f 88 90 89
f 89 90 91
f 90 92 91
f 91 92 93
f 92 94 93
f 93 94 95
f 94 96 95
f 95 96 97
f 96 98 97
f 98 99 97
f 97 99 100
f 99 101 100
f 100 101 102
f 101 103 102
f 102 103 104
f 103 105 104
f 104 105 106
f 105 107 106
f 106 107 108
f 107 109 108
f 108 109 110
f 109 111 110
f 110 111 112
f 111 113 112
f 112 113 114
f 113 115 114
f 114 115 116
f 115 117 116
f 116 117 118
f 117 119 118
f 118 119 120
f 119 121 120
f 120 121 122
f 121 123 122
f 122 123 124
f 123 125 124
f 124 125 126
f 125 127 126
f 19 18 127
f 18 22 127
f 127 22 126

