# https://github.com/mikedh/trimesh
v -0.00086049 0.00191301 0.04356497
v -0.00174040 0.00938857 0.04441362
v -0.00152558 0.00191253 0.04591751
v -0.00174040 0.00938857 0.04441362
v -0.00129700 0.00939077 0.04621160
v -0.00152558 0.00191253 0.04591751
v -0.00129700 0.00939077 0.04621160
v 0.00015646 0.00938839 0.04676586
v -0.00152558 0.00191253 0.04591751
v -0.00152558 0.00191253 0.04591751
v 0.00015646 0.00938839 0.04676586
v 0.00086122 0.00191313 0.04643499
v -0.00015573 0.00938839 0.04323405
v -0.00174040 0.00938857 0.04441362
v -0.00086049 0.00191301 0.04356497
v -0.00208646 0.00943106 0.04526871
v -0.00215316 0.01088654 0.04542040
v -0.00146478 0.00942922 0.04655170
v -0.00215316 0.01088654 0.04542040
v -0.00107014 0.01088356 0.04698097
v -0.00146478 0.00942922 0.04655170
v 0.00072160 0.00943357 0.04298967
v -0.00072348 0.01089477 0.04287755
v -0.00069771 0.00943160 0.04301643
v -0.00146478 0.00942922 0.04655170
v -0.00107014 0.01088356 0.04698097
v -0.00001121 0.00943017 0.04711711
v -0.00069771 0.00943160 0.04301643
v -0.00072348 0.01089477 0.04287755
v -0.00181931 0.00943756 0.04387903
v -0.00072348 0.01089477 0.04287755
v -0.00196719 0.01088970 0.04407691
v -0.00181931 0.00943756 0.04387903
v -0.00181931 0.00943756 0.04387903
v -0.00196719 0.01088970 0.04407691
v -0.00208646 0.00943106 0.04526871
v -0.00196719 0.01088970 0.04407691
v -0.00215316 0.01088654 0.04542040
v -0.00208646 0.00943106 0.04526871
v -0.00288659 0.00943518 0.04399472
v -0.00297522 0.00943679 0.04570305
v -0.00300938 0.01089417 0.04527872
v -0.00288659 0.00943518 0.04399472
v -0.00300938 0.01089417 0.04527872
v -0.00245523 0.01089620 0.04326856
v -0.00179172 0.00943351 0.04755115
v 0.00035971 0.01089966 0.04796832
v -0.00187093 0.01090669 0.04741126
v -0.00179172 0.00943351 0.04755115
v 0.00052098 0.00943428 0.04803037
v 0.00035971 0.01089966 0.04796832
v -0.00178468 0.00943410 0.04249650
v -0.00288659 0.00943518 0.04399472
v -0.00245523 0.01089620 0.04326856
v -0.00178468 0.00943410 0.04249650
v -0.00245523 0.01089620 0.04326856
v -0.00097016 0.01088500 0.04216766
v 0.00001484 0.00943774 0.04194247
v -0.00178468 0.00943410 0.04249650
v -0.00097016 0.01088500 0.04216766
v 0.00001484 0.00943774 0.04194247
v -0.00097016 0.01088500 0.04216766
v 0.00102556 0.01089477 0.04214996
v -0.00297522 0.00943679 0.04570305
v -0.00179172 0.00943351 0.04755115
v -0.00187093 0.01090669 0.04741126
v -0.00297522 0.00943679 0.04570305
v -0.00187093 0.01090669 0.04741126
v -0.00300938 0.01089417 0.04527872
v 0.00226307 -0.00008376 0.04726266
v 0.00484311 -0.00001706 0.05371719
v 0.00226897 -0.00003648 0.05374616
v 0.00226307 -0.00008376 0.04726266
v 0.00707507 -0.00001888 0.05276924
v 0.00484311 -0.00001706 0.05371719
v 0.00867492 -0.00000700 0.05031853
v 0.00707507 -0.00001888 0.05276924
v 0.00226307 -0.00008376 0.04726266
v 0.00875700 -0.00002978 0.04727178
v 0.00867492 -0.00000700 0.05031853
v 0.00876260 0.00001084 0.03626585
v 0.00875890 -0.00002876 0.04272794
v 0.00224823 -0.00007642 0.04275208
v 0.00227022 -0.00003438 0.03624880
v -0.00226229 -0.00008376 0.04726266
v -0.00226825 -0.00003648 0.05374616
v -0.00569195 0.00001103 0.05360394
v -0.00226229 -0.00008376 0.04726266
v -0.00569195 0.00001103 0.05360394
v -0.00781816 -0.00003973 0.05191779
v -0.00226229 -0.00008376 0.04726266
v -0.00781816 -0.00003973 0.05191779
v -0.00870937 -0.00001031 0.04993945
v -0.00870937 -0.00001031 0.04993945
v -0.00875771 -0.00002898 0.04727190
v -0.00227374 -0.00003684 0.03624957
v -0.00224399 -0.00007469 0.04275560
v -0.00875878 -0.00003045 0.04272389
v -0.00877196 0.00002754 0.03626441
v 0.00880933 0.00156462 0.04499995
v 0.00867492 -0.00000700 0.05031853
v 0.00875700 -0.00002978 0.04727178
v 0.00880933 0.00156462 0.04499995
v 0.00878596 0.00934815 0.05057120
v 0.00867492 -0.00000700 0.05031853
v 0.00893134 0.00931364 0.03609037
v 0.00878596 0.00934815 0.05057120
v 0.00880933 0.00156462 0.04499995
v 0.00875890 -0.00002876 0.04272794
v 0.00893134 0.00931364 0.03609037
v 0.00880933 0.00156462 0.04499995
v 0.00876260 0.00001084 0.03626585
v 0.00893134 0.00931364 0.03609037
v 0.00875890 -0.00002876 0.04272794
v -0.00880402 0.00155890 0.04499995
v -0.00875771 -0.00002898 0.04727190
v -0.00870937 -0.00001031 0.04993945
v -0.00889307 0.00934207 0.04989963
v -0.00880402 0.00155890 0.04499995
v -0.00870937 -0.00001031 0.04993945
v -0.00893068 0.00931442 0.03609037
v -0.00875878 -0.00003045 0.04272389
v -0.00880402 0.00155890 0.04499995
v -0.00877196 0.00002754 0.03626441
v -0.00893068 0.00931442 0.03609037
v -0.00880402 0.00155890 0.04499995
v -0.00889307 0.00934207 0.04989963
v 0.00226307 -0.00008376 0.04726266
v 0.00226897 -0.00003648 0.05374616
v 0.00000037 0.00155890 0.05380403
v 0.00000037 0.00148863 0.04499995
v 0.00000037 0.00156116 0.03619641
v 0.00227022 -0.00003438 0.03624880
v 0.00224823 -0.00007642 0.04275208
v 0.00000037 0.00156116 0.03619641
v 0.00224823 -0.00007642 0.04275208
v 0.00000037 0.00148863 0.04499995
v -0.00226229 -0.00008376 0.04726266
v 0.00000037 0.00148863 0.04499995
v 0.00000037 0.00155890 0.05380403
v -0.00226825 -0.00003648 0.05374616
v 0.00000037 0.00156116 0.03619641
v 0.00000037 0.00148863 0.04499995
v -0.00224399 -0.00007469 0.04275560
v -0.00227374 -0.00003684 0.03624957
v 0.00000037 0.00156116 0.03619641
v -0.00224399 -0.00007469 0.04275560
v -0.00893068 0.00931442 0.03609037
v -0.00227374 -0.00003684 0.03624957
v -0.00877196 0.00002754 0.03626441
v 0.00000037 0.00156116 0.03619641
v -0.00227374 -0.00003684 0.03624957
v -0.00893068 0.00931442 0.03609037
v 0.00893134 0.00931364 0.03609037
v 0.00227022 -0.00003438 0.03624880
v 0.00000037 0.00156116 0.03619641
v 0.00893134 0.00931364 0.03609037
v 0.00876260 0.00001084 0.03626585
v 0.00227022 -0.00003438 0.03624880
v 0.00893134 0.00931364 0.03609037
v 0.00000037 0.00156116 0.03619641
v -0.00893068 0.00931442 0.03609037
v 0.00000037 0.00155890 0.05380403
v 0.00473004 0.00935137 0.05389988
v -0.00533980 0.00935519 0.05381947
v 0.00000037 0.00155890 0.05380403
v -0.00533980 0.00935519 0.05381947
v -0.00569195 0.00001103 0.05360394
v 0.00000037 0.00155890 0.05380403
v -0.00569195 0.00001103 0.05360394
v -0.00226825 -0.00003648 0.05374616
v 0.00484311 -0.00001706 0.05371719
v 0.00000037 0.00155890 0.05380403
v 0.00226897 -0.00003648 0.05374616
v 0.00473004 0.00935137 0.05389988
v -0.00288659 0.00943518 0.04399472
v -0.00270712 0.00938368 0.04193902
v -0.00394457 0.00940043 0.04425376
v -0.00178468 0.00943410 0.04249650
v 0.00878596 0.00934815 0.05057120
v 0.00749272 0.00939500 0.04425060
v 0.00749749 0.00939482 0.04575371
v 0.00218564 0.00939083 0.04837530
v 0.00254625 0.00943661 0.04679846
v 0.00052098 0.00943428 0.04803037
v -0.00533980 0.00935519 0.05381947
v -0.00725847 0.00938779 0.05068916
v -0.00786078 0.00935531 0.05219143
v 0.00749838 0.00939387 0.03750687
v 0.00893134 0.00931364 0.03609037
v 0.00075413 0.00939506 0.03750258
v -0.00533980 0.00935519 0.05381947
v -0.00497216 0.00939274 0.05243790
v -0.00725847 0.00938779 0.05068916
v 0.00749272 0.00939500 0.04425060
v 0.00893134 0.00931364 0.03609037
v 0.00749838 0.00939387 0.03750687
v 0.00878596 0.00934815 0.05057120
v 0.00893134 0.00931364 0.03609037
v 0.00749272 0.00939500 0.04425060
v -0.00893068 0.00931442 0.03609037
v 0.00075413 0.00939506 0.03750258
v -0.00893068 0.00931442 0.03609037
v -0.00075576 0.00939441 0.03750163
v -0.00749248 0.00939387 0.03750175
v -0.00893068 0.00931442 0.03609037
v -0.00749653 0.00939482 0.04424685
v -0.00889307 0.00934207 0.04989963
v -0.00786078 0.00935531 0.05219143
v -0.00725847 0.00938779 0.05068916
v -0.00889307 0.00934207 0.04989963
v 0.00218564 0.00939083 0.04837530
v 0.00344527 0.00938672 0.04705679
v 0.00254625 0.00943661 0.04679846
v 0.00686866 0.00935215 0.05310285
v 0.00736529 0.00939369 0.05032676
v 0.00534445 0.00938582 0.05235570
v -0.00725847 0.00938779 0.05068916
v -0.00749183 0.00939482 0.04574936
v -0.00889307 0.00934207 0.04989963
v -0.00533980 0.00935519 0.05381947
v -0.00075355 0.00939471 0.05249726
v -0.00497216 0.00939274 0.05243790
v 0.00686866 0.00935215 0.05310285
v 0.00878596 0.00934815 0.05057120
v 0.00736529 0.00939369 0.05032676
v 0.00001484 0.00943774 0.04194247
v -0.00270712 0.00938368 0.04193902
v -0.00178468 0.00943410 0.04249650
v 0.00344527 0.00938672 0.04705679
v 0.00392353 0.00938994 0.04573357
v 0.00254625 0.00943661 0.04679846
v 0.00001484 0.00943774 0.04194247
v -0.00073048 0.00939190 0.04108011
v -0.00270712 0.00938368 0.04193902
v 0.00254625 0.00943661 0.04679846
v 0.00392353 0.00938994 0.04573357
v 0.00303841 0.00943363 0.04465281
v 0.00074981 0.00939506 0.05249238
v -0.00749183 0.00939482 0.04574936
v -0.00749653 0.00939482 0.04424685
v -0.00889307 0.00934207 0.04989963
v 0.00392353 0.00938994 0.04573357
v 0.00392336 0.00939035 0.04426658
v 0.00303841 0.00943363 0.04465281
v 0.00001484 0.00943774 0.04194247
v 0.00073400 0.00938994 0.04107677
v -0.00073048 0.00939190 0.04108011
v 0.00207764 0.00943434 0.04267549
v 0.00205708 0.00938672 0.04155498
v 0.00001484 0.00943774 0.04194247
v 0.00073400 0.00938994 0.04107677
v 0.00392336 0.00939035 0.04426658
v 0.00337565 0.00939083 0.04281467
v 0.00303841 0.00943363 0.04465281
v 0.00473004 0.00935137 0.05389988
v 0.00074981 0.00939506 0.05249238
v -0.00073305 0.00939035 0.04892301
v -0.00075355 0.00939471 0.05249726
v -0.00749183 0.00939482 0.04574936
v -0.00392264 0.00939035 0.04573339
v -0.00749653 0.00939482 0.04424685
v 0.00207764 0.00943434 0.04267549
v -0.00205636 0.00938672 0.04844492
v -0.00179172 0.00943351 0.04755115
v -0.00337487 0.00939083 0.04718530
v 0.00207764 0.00943434 0.04267549
v 0.00337565 0.00939083 0.04281467
v 0.00205708 0.00938672 0.04155498
v -0.00749248 0.00939387 0.03750175
v -0.00075576 0.00939441 0.03750163
v 0.00392353 0.00938994 0.04573357
v 0.00749749 0.00939482 0.04575371
v 0.00392336 0.00939035 0.04426658
v -0.00179172 0.00943351 0.04755115
v -0.00297522 0.00943679 0.04570305
v -0.00337487 0.00939083 0.04718530
v 0.00878596 0.00934815 0.05057120
v 0.00749749 0.00939482 0.04575371
v 0.00736529 0.00939369 0.05032676
v -0.00073305 0.00939035 0.04892301
v -0.00179172 0.00943351 0.04755115
v -0.00205636 0.00938672 0.04844492
v -0.00337487 0.00939083 0.04718530
v -0.00297522 0.00943679 0.04570305
v -0.00392264 0.00939035 0.04573339
v 0.00473004 0.00935137 0.05389988
v 0.00534445 0.00938582 0.05235570
v 0.00074981 0.00939506 0.05249238
v -0.00073305 0.00939035 0.04892301
v 0.00052098 0.00943428 0.04803037
v -0.00179172 0.00943351 0.04755115
v 0.00073400 0.00938994 0.04107677
v 0.00075413 0.00939506 0.03750258
v -0.00073048 0.00939190 0.04108011
v 0.00073400 0.00938994 0.04892319
v -0.00075576 0.00939441 0.03750163
v -0.00392264 0.00939035 0.04573339
v -0.00394457 0.00940043 0.04425376
v -0.00749653 0.00939482 0.04424685
v -0.00392264 0.00939035 0.04573339
v -0.00297522 0.00943679 0.04570305
v -0.00394457 0.00940043 0.04425376
v 0.00073400 0.00938994 0.04892319
v 0.00052098 0.00943428 0.04803037
v -0.00073305 0.00939035 0.04892301
v 0.00749272 0.00939500 0.04425060
v -0.00297522 0.00943679 0.04570305
v -0.00288659 0.00943518 0.04399472
v -0.00394457 0.00940043 0.04425376
v 0.00686866 0.00935215 0.05310285
v 0.00534445 0.00938582 0.05235570
v 0.00473004 0.00935137 0.05389988
v 0.00218564 0.00939083 0.04837530
v 0.00052098 0.00943428 0.04803037
v 0.00073400 0.00938994 0.04892319
v 0.00878596 0.00934815 0.05057120
v 0.00686866 0.00935215 0.05310285
v 0.00707507 -0.00001888 0.05276924
v 0.00878596 0.00934815 0.05057120
v 0.00707507 -0.00001888 0.05276924
v 0.00867492 -0.00000700 0.05031853
v 0.00686866 0.00935215 0.05310285
v 0.00484311 -0.00001706 0.05371719
v 0.00707507 -0.00001888 0.05276924
v 0.00686866 0.00935215 0.05310285
v 0.00473004 0.00935137 0.05389988
v 0.00484311 -0.00001706 0.05371719
v -0.00786078 0.00935531 0.05219143
v -0.00781816 -0.00003973 0.05191779
v -0.00569195 0.00001103 0.05360394
v -0.00533980 0.00935519 0.05381947
v -0.00786078 0.00935531 0.05219143
v -0.00569195 0.00001103 0.05360394
v -0.00889307 0.00934207 0.04989963
v -0.00870937 -0.00001031 0.04993945
v -0.00781816 -0.00003973 0.05191779
v -0.00786078 0.00935531 0.05219143
v 0.00749272 0.00939500 0.04425060
v 0.00733322 0.00144219 0.03767275
v 0.00733107 0.00144166 0.04408031
v 0.00749838 0.00939387 0.03750687
v 0.00392336 0.00939035 0.04426658
v 0.00733107 0.00144166 0.04408031
v 0.00411546 0.00143361 0.04404103
v 0.00749272 0.00939500 0.04425060
v 0.00733107 0.00144166 0.04408031
v 0.00392336 0.00939035 0.04426658
v 0.00091362 0.00144046 0.04092460
v 0.00073400 0.00938994 0.04107677
v 0.00205708 0.00938672 0.04155498
v 0.00267535 0.00142789 0.04171341
v 0.00091362 0.00144046 0.04092460
v 0.00205708 0.00938672 0.04155498
v 0.00267535 0.00142789 0.04171341
v 0.00205708 0.00938672 0.04155498
v 0.00337565 0.00939083 0.04281467
v 0.00411546 0.00143361 0.04404103
v 0.00267535 0.00142789 0.04171341
v 0.00337565 0.00939083 0.04281467
v 0.00411546 0.00143361 0.04404103
v 0.00337565 0.00939083 0.04281467
v 0.00392336 0.00939035 0.04426658
v 0.00091639 0.00144249 0.03767257
v 0.00073400 0.00938994 0.04107677
v 0.00091362 0.00144046 0.04092460
v 0.00091639 0.00144249 0.03767257
v 0.00075413 0.00939506 0.03750258
v 0.00073400 0.00938994 0.04107677
v 0.00733322 0.00144219 0.03767275
v 0.00749838 0.00939387 0.03750687
v 0.00091639 0.00144249 0.03767257
v 0.00075413 0.00939506 0.03750258
v 0.00267535 0.00142789 0.04171341
v 0.00091639 0.00144249 0.03767257
v 0.00091362 0.00144046 0.04092460
v 0.00733322 0.00144219 0.03767275
v 0.00091639 0.00144249 0.03767257
v 0.00267535 0.00142789 0.04171341
v 0.00733107 0.00144166 0.04408031
v 0.00411546 0.00143361 0.04404103
v -0.00733286 0.00144309 0.03767186
v -0.00075576 0.00939441 0.03750163
v -0.00749248 0.00939387 0.03750175
v -0.00091610 0.00144219 0.03767275
v -0.00073048 0.00939190 0.04108011
v -0.00091610 0.00144219 0.03767275
v -0.00090949 0.00144207 0.04092669
v -0.00075576 0.00939441 0.03750163
v -0.00091610 0.00144219 0.03767275
v -0.00073048 0.00939190 0.04108011
v -0.00304520 0.00141972 0.04195654
v -0.00394457 0.00940043 0.04425376
v -0.00270712 0.00938368 0.04193902
v -0.00304520 0.00141972 0.04195654
v -0.00407320 0.00144213 0.04408985
v -0.00394457 0.00940043 0.04425376
v -0.00090949 0.00144207 0.04092669
v -0.00270712 0.00938368 0.04193902
v -0.00073048 0.00939190 0.04108011
v -0.00090949 0.00144207 0.04092669
v -0.00304520 0.00141972 0.04195654
v -0.00270712 0.00938368 0.04193902
v -0.00394457 0.00940043 0.04425376
v -0.00733197 0.00144273 0.04407978
v -0.00749653 0.00939482 0.04424685
v -0.00407320 0.00144213 0.04408985
v -0.00733286 0.00144309 0.03767186
v -0.00749653 0.00939482 0.04424685
v -0.00733197 0.00144273 0.04407978
v -0.00749248 0.00939387 0.03750175
v -0.00304520 0.00141972 0.04195654
v -0.00091610 0.00144219 0.03767275
v -0.00733286 0.00144309 0.03767186
v -0.00304520 0.00141972 0.04195654
v -0.00733286 0.00144309 0.03767186
v -0.00733197 0.00144273 0.04407978
v -0.00090949 0.00144207 0.04092669
v -0.00091610 0.00144219 0.03767275
v -0.00304520 0.00141972 0.04195654
v -0.00407320 0.00144213 0.04408985
v -0.00304520 0.00141972 0.04195654
v -0.00733197 0.00144273 0.04407978
v -0.00714052 0.00143117 0.05044227
v -0.00725847 0.00938779 0.05068916
v -0.00509042 0.00143230 0.05222845
v -0.00725847 0.00938779 0.05068916
v -0.00497216 0.00939274 0.05243790
v -0.00509042 0.00143230 0.05222845
v -0.00733220 0.00144351 0.04591983
v -0.00725847 0.00938779 0.05068916
v -0.00714052 0.00143117 0.05044227
v -0.00733220 0.00144351 0.04591983
v -0.00749183 0.00939482 0.04574936
v -0.00725847 0.00938779 0.05068916
v -0.00733220 0.00144351 0.04591983
v -0.00392264 0.00939035 0.04573339
v -0.00749183 0.00939482 0.04574936
v -0.00411481 0.00143343 0.04595905
v -0.00392264 0.00939035 0.04573339
v -0.00733220 0.00144351 0.04591983
v -0.00091310 0.00144011 0.04907548
v -0.00073305 0.00939035 0.04892301
v -0.00205636 0.00938672 0.04844492
v -0.00267529 0.00142652 0.04828691
v -0.00091310 0.00144011 0.04907548
v -0.00205636 0.00938672 0.04844492
v -0.00267529 0.00142652 0.04828691
v -0.00205636 0.00938672 0.04844492
v -0.00337487 0.00939083 0.04718530
v -0.00411481 0.00143343 0.04595905
v -0.00267529 0.00142652 0.04828691
v -0.00337487 0.00939083 0.04718530
v -0.00411481 0.00143343 0.04595905
v -0.00337487 0.00939083 0.04718530
v -0.00392264 0.00939035 0.04573339
v -0.00073305 0.00939035 0.04892301
v -0.00091634 0.00144303 0.05232822
v -0.00075355 0.00939471 0.05249726
v -0.00073305 0.00939035 0.04892301
v -0.00091310 0.00144011 0.04907548
v -0.00091634 0.00144303 0.05232822
v -0.00497216 0.00939274 0.05243790
v -0.00091634 0.00144303 0.05232822
v -0.00509042 0.00143230 0.05222845
v -0.00075355 0.00939471 0.05249726
v -0.00091634 0.00144303 0.05232822
v -0.00497216 0.00939274 0.05243790
v -0.00411481 0.00143343 0.04595905
v -0.00733220 0.00144351 0.04591983
v -0.00714052 0.00143117 0.05044227
v -0.00267529 0.00142652 0.04828691
v -0.00509042 0.00143230 0.05222845
v -0.00509042 0.00143230 0.05222845
v -0.00091310 0.00144011 0.04907548
v -0.00267529 0.00142652 0.04828691
v -0.00091634 0.00144303 0.05232822
v -0.00091310 0.00144011 0.04907548
v 0.00660825 0.00141263 0.05116909
v 0.00736529 0.00939369 0.05032676
v 0.00730997 0.00143552 0.04958140
v 0.00492483 0.00143731 0.05226349
v 0.00534445 0.00938582 0.05235570
v 0.00660825 0.00141263 0.05116909
v 0.00534445 0.00938582 0.05235570
v 0.00736529 0.00939369 0.05032676
v 0.00660825 0.00141263 0.05116909
v 0.00534445 0.00938582 0.05235570
v 0.00091556 0.00144356 0.05232697
v 0.00074981 0.00939506 0.05249238
v 0.00534445 0.00938582 0.05235570
v 0.00492483 0.00143731 0.05226349
v 0.00091556 0.00144356 0.05232697
v 0.00091556 0.00144356 0.05232697
v 0.00073400 0.00938994 0.04892319
v 0.00074981 0.00939506 0.05249238
v 0.00095939 0.00143349 0.04911512
v 0.00073400 0.00938994 0.04892319
v 0.00091556 0.00144356 0.05232697
v 0.00407588 0.00144011 0.04591345
v 0.00392353 0.00938994 0.04573357
v 0.00344527 0.00938672 0.04705679
v 0.00328731 0.00142652 0.04767566
v 0.00407588 0.00144011 0.04591345
v 0.00344527 0.00938672 0.04705679
v 0.00328731 0.00142652 0.04767566
v 0.00344527 0.00938672 0.04705679
v 0.00218564 0.00939083 0.04837530
v 0.00095939 0.00143349 0.04911512
v 0.00328731 0.00142652 0.04767566
v 0.00218564 0.00939083 0.04837530
v 0.00095939 0.00143349 0.04911512
v 0.00218564 0.00939083 0.04837530
v 0.00073400 0.00938994 0.04892319
v 0.00733232 0.00144285 0.04592007
v 0.00392353 0.00938994 0.04573357
v 0.00407588 0.00144011 0.04591345
v 0.00733232 0.00144285 0.04592007
v 0.00749749 0.00939482 0.04575371
v 0.00392353 0.00938994 0.04573357
v 0.00736529 0.00939369 0.05032676
v 0.00733232 0.00144285 0.04592007
v 0.00730997 0.00143552 0.04958140
v 0.00749749 0.00939482 0.04575371
v 0.00733232 0.00144285 0.04592007
v 0.00736529 0.00939369 0.05032676
v 0.00492483 0.00143731 0.05226349
v 0.00328731 0.00142652 0.04767566
v 0.00095939 0.00143349 0.04911512
v 0.00091556 0.00144356 0.05232697
v 0.00730997 0.00143552 0.04958140
v 0.00407588 0.00144011 0.04591345
v 0.00328731 0.00142652 0.04767566
v 0.00730997 0.00143552 0.04958140
v 0.00733232 0.00144285 0.04592007
v 0.00407588 0.00144011 0.04591345
v 0.00660825 0.00141263 0.05116909
v 0.00730997 0.00143552 0.04958140
v 0.00328731 0.00142652 0.04767566
v 0.00660825 0.00141263 0.05116909
v 0.00328731 0.00142652 0.04767566
v 0.00492483 0.00143731 0.05226349
v -0.00072348 0.01089477 0.04287755
v -0.00245523 0.01089620 0.04326856
v -0.00196719 0.01088970 0.04407691
v -0.00196719 0.01088970 0.04407691
v -0.00245523 0.01089620 0.04326856
v -0.00300938 0.01089417 0.04527872
v -0.00072348 0.01089477 0.04287755
v -0.00097016 0.01088500 0.04216766
v -0.00245523 0.01089620 0.04326856
v -0.00215316 0.01088654 0.04542040
v -0.00072348 0.01089477 0.04287755
v 0.00102556 0.01089477 0.04214996
v -0.00097016 0.01088500 0.04216766
v 0.00098478 0.01088815 0.04306632
v 0.00102556 0.01089477 0.04214996
v -0.00215316 0.01088654 0.04542040
v -0.00300938 0.01089417 0.04527872
v -0.00187093 0.01090669 0.04741126
v 0.00199962 0.01089692 0.04408597
v 0.00102556 0.01089477 0.04214996
v 0.00098478 0.01088815 0.04306632
v 0.00234574 0.01088672 0.04317915
v 0.00102556 0.01089477 0.04214996
v 0.00199962 0.01089692 0.04408597
v -0.00107014 0.01088356 0.04698097
v -0.00215316 0.01088654 0.04542040
v -0.00187093 0.01090669 0.04741126
v 0.00299925 0.01089721 0.04464477
v 0.00234574 0.01088672 0.04317915
v 0.00199962 0.01089692 0.04408597
v 0.00035971 0.01089966 0.04796832
v 0.00082694 0.01089149 0.04701918
v -0.00107014 0.01088356 0.04698097
v 0.00035971 0.01089966 0.04796832
v -0.00107014 0.01088356 0.04698097
v -0.00187093 0.01090669 0.04741126
v 0.00299925 0.01089721 0.04464477
v 0.00199962 0.01089692 0.04408597
v 0.00205129 0.01086962 0.04582440
v 0.00233877 0.01088500 0.04695528
v 0.00299925 0.01089721 0.04464477
v 0.00205129 0.01086962 0.04582440
v 0.00035971 0.01089966 0.04796832
v 0.00205129 0.01086962 0.04582440
v 0.00082694 0.01089149 0.04701918
v 0.00233877 0.01088500 0.04695528
v 0.00205129 0.01086962 0.04582440
v 0.00254625 0.00943661 0.04679846
v 0.00303841 0.00943363 0.04465281
v 0.00299925 0.01089721 0.04464477
v 0.00254625 0.00943661 0.04679846
v 0.00299925 0.01089721 0.04464477
v 0.00233877 0.01088500 0.04695528
v 0.00207764 0.00943434 0.04267549
v 0.00001484 0.00943774 0.04194247
v 0.00102556 0.01089477 0.04214996
v 0.00052098 0.00943428 0.04803037
v 0.00254625 0.00943661 0.04679846
v 0.00233877 0.01088500 0.04695528
v 0.00207764 0.00943434 0.04267549
v 0.00102556 0.01089477 0.04214996
v 0.00234574 0.01088672 0.04317915
v 0.00052098 0.00943428 0.04803037
v 0.00233877 0.01088500 0.04695528
v 0.00035971 0.01089966 0.04796832
v 0.00207764 0.00943434 0.04267549
v 0.00234574 0.01088672 0.04317915
v 0.00299925 0.01089721 0.04464477
v 0.00303841 0.00943363 0.04465281
v 0.00207764 0.00943434 0.04267549
v 0.00299925 0.01089721 0.04464477
v 0.00215489 0.00941843 0.04456418
v 0.00199962 0.01089692 0.04408597
v 0.00072160 0.00943357 0.04298967
v -0.00107014 0.01088356 0.04698097
v 0.00082694 0.01089149 0.04701918
v -0.00001121 0.00943017 0.04711711
v 0.00199962 0.01089692 0.04408597
v 0.00098478 0.01088815 0.04306632
v 0.00072160 0.00943357 0.04298967
v -0.00001121 0.00943017 0.04711711
v 0.00082694 0.01089149 0.04701918
v 0.00144845 0.00942922 0.04656761
v 0.00098478 0.01088815 0.04306632
v -0.00072348 0.01089477 0.04287755
v 0.00072160 0.00943357 0.04298967
v 0.00082694 0.01089149 0.04701918
v 0.00205129 0.01086962 0.04582440
v 0.00144845 0.00942922 0.04656761
v 0.00144845 0.00942922 0.04656761
v 0.00205129 0.01086962 0.04582440
v 0.00215489 0.00941843 0.04456418
v 0.00205129 0.01086962 0.04582440
v 0.00199962 0.01089692 0.04408597
v 0.00215489 0.00941843 0.04456418
v 0.00086122 0.00191313 0.04643499
v 0.00174111 0.00938857 0.04558634
v 0.00152630 0.00191247 0.04408240
v 0.00174111 0.00938857 0.04558634
v 0.00129771 0.00939077 0.04378831
v 0.00152630 0.00191247 0.04408240
v 0.00129771 0.00939077 0.04378831
v -0.00015573 0.00938839 0.04323405
v 0.00152630 0.00191247 0.04408240
v 0.00152630 0.00191247 0.04408240
v -0.00015573 0.00938839 0.04323405
v -0.00086049 0.00191301 0.04356497
v 0.00015646 0.00938839 0.04676586
v 0.00174111 0.00938857 0.04558634
v 0.00086122 0.00191313 0.04643499
v -0.00174040 0.00938857 0.04441362
v -0.00181931 0.00943756 0.04387903
v -0.00208646 0.00943106 0.04526871
v 0.00129771 0.00939077 0.04378831
v 0.00215489 0.00941843 0.04456418
v 0.00072160 0.00943357 0.04298967
v -0.00015573 0.00938839 0.04323405
v 0.00072160 0.00943357 0.04298967
v -0.00069771 0.00943160 0.04301643
v -0.00001121 0.00943017 0.04711711
v -0.00129700 0.00939077 0.04621160
v -0.00146478 0.00942922 0.04655170
v 0.00144845 0.00942922 0.04656761
v 0.00174111 0.00938857 0.04558634
v 0.00015646 0.00938839 0.04676586
v -0.00129700 0.00939077 0.04621160
v -0.00174040 0.00938857 0.04441362
v -0.00146478 0.00942922 0.04655170
v -0.00146478 0.00942922 0.04655170
v -0.00174040 0.00938857 0.04441362
v -0.00208646 0.00943106 0.04526871
v -0.00001121 0.00943017 0.04711711
v 0.00015646 0.00938839 0.04676586
v -0.00129700 0.00939077 0.04621160
v -0.00174040 0.00938857 0.04441362
v -0.00069771 0.00943160 0.04301643
v -0.00181931 0.00943756 0.04387903
v -0.00174040 0.00938857 0.04441362
v -0.00015573 0.00938839 0.04323405
v -0.00069771 0.00943160 0.04301643
v 0.00144845 0.00942922 0.04656761
v 0.00215489 0.00941843 0.04456418
v 0.00174111 0.00938857 0.04558634
v -0.00001121 0.00943017 0.04711711
v 0.00144845 0.00942922 0.04656761
v 0.00015646 0.00938839 0.04676586
v 0.00174111 0.00938857 0.04558634
v 0.00215489 0.00941843 0.04456418
v 0.00129771 0.00939077 0.04378831
v 0.00129771 0.00939077 0.04378831
v 0.00072160 0.00943357 0.04298967
v -0.00015573 0.00938839 0.04323405
v 0.00086122 0.00191313 0.04643499
v 0.00152630 0.00191247 0.04408240
v -0.00086049 0.00191301 0.04356497
v -0.00152558 0.00191253 0.04591751
v -0.00224399 -0.00007469 0.04275560
v 0.00000037 0.00148863 0.04499995
v -0.00880402 0.00155890 0.04499995
v -0.00224399 -0.00007469 0.04275560
v -0.00880402 0.00155890 0.04499995
v -0.00875878 -0.00003045 0.04272389
v -0.00226229 -0.00008376 0.04726266
v -0.00875771 -0.00002898 0.04727190
v -0.00880402 0.00155890 0.04499995
v 0.00000037 0.00148863 0.04499995
v -0.00226229 -0.00008376 0.04726266
v -0.00880402 0.00155890 0.04499995
v 0.00880933 0.00156462 0.04499995
v 0.00875700 -0.00002978 0.04727178
v 0.00226307 -0.00008376 0.04726266
v 0.00880933 0.00156462 0.04499995
v 0.00226307 -0.00008376 0.04726266
v 0.00000037 0.00148863 0.04499995
v 0.00880933 0.00156462 0.04499995
v 0.00000037 0.00148863 0.04499995
v 0.00224823 -0.00007642 0.04275208
v 0.00875890 -0.00002876 0.04272794
v 0.00880933 0.00156462 0.04499995
v 0.00224823 -0.00007642 0.04275208
f 1 2 3
f 4 5 6
f 7 8 9
f 10 11 12
f 13 14 15
f 16 17 18
f 19 20 21
f 22 23 24
f 25 26 27
f 28 29 30
f 31 32 33
f 34 35 36
f 37 38 39
f 40 41 42
f 43 44 45
f 46 47 48
f 49 50 51
f 52 53 54
f 55 56 57
f 58 59 60
f 61 62 63
f 64 65 66
f 67 68 69
f 70 71 72
f 73 74 75
f 76 77 78
f 79 80 70
f 81 82 83
f 81 83 84
f 85 86 87
f 88 89 90
f 91 92 93
f 85 94 95
f 96 97 98
f 96 98 99
f 100 101 102
f 103 104 105
f 106 107 108
f 109 110 111
f 112 113 114
f 115 116 117
f 118 119 120
f 121 122 123
f 121 124 122
f 125 126 127
f 128 129 130
f 131 128 130
f 132 133 134
f 135 136 137
f 138 139 140
f 138 140 141
f 142 143 144
f 145 146 147
f 148 149 150
f 151 152 153
f 154 155 156
f 157 158 159
f 160 161 162
f 163 164 165
f 166 167 168
f 169 170 171
f 172 173 174
f 172 175 173
f 176 177 178
f 176 179 177
f 180 181 182
f 183 184 185
f 186 187 188
f 189 190 191
f 192 193 194
f 195 196 197
f 198 199 200
f 190 201 191
f 202 203 204
f 205 206 207
f 207 206 208
f 209 210 211
f 212 213 214
f 215 216 217
f 218 219 220
f 221 222 223
f 224 225 226
f 227 228 229
f 230 231 232
f 233 234 235
f 236 237 238
f 221 239 222
f 240 241 242
f 243 244 245
f 246 247 248
f 249 250 251
f 251 250 252
f 253 254 255
f 221 256 239
f 257 258 259
f 260 261 262
f 255 254 263
f 264 265 266
f 267 268 269
f 270 271 201
f 272 273 274
f 275 276 277
f 278 279 280
f 281 282 283
f 284 285 286
f 287 288 289
f 290 291 292
f 293 294 295
f 257 296 258
f 295 294 297
f 298 299 300
f 301 302 303
f 304 305 306
f 273 307 274
f 308 309 310
f 311 312 313
f 314 315 316
f 317 318 319
f 320 321 322
f 323 324 325
f 326 327 328
f 329 330 331
f 332 333 334
f 335 336 337
f 338 335 337
f 339 340 341
f 342 340 339
f 343 344 345
f 346 347 348
f 349 350 351
f 352 353 354
f 355 356 357
f 358 359 360
f 361 362 363
f 364 365 366
f 367 368 369
f 370 371 372
f 372 371 373
f 374 375 376
f 377 378 379
f 380 379 381
f 380 377 379
f 382 383 384
f 385 383 382
f 386 387 388
f 389 390 391
f 392 393 394
f 395 396 397
f 398 399 400
f 401 402 403
f 404 405 406
f 404 407 405
f 408 409 410
f 408 411 409
f 412 413 414
f 415 416 417
f 418 419 420
f 421 422 423
f 424 425 426
f 427 428 429
f 430 431 432
f 433 434 435
f 436 437 438
f 439 440 441
f 442 443 444
f 445 446 447
f 448 449 450
f 451 452 453
f 454 455 456
f 457 458 459
f 460 461 462
f 463 464 465
f 466 467 468
f 469 470 471
f 472 469 471
f 473 472 471
f 474 475 476
f 477 478 473
f 479 480 481
f 482 483 484
f 485 486 487
f 488 489 490
f 491 492 493
f 494 495 496
f 497 498 499
f 500 501 502
f 503 504 505
f 506 507 508
f 509 510 511
f 512 513 514
f 515 516 517
f 518 519 520
f 521 522 523
f 524 525 526
f 527 528 529
f 527 529 530
f 531 532 533
f 534 535 536
f 537 538 539
f 540 541 542
f 543 544 545
f 546 547 548
f 549 550 551
f 552 546 548
f 553 554 555
f 556 557 543
f 558 559 560
f 561 562 563
f 564 565 566
f 567 568 569
f 570 571 572
f 573 574 575
f 576 577 578
f 579 580 581
f 582 583 584
f 585 586 587
f 588 589 573
f 590 591 592
f 593 594 595
f 596 597 598
f 599 600 601
f 602 603 604
f 605 606 607
f 608 609 610
f 611 612 613
f 614 615 616
f 617 618 619
f 620 621 622
f 623 624 625
f 626 627 628
f 629 630 631
f 632 633 634
f 635 636 637
f 638 639 640
f 641 642 643
f 644 645 646
f 647 648 649
f 650 651 652
f 653 654 655
f 656 657 658
f 659 660 661
f 662 663 664
f 665 666 667
f 668 669 670
f 671 672 673
f 674 675 676
f 677 678 679
f 680 681 682
f 683 684 685
f 686 687 688
f 689 690 691
f 692 693 694
f 695 696 697
f 695 697 698
f 699 700 701
f 702 703 704
f 705 706 707
f 708 709 710
f 711 712 713
f 714 715 716
f 717 718 719
f 720 721 722

