# https://github.com/mikedh/trimesh
v 0.00235420 0.00942010 0.04753577
v -0.00000200 0.01280522 0.04499375
v 0.00336742 0.00942016 0.04579621
v 0.00120962 0.00942183 0.04820466
v -0.00000200 0.01280522 0.04499375
v 0.00235420 0.00942010 0.04753577
v 0.00120962 0.00942183 0.04820466
v -0.00090007 0.00942343 0.04836726
v -0.00000200 0.01280522 0.04499375
v -0.00090007 0.00942343 0.04836726
v -0.00256878 0.00941420 0.04729557
v -0.00000200 0.01280522 0.04499375
v -0.00346106 0.00942600 0.04545509
v -0.00000200 0.01280522 0.04499375
v -0.00256878 0.00941420 0.04729557
v -0.01040536 0.01838725 0.00396413
v 0.01030278 0.01967525 0.00399995
v -0.01030677 0.01970410 0.00399995
v -0.01040536 0.01838725 0.00396413
v 0.01040160 0.01821219 0.00399756
v 0.01030278 0.01967525 0.00399995
v -0.01032835 0.01741087 0.00631153
v 0.01020628 0.01744186 0.00510973
v -0.01040232 0.01741403 0.00476950
v -0.01032835 0.01741087 0.00631153
v 0.01033771 0.01741051 0.00634837
v 0.01020628 0.01744186 0.00510973
v -0.01034963 0.00256318 0.00179994
v -0.01046431 0.00807202 0.00174117
v -0.01036626 0.00252432 0.00013333
v -0.01033806 0.00802857 0.00383842
v -0.01049768 0.01066809 0.00380844
v -0.01046431 0.00807202 0.00174117
v -0.01037907 0.01279222 0.01885205
v -0.01050090 0.01703566 0.01771438
v -0.01037496 0.01157689 0.01777273
v -0.01037496 0.01157689 0.01777273
v -0.01050090 0.01703566 0.01771438
v -0.01040315 0.01144498 0.00479895
v -0.01040315 0.01144498 0.00479895
v -0.01050090 0.01703566 0.01771438
v -0.01040232 0.01741403 0.00476950
v -0.01037907 0.01279222 0.01885205
v -0.01033318 0.01621478 0.01882749
v -0.01050090 0.01703566 0.01771438
v -0.01040232 0.01741403 0.00476950
v -0.01040536 0.01838725 0.00396413
v -0.01049768 0.01066809 0.00380844
v -0.01040315 0.01144498 0.00479895
v -0.01040232 0.01741403 0.00476950
v -0.01049768 0.01066809 0.00380844
v -0.01049768 0.01066809 0.00380844
v -0.01046431 0.02075433 0.00174117
v -0.01046431 0.00807202 0.00174117
v -0.01040536 0.01838725 0.00396413
v -0.01046431 0.02075433 0.00174117
v -0.01049768 0.01066809 0.00380844
v -0.01040536 0.01838725 0.00396413
v -0.01025623 0.02079778 0.00392026
v -0.01046431 0.02075433 0.00174117
v -0.01046431 0.02075433 0.00174117
v -0.01039052 0.02630412 0.00016363
v -0.01046431 0.00807202 0.00174117
v -0.01046431 0.00807202 0.00174117
v -0.01039052 0.02630412 0.00016363
v -0.01036626 0.00252432 0.00013333
v -0.01046431 0.02075433 0.00174117
v -0.01034963 0.02626317 0.00179994
v -0.01039052 0.02630412 0.00016363
v 0.01021260 0.01028144 0.00401753
v 0.00678396 0.00787026 0.00392210
v 0.01033878 0.00802857 0.00383842
v 0.01021260 0.01028144 0.00401753
v -0.01020997 0.01025789 0.00401509
v 0.00678396 0.00787026 0.00392210
v -0.00668824 0.00782579 0.00391292
v -0.01020997 0.01025789 0.00401509
v -0.01033806 0.00802857 0.00383842
v -0.00668824 0.00782579 0.00391292
v -0.00503320 0.00596505 0.00387496
v -0.00487459 0.00258821 0.00387496
v 0.00488239 0.00631440 0.00399816
v 0.00488239 0.00631440 0.00399816
v -0.00487459 0.00258821 0.00387496
v 0.00487536 0.00253820 0.00382495
v 0.00678396 0.00787026 0.00392210
v -0.00668824 0.00782579 0.00391292
v 0.00488239 0.00631440 0.00399816
v -0.00668824 0.00782579 0.00391292
v -0.00503320 0.00596505 0.00387496
v 0.00488239 0.00631440 0.00399816
v 0.01035034 0.00256318 0.00179994
v 0.00486189 0.00248241 0.00176150
v 0.01037830 0.00253522 0.00015254
v 0.00487536 0.00253820 0.00382495
v -0.00486112 0.00248241 0.00176150
v 0.00486189 0.00248241 0.00176150
v -0.00487459 0.00258821 0.00387496
v -0.00486112 0.00248241 0.00176150
v 0.00487536 0.00253820 0.00382495
v -0.01034963 0.00256318 0.00179994
v -0.01036626 0.00252432 0.00013333
v -0.00486112 0.00248241 0.00176150
v -0.01036626 0.00252432 0.00013333
v 0.01037830 0.00253522 0.00015254
v 0.00486189 0.00248241 0.00176150
v -0.00486112 0.00248241 0.00176150
v 0.01038920 0.02627986 0.00013333
v 0.00490075 0.02634549 0.00176060
v 0.01035034 0.02626317 0.00180000
v 0.00490075 0.02634549 0.00176060
v -0.00483805 0.02629780 0.00383842
v 0.00483882 0.02625167 0.00388461
v -0.00491309 0.02631509 0.00177884
v -0.00483805 0.02629780 0.00383842
v 0.00490075 0.02634549 0.00176060
v -0.01039052 0.02630412 0.00016363
v -0.01034963 0.02626317 0.00179994
v -0.00491309 0.02631509 0.00177884
v 0.01038920 0.02627986 0.00013333
v -0.01039052 0.02630412 0.00016363
v 0.00490075 0.02634549 0.00176060
v 0.00490075 0.02634549 0.00176060
v -0.01039052 0.02630412 0.00016363
v -0.00491309 0.02631509 0.00177884
v -0.00474036 0.02308672 0.00399154
v 0.00483882 0.02625167 0.00388461
v -0.00483805 0.02629780 0.00383842
v -0.00474036 0.02308672 0.00399154
v 0.00473672 0.02311271 0.00398993
v 0.00483882 0.02625167 0.00388461
v -0.01036626 0.00252432 0.00013333
v 0.01038920 0.02627986 0.00013333
v 0.01037830 0.00253522 0.00015254
v -0.01039052 0.02630412 0.00016363
v 0.01040905 0.01161694 0.01771855
v -0.01037496 0.01157689 0.01777273
v 0.01039779 0.01140660 0.00475180
v -0.01037496 0.01157689 0.01777273
v -0.01040315 0.01144498 0.00479895
v 0.01039779 0.01140660 0.00475180
v -0.01033318 0.01621478 0.01882749
v -0.01037907 0.01279222 0.01885205
v 0.01032787 0.01605618 0.01887345
v 0.01032787 0.01605618 0.01887345
v -0.01037907 0.01279222 0.01885205
v 0.01038271 0.01261192 0.01879990
v 0.01026850 0.02076315 0.00393176
v 0.01040160 0.01821219 0.00399756
v 0.01045852 0.02080255 0.00174504
v 0.01038920 0.02627986 0.00013333
v 0.01045852 0.02080255 0.00174504
v 0.01046502 0.00807202 0.00174117
v 0.01038920 0.02627986 0.00013333
v 0.01046502 0.00807202 0.00174117
v 0.01037830 0.00253522 0.00015254
v 0.01046502 0.00807202 0.00174117
v 0.01035034 0.00256318 0.00179994
v 0.01037830 0.00253522 0.00015254
v 0.01035034 0.02626317 0.00180000
v 0.01045852 0.02080255 0.00174504
v 0.01038920 0.02627986 0.00013333
v 0.01049810 0.01065367 0.00379908
v 0.01033878 0.00802857 0.00383842
v 0.01046502 0.00807202 0.00174117
v 0.01050156 0.01703572 0.01771444
v 0.01039779 0.01140660 0.00475180
v 0.01049864 0.01723229 0.00473028
v 0.01040905 0.01161694 0.01771855
v 0.01050156 0.01703572 0.01771444
v 0.01038271 0.01261192 0.01879990
v 0.01040905 0.01161694 0.01771855
v 0.01032787 0.01605618 0.01887345
v 0.01038271 0.01261192 0.01879990
v 0.01050156 0.01703572 0.01771444
v 0.01049864 0.01723229 0.00473028
v 0.01039779 0.01140660 0.00475180
v 0.01049810 0.01065367 0.00379908
v 0.01040160 0.01821219 0.00399756
v 0.01049864 0.01723229 0.00473028
v 0.01049810 0.01065367 0.00379908
v 0.01045852 0.02080255 0.00174504
v 0.01049810 0.01065367 0.00379908
v 0.01046502 0.00807202 0.00174117
v 0.01045852 0.02080255 0.00174504
v 0.01040160 0.01821219 0.00399756
v 0.01049810 0.01065367 0.00379908
v 0.01035034 0.02626317 0.00180000
v 0.00707287 0.02100592 0.00189996
v 0.01045852 0.02080255 0.00174504
v 0.00520652 0.02254140 0.00189996
v 0.00707287 0.02100592 0.00189996
v 0.01035034 0.02626317 0.00180000
v 0.00490075 0.02634549 0.00176060
v 0.00520652 0.02254140 0.00189996
v 0.01035034 0.02626317 0.00180000
v 0.00503069 0.02334862 0.00370061
v 0.00555646 0.02213406 0.00370020
v 0.00520652 0.02254140 0.00189996
v 0.00520652 0.02254140 0.00189996
v 0.00697416 0.02102053 0.00369895
v 0.00707287 0.02100592 0.00189996
v 0.00555646 0.02213406 0.00370020
v 0.00697416 0.02102053 0.00369895
v 0.00520652 0.02254140 0.00189996
v 0.00483882 0.02625167 0.00388461
v 0.00503069 0.02334862 0.00370061
v 0.00490075 0.02634549 0.00176060
v 0.00490075 0.02634549 0.00176060
v 0.00503069 0.02334862 0.00370061
v 0.00520652 0.02254140 0.00189996
v 0.00697416 0.02102053 0.00369895
v 0.01045852 0.02080255 0.00174504
v 0.00707287 0.02100592 0.00189996
v 0.00697416 0.02102053 0.00369895
v 0.01026850 0.02076315 0.00393176
v 0.01045852 0.02080255 0.00174504
v 0.00515145 0.00613880 0.00189996
v 0.00486189 0.00248241 0.00176150
v 0.01035034 0.00256318 0.00179994
v 0.00699282 0.00781292 0.00189996
v 0.01035034 0.00256318 0.00179994
v 0.01046502 0.00807202 0.00174117
v 0.00699282 0.00781292 0.00189996
v 0.00515145 0.00613880 0.00189996
v 0.01035034 0.00256318 0.00179994
v 0.00699282 0.00781292 0.00189996
v 0.00678396 0.00787026 0.00392210
v 0.00515145 0.00613880 0.00189996
v 0.00678396 0.00787026 0.00392210
v 0.00512129 0.00596207 0.00369394
v 0.00515145 0.00613880 0.00189996
v 0.01033878 0.00802857 0.00383842
v 0.00699282 0.00781292 0.00189996
v 0.01046502 0.00807202 0.00174117
v 0.01033878 0.00802857 0.00383842
v 0.00678396 0.00787026 0.00392210
v 0.00699282 0.00781292 0.00189996
v 0.00512129 0.00596207 0.00369394
v 0.00487536 0.00253820 0.00382495
v 0.00515145 0.00613880 0.00189996
v 0.00515145 0.00613880 0.00189996
v 0.00487536 0.00253820 0.00382495
v 0.00486189 0.00248241 0.00176150
v -0.01034963 0.02626317 0.00179994
v -0.01046431 0.02075433 0.00174117
v -0.00710452 0.02099138 0.00189996
v -0.01034963 0.02626317 0.00179994
v -0.00520581 0.02254140 0.00189996
v -0.00491309 0.02631509 0.00177884
v -0.01034963 0.02626317 0.00179994
v -0.00710452 0.02099138 0.00189996
v -0.00520581 0.02254140 0.00189996
v -0.00710452 0.02099138 0.00189996
v -0.00696331 0.02102977 0.00368881
v -0.00520581 0.02254140 0.00189996
v -0.00696331 0.02102977 0.00368881
v -0.00555569 0.02213406 0.00370020
v -0.00520581 0.02254140 0.00189996
v -0.00555569 0.02213406 0.00370020
v -0.00503147 0.02334022 0.00370300
v -0.00520581 0.02254140 0.00189996
v -0.01025623 0.02079778 0.00392026
v -0.00696331 0.02102977 0.00368881
v -0.00710452 0.02099138 0.00189996
v -0.01025623 0.02079778 0.00392026
v -0.00710452 0.02099138 0.00189996
v -0.01046431 0.02075433 0.00174117
v -0.00503147 0.02334022 0.00370300
v -0.00483805 0.02629780 0.00383842
v -0.00491309 0.02631509 0.00177884
v -0.00503147 0.02334022 0.00370300
v -0.00491309 0.02631509 0.00177884
v -0.00520581 0.02254140 0.00189996
v -0.01034963 0.00256318 0.00179994
v -0.00486112 0.00248241 0.00176150
v -0.00505120 0.00564486 0.00189996
v -0.00715524 0.00784361 0.00189996
v -0.00505120 0.00564486 0.00189996
v -0.00577796 0.00696319 0.00189996
v -0.00715524 0.00784361 0.00189996
v -0.01034963 0.00256318 0.00179994
v -0.00505120 0.00564486 0.00189996
v -0.01046431 0.00807202 0.00174117
v -0.01034963 0.00256318 0.00179994
v -0.00715524 0.00784361 0.00189996
v -0.00505120 0.00564486 0.00189996
v -0.00503320 0.00596505 0.00387496
v -0.00577796 0.00696319 0.00189996
v -0.00503320 0.00596505 0.00387496
v -0.00668824 0.00782579 0.00391292
v -0.00577796 0.00696319 0.00189996
v -0.00577796 0.00696319 0.00189996
v -0.00668824 0.00782579 0.00391292
v -0.00715524 0.00784361 0.00189996
v -0.00487459 0.00258821 0.00387496
v -0.00503320 0.00596505 0.00387496
v -0.00505120 0.00564486 0.00189996
v -0.00487459 0.00258821 0.00387496
v -0.00505120 0.00564486 0.00189996
v -0.00486112 0.00248241 0.00176150
v -0.00715524 0.00784361 0.00189996
v -0.01033806 0.00802857 0.00383842
v -0.01046431 0.00807202 0.00174117
v -0.00668824 0.00782579 0.00391292
v -0.01033806 0.00802857 0.00383842
v -0.00715524 0.00784361 0.00189996
v 0.01039779 0.01140660 0.00475180
v -0.01040315 0.01144498 0.00479895
v 0.01021260 0.01028144 0.00401753
v -0.01040315 0.01144498 0.00479895
v -0.01020997 0.01025789 0.00401509
v 0.01021260 0.01028144 0.00401753
v -0.01040536 0.01838725 0.00396413
v -0.01040232 0.01741403 0.00476950
v 0.01040160 0.01821219 0.00399756
v 0.01040160 0.01821219 0.00399756
v -0.01040232 0.01741403 0.00476950
v 0.01020628 0.01744186 0.00510973
v 0.01019817 0.01733398 0.01777040
v -0.01019358 0.01735031 0.01768088
v -0.01033318 0.01621478 0.01882749
v 0.01032787 0.01605618 0.01887345
v 0.01019817 0.01733398 0.01777040
v -0.01033318 0.01621478 0.01882749
v 0.01038271 0.01261192 0.01879990
v -0.01037907 0.01279222 0.01885205
v -0.01037496 0.01157689 0.01777273
v 0.01040905 0.01161694 0.01771855
v 0.01038271 0.01261192 0.01879990
v -0.01037496 0.01157689 0.01777273
v -0.00696331 0.02102977 0.00368881
v -0.01025623 0.02079778 0.00392026
v -0.00656623 0.02081871 0.00399745
v -0.00696331 0.02102977 0.00368881
v -0.00656623 0.02081871 0.00399745
v -0.00555569 0.02213406 0.00370020
v -0.00656623 0.02081871 0.00399745
v -0.00474036 0.02308672 0.00399154
v -0.00555569 0.02213406 0.00370020
v -0.00555569 0.02213406 0.00370020
v -0.00474036 0.02308672 0.00399154
v -0.00503147 0.02334022 0.00370300
v -0.00483805 0.02629780 0.00383842
v -0.00503147 0.02334022 0.00370300
v -0.00474036 0.02308672 0.00399154
v -0.01030677 0.01970410 0.00399995
v -0.01025623 0.02079778 0.00392026
v -0.01040536 0.01838725 0.00396413
v -0.01019358 0.01735031 0.01768088
v -0.01032835 0.01741087 0.00631153
v -0.01050090 0.01703566 0.01771438
v -0.01032835 0.01741087 0.00631153
v -0.01040232 0.01741403 0.00476950
v -0.01050090 0.01703566 0.01771438
v -0.01033318 0.01621478 0.01882749
v -0.01019358 0.01735031 0.01768088
v -0.01050090 0.01703566 0.01771438
v 0.00483882 0.02625167 0.00388461
v 0.00473672 0.02311271 0.00398993
v 0.00503069 0.02334862 0.00370061
v 0.00503069 0.02334862 0.00370061
v 0.00473672 0.02311271 0.00398993
v 0.00555646 0.02213406 0.00370020
v 0.00473672 0.02311271 0.00398993
v 0.00660258 0.02079534 0.00399715
v 0.00555646 0.02213406 0.00370020
v 0.00555646 0.02213406 0.00370020
v 0.00660258 0.02079534 0.00399715
v 0.00697416 0.02102053 0.00369895
v 0.00660258 0.02079534 0.00399715
v 0.01026850 0.02076315 0.00393176
v 0.00697416 0.02102053 0.00369895
v -0.01040315 0.01144498 0.00479895
v -0.01049768 0.01066809 0.00380844
v -0.01020997 0.01025789 0.00401509
v 0.01040160 0.01821219 0.00399756
v 0.01026850 0.02076315 0.00393176
v 0.01030278 0.01967525 0.00399995
v -0.01033806 0.00802857 0.00383842
v -0.01020997 0.01025789 0.00401509
v -0.01049768 0.01066809 0.00380844
v 0.01020628 0.01744186 0.00510973
v 0.01049864 0.01723229 0.00473028
v 0.01040160 0.01821219 0.00399756
v 0.01033771 0.01741051 0.00634837
v 0.01049864 0.01723229 0.00473028
v 0.01020628 0.01744186 0.00510973
v 0.01050156 0.01703572 0.01771444
v 0.01033771 0.01741051 0.00634837
v 0.01019817 0.01733398 0.01777040
v 0.01050156 0.01703572 0.01771444
v 0.01049864 0.01723229 0.00473028
v 0.01033771 0.01741051 0.00634837
v 0.01019817 0.01733398 0.01777040
v 0.01032787 0.01605618 0.01887345
v 0.01050156 0.01703572 0.01771444
v 0.01021260 0.01028144 0.00401753
v 0.01049810 0.01065367 0.00379908
v 0.01039779 0.01140660 0.00475180
v 0.01033878 0.00802857 0.00383842
v 0.01049810 0.01065367 0.00379908
v 0.01021260 0.01028144 0.00401753
v 0.00488239 0.00631440 0.00399816
v 0.00487536 0.00253820 0.00382495
v 0.00512129 0.00596207 0.00369394
v 0.00678396 0.00787026 0.00392210
v 0.00488239 0.00631440 0.00399816
v 0.00512129 0.00596207 0.00369394
v -0.00656623 0.02081871 0.00399745
v -0.01029300 0.02316558 0.00400901
v -0.00474036 0.02308672 0.00399154
v -0.00656623 0.02081871 0.00399745
v -0.01025623 0.02079778 0.00392026
v -0.01029300 0.02316558 0.00400901
v -0.00880229 0.01565176 0.03592550
v 0.00880373 0.01566779 0.03590935
v -0.01038885 0.02522027 0.01918762
v 0.00880373 0.01566779 0.03590935
v 0.01040047 0.02525341 0.01903659
v -0.01038885 0.02522027 0.01918762
v -0.00880229 0.01565176 0.03592550
v 0.00874662 0.01441162 0.03600430
v 0.00880373 0.01566779 0.03590935
v -0.00874871 0.01441204 0.03600460
v 0.00874662 0.01441162 0.03600430
v -0.00880229 0.01565176 0.03592550
v -0.00533032 0.01430171 0.05381000
v -0.00865680 0.01441329 0.04983228
v -0.00780171 0.01423847 0.05229121
v 0.00480044 0.01433104 0.05383157
v -0.00865680 0.01441329 0.04983228
v -0.00533032 0.01430171 0.05381000
v 0.00853771 0.01441401 0.05053359
v -0.00865680 0.01441329 0.04983228
v 0.00480044 0.01433104 0.05383157
v 0.00874662 0.01441162 0.03600430
v -0.00874871 0.01441204 0.03600460
v 0.00853771 0.01441401 0.05053359
v -0.00865680 0.01441329 0.04983228
v 0.00853771 0.01441401 0.05053359
v 0.00480044 0.01433104 0.05383157
v 0.00654662 0.01429051 0.05324614
v -0.00533032 0.01430171 0.05381000
v 0.00553221 0.00971705 0.05385756
v 0.00480044 0.01433104 0.05383157
v -0.00546771 0.00949097 0.05374723
v 0.00553221 0.00971705 0.05385756
v -0.00533032 0.01430171 0.05381000
v -0.00877935 0.00946134 0.05011796
v -0.00256878 0.00941420 0.04729557
v -0.00708413 0.00950426 0.05282139
v -0.00708413 0.00950426 0.05282139
v -0.00256878 0.00941420 0.04729557
v -0.00546771 0.00949097 0.05374723
v -0.00256878 0.00941420 0.04729557
v -0.00090007 0.00942343 0.04836726
v -0.00546771 0.00949097 0.05374723
v -0.00877935 0.00946134 0.05011796
v -0.00346106 0.00942600 0.04545509
v -0.00256878 0.00941420 0.04729557
v -0.00090007 0.00942343 0.04836726
v 0.00549108 0.00941229 0.05355769
v -0.00877935 0.00946134 0.05011796
v -0.00874519 0.00941396 0.03600448
v -0.00346106 0.00942600 0.04545509
v -0.00306207 0.00942636 0.04349088
v -0.00090007 0.00942343 0.04836726
v 0.00120962 0.00942183 0.04820466
v 0.00549108 0.00941229 0.05355769
v 0.00235420 0.00942010 0.04753577
v -0.00195378 0.00941777 0.04215568
v 0.00549108 0.00941229 0.05355769
v 0.00235420 0.00942010 0.04753577
v 0.00773781 0.00953346 0.05224508
v 0.00235420 0.00942010 0.04753577
v 0.00880241 0.00950849 0.05020254
v 0.00773781 0.00953346 0.05224508
v -0.00874519 0.00941396 0.03600448
v 0.00014448 0.00943315 0.04151052
v -0.00195378 0.00941777 0.04215568
v 0.00336742 0.00942016 0.04579621
v 0.00880241 0.00950849 0.05020254
v 0.00235420 0.00942010 0.04753577
v 0.00316787 0.00942504 0.04377222
v 0.00874895 0.00941378 0.03600472
v 0.00336742 0.00942016 0.04579621
v 0.00194335 0.00942236 0.04219353
v 0.00874895 0.00941378 0.03600472
v 0.00014448 0.00943315 0.04151052
v -0.00874519 0.00941396 0.03600448
v 0.00900978 0.00812459 0.03584498
v 0.00874895 0.00941378 0.03600472
v -0.00901520 0.00804359 0.03574204
v 0.00900978 0.00812459 0.03584498
v -0.00874519 0.00941396 0.03600448
v -0.01019251 0.01739948 0.01925081
v 0.00896245 0.00802070 0.03557926
v -0.00901520 0.00804359 0.03574204
v 0.01018828 0.01739251 0.01925343
v 0.00896245 0.00802070 0.03557926
v -0.01019251 0.01739948 0.01925081
v -0.01019358 0.01735031 0.01768088
v 0.01019817 0.01733398 0.01777040
v -0.01019251 0.01739948 0.01925081
v 0.01019817 0.01733398 0.01777040
v 0.01018828 0.01739251 0.01925343
v -0.01019251 0.01739948 0.01925081
v 0.01033771 0.01741051 0.00634837
v 0.01018828 0.01739251 0.01925343
v 0.01019817 0.01733398 0.01777040
v -0.01019251 0.01739948 0.01925081
v -0.01032835 0.01741087 0.00631153
v -0.01019358 0.01735031 0.01768088
v -0.01038885 0.02522027 0.01918762
v 0.01040047 0.02525341 0.01903659
v -0.01036179 0.02530467 0.00614440
v 0.01040047 0.02525341 0.01903659
v 0.01038175 0.02526181 0.00611854
v -0.01036179 0.02530467 0.00614440
v 0.01026850 0.02076315 0.00393176
v 0.00660258 0.02079534 0.00399715
v 0.01029372 0.02316558 0.00400901
v 0.01029372 0.02316558 0.00400901
v 0.00660258 0.02079534 0.00399715
v 0.00473672 0.02311271 0.00398993
v 0.01033771 0.01741051 0.00634837
v 0.01038175 0.02526181 0.00611854
v 0.01040047 0.02525341 0.01903659
v 0.01033771 0.01741051 0.00634837
v 0.01040047 0.02525341 0.01903659
v 0.01047974 0.01767796 0.01932418
v 0.01030278 0.01967525 0.00399995
v 0.01029372 0.02316558 0.00400901
v 0.01038175 0.02526181 0.00611854
v 0.01030278 0.01967525 0.00399995
v 0.01038175 0.02526181 0.00611854
v 0.01033771 0.01741051 0.00634837
v -0.01036179 0.02530467 0.00614440
v -0.01032835 0.01741087 0.00631153
v -0.01038885 0.02522027 0.01918762
v -0.01038885 0.02522027 0.01918762
v -0.01032835 0.01741087 0.00631153
v -0.01047909 0.01767802 0.01932358
v -0.01029300 0.02316558 0.00400901
v -0.01030677 0.01970410 0.00399995
v -0.01036179 0.02530467 0.00614440
v -0.01036179 0.02530467 0.00614440
v -0.01030677 0.01970410 0.00399995
v -0.01032835 0.01741087 0.00631153
v -0.01047909 0.01767802 0.01932358
v -0.00905543 0.01546800 0.03570801
v -0.01038885 0.02522027 0.01918762
v -0.01047909 0.01767802 0.01932358
v -0.00901520 0.00804359 0.03574204
v -0.00905543 0.01546800 0.03570801
v -0.00905550 0.01410454 0.03572821
v -0.00901520 0.00804359 0.03574204
v -0.00904930 0.00971162 0.03573459
v -0.00905550 0.01410454 0.03572821
v -0.00905543 0.01546800 0.03570801
v -0.00901520 0.00804359 0.03574204
v -0.00904930 0.00971162 0.03573459
v -0.00877935 0.00946134 0.05011796
v -0.00894540 0.01410996 0.04996031
v -0.00904930 0.00971162 0.03573459
v -0.00894540 0.01410996 0.04996031
v -0.00905550 0.01410454 0.03572821
v 0.00897312 0.01411330 0.04968112
v 0.00904995 0.00971586 0.03573578
v 0.00905627 0.01410877 0.03572702
v 0.00880241 0.00950849 0.05020254
v 0.00904995 0.00971586 0.03573578
v 0.00897312 0.01411330 0.04968112
v 0.00896245 0.00802070 0.03557926
v 0.00904995 0.00971586 0.03573578
v 0.00900978 0.00812459 0.03584498
v 0.00905615 0.01546800 0.03570801
v 0.00905627 0.01410877 0.03572702
v 0.00896245 0.00802070 0.03557926
v 0.00896245 0.00802070 0.03557926
v 0.00905627 0.01410877 0.03572702
v 0.00904995 0.00971586 0.03573578
v 0.00905615 0.01546800 0.03570801
v 0.01047974 0.01767796 0.01932418
v 0.01040047 0.02525341 0.01903659
v 0.00896245 0.00802070 0.03557926
v 0.01047974 0.01767796 0.01932418
v 0.00905615 0.01546800 0.03570801
v 0.01030278 0.01967525 0.00399995
v -0.01032835 0.01741087 0.00631153
v -0.01030677 0.01970410 0.00399995
v 0.01033771 0.01741051 0.00634837
v -0.01032835 0.01741087 0.00631153
v 0.01030278 0.01967525 0.00399995
v 0.01029372 0.02316558 0.00400901
v 0.00473672 0.02311271 0.00398993
v 0.01038175 0.02526181 0.00611854
v -0.00474036 0.02308672 0.00399154
v -0.01036179 0.02530467 0.00614440
v 0.00473672 0.02311271 0.00398993
v 0.00473672 0.02311271 0.00398993
v -0.01036179 0.02530467 0.00614440
v 0.01038175 0.02526181 0.00611854
v -0.00474036 0.02308672 0.00399154
v -0.01029300 0.02316558 0.00400901
v -0.01036179 0.02530467 0.00614440
v -0.00546771 0.00949097 0.05374723
v -0.00533032 0.01430171 0.05381000
v -0.00780171 0.01423847 0.05229121
v -0.00708413 0.00950426 0.05282139
v -0.00546771 0.00949097 0.05374723
v -0.00780171 0.01423847 0.05229121
v -0.00839466 0.00971270 0.05146110
v -0.00708413 0.00950426 0.05282139
v -0.00780171 0.01423847 0.05229121
v -0.00839466 0.00971270 0.05146110
v -0.00780171 0.01423847 0.05229121
v -0.00894540 0.01410996 0.04996031
v -0.00877935 0.00946134 0.05011796
v -0.00839466 0.00971270 0.05146110
v -0.00894540 0.01410996 0.04996031
v 0.00880241 0.00950849 0.05020254
v 0.00897312 0.01411330 0.04968112
v 0.00819713 0.01411491 0.05185294
v 0.00773781 0.00953346 0.05224508
v 0.00880241 0.00950849 0.05020254
v 0.00819713 0.01411491 0.05185294
v 0.00773781 0.00953346 0.05224508
v 0.00819713 0.01411491 0.05185294
v 0.00654662 0.01429051 0.05324614
v 0.00553221 0.00971705 0.05385756
v 0.00773781 0.00953346 0.05224508
v 0.00654662 0.01429051 0.05324614
v 0.00553221 0.00971705 0.05385756
v 0.00654662 0.01429051 0.05324614
v 0.00480044 0.01433104 0.05383157
v 0.00874895 0.00941378 0.03600472
v 0.00900978 0.00812459 0.03584498
v 0.00904995 0.00971586 0.03573578
v 0.00896245 0.00802070 0.03557926
v 0.01018828 0.01739251 0.01925343
v 0.01047974 0.01767796 0.01932418
v 0.00880241 0.00950849 0.05020254
v 0.00874895 0.00941378 0.03600472
v 0.00904995 0.00971586 0.03573578
v 0.00773781 0.00953346 0.05224508
v 0.00553221 0.00971705 0.05385756
v 0.00549108 0.00941229 0.05355769
v 0.00553221 0.00971705 0.05385756
v -0.00546771 0.00949097 0.05374723
v 0.00549108 0.00941229 0.05355769
v -0.00839466 0.00971270 0.05146110
v -0.00877935 0.00946134 0.05011796
v -0.00708413 0.00950426 0.05282139
v 0.01018828 0.01739251 0.01925343
v 0.01033771 0.01741051 0.00634837
v 0.01047974 0.01767796 0.01932418
v -0.00874519 0.00941396 0.03600448
v -0.00877935 0.00946134 0.05011796
v -0.00904930 0.00971162 0.03573459
v 0.01030278 0.01967525 0.00399995
v 0.01026850 0.02076315 0.00393176
v 0.01029372 0.02316558 0.00400901
v -0.00901520 0.00804359 0.03574204
v -0.00874519 0.00941396 0.03600448
v -0.00904930 0.00971162 0.03573459
v -0.01019251 0.01739948 0.01925081
v -0.00901520 0.00804359 0.03574204
v -0.01047909 0.01767802 0.01932358
v 0.01040047 0.02525341 0.01903659
v 0.00880373 0.01566779 0.03590935
v 0.00905615 0.01546800 0.03570801
v -0.01047909 0.01767802 0.01932358
v -0.01032835 0.01741087 0.00631153
v -0.01019251 0.01739948 0.01925081
v 0.00905615 0.01546800 0.03570801
v 0.00874662 0.01441162 0.03600430
v 0.00905627 0.01410877 0.03572702
v 0.00880373 0.01566779 0.03590935
v 0.00874662 0.01441162 0.03600430
v 0.00905615 0.01546800 0.03570801
v -0.01030677 0.01970410 0.00399995
v -0.01029300 0.02316558 0.00400901
v -0.01025623 0.02079778 0.00392026
v 0.00874662 0.01441162 0.03600430
v 0.00853771 0.01441401 0.05053359
v 0.00897312 0.01411330 0.04968112
v 0.00874662 0.01441162 0.03600430
v 0.00897312 0.01411330 0.04968112
v 0.00905627 0.01410877 0.03572702
v 0.00819713 0.01411491 0.05185294
v 0.00897312 0.01411330 0.04968112
v 0.00853771 0.01441401 0.05053359
v 0.00819713 0.01411491 0.05185294
v 0.00853771 0.01441401 0.05053359
v 0.00654662 0.01429051 0.05324614
v -0.00894540 0.01410996 0.04996031
v -0.00780171 0.01423847 0.05229121
v -0.00865680 0.01441329 0.04983228
v -0.00865680 0.01441329 0.04983228
v -0.00874871 0.01441204 0.03600460
v -0.00905550 0.01410454 0.03572821
v -0.00865680 0.01441329 0.04983228
v -0.00905550 0.01410454 0.03572821
v -0.00894540 0.01410996 0.04996031
v -0.00880229 0.01565176 0.03592550
v -0.01038885 0.02522027 0.01918762
v -0.00905543 0.01546800 0.03570801
v -0.00874871 0.01441204 0.03600460
v -0.00905543 0.01546800 0.03570801
v -0.00905550 0.01410454 0.03572821
v -0.00874871 0.01441204 0.03600460
v -0.00880229 0.01565176 0.03592550
v -0.00905543 0.01546800 0.03570801
v 0.00336742 0.00942016 0.04579621
v -0.00000200 0.01280522 0.04499375
v 0.00316787 0.00942504 0.04377222
v 0.00194335 0.00942236 0.04219353
v 0.00316787 0.00942504 0.04377222
v -0.00000200 0.01280522 0.04499375
v -0.00306207 0.00942636 0.04349088
v -0.00000200 0.01280522 0.04499375
v -0.00346106 0.00942600 0.04545509
v -0.00306207 0.00942636 0.04349088
v -0.00195378 0.00941777 0.04215568
v -0.00000200 0.01280522 0.04499375
v -0.00195378 0.00941777 0.04215568
v 0.00014448 0.00943315 0.04151052
v -0.00000200 0.01280522 0.04499375
v 0.00014448 0.00943315 0.04151052
v 0.00194335 0.00942236 0.04219353
v -0.00000200 0.01280522 0.04499375
v 0.00900978 0.00812459 0.03584498
v -0.00901520 0.00804359 0.03574204
v 0.00896245 0.00802070 0.03557926
v -0.00982320 0.01750212 0.01110798
v -0.00897002 0.01753544 0.00949794
v -0.00982863 0.02041321 0.01161444
v -0.00982863 0.02041321 0.01161444
v -0.00897002 0.01753544 0.00949794
v -0.00838220 0.02041316 0.00897807
v -0.00524491 0.02041316 0.01571643
v -0.00541890 0.01771914 0.01575213
v -0.00698703 0.02041316 0.01564162
v -0.00541890 0.01771914 0.01575213
v -0.00758100 0.01771301 0.01545852
v -0.00698703 0.02041316 0.01564162
v -0.00897002 0.01753544 0.00949794
v -0.00790250 0.01771277 0.00874233
v -0.00838220 0.02041316 0.00897807
v -0.00698703 0.02041316 0.01564162
v -0.00758100 0.01771301 0.01545852
v -0.00893688 0.02041321 0.01448625
v -0.00838220 0.02041316 0.00897807
v -0.00616574 0.01771926 0.00820678
v -0.00599962 0.02041316 0.00820780
v -0.00790250 0.01771277 0.00874233
v -0.00616574 0.01771926 0.00820678
v -0.00838220 0.02041316 0.00897807
v -0.00758100 0.01771301 0.01545852
v -0.00901008 0.01771265 0.01427406
v -0.00893688 0.02041321 0.01448625
v -0.00901008 0.01771265 0.01427406
v -0.00971246 0.01771759 0.01274335
v -0.00893688 0.02041321 0.01448625
v -0.00893688 0.02041321 0.01448625
v -0.00971246 0.01771759 0.01274335
v -0.00982863 0.02041321 0.01161444
v -0.00971246 0.01771759 0.01274335
v -0.00982320 0.01750212 0.01110798
v -0.00982863 0.02041321 0.01161444
v -0.00758100 0.01771301 0.01545852
v -0.00816381 0.01741361 0.01548886
v -0.00901008 0.01771265 0.01427406
v -0.00816381 0.01741361 0.01548886
v -0.00980520 0.01741385 0.01357632
v -0.00901008 0.01771265 0.01427406
v -0.00216013 0.01771426 0.01179015
v -0.00191706 0.01741540 0.01287972
v -0.00276118 0.01771289 0.01393586
v -0.00901008 0.01771265 0.01427406
v -0.00980520 0.01741385 0.01357632
v -0.00971246 0.01771759 0.01274335
v -0.00276118 0.01771289 0.01393586
v -0.00345307 0.01741337 0.01519817
v -0.00375634 0.01771312 0.01503348
v -0.00191706 0.01741540 0.01287972
v -0.00345307 0.01741337 0.01519817
v -0.00276118 0.01771289 0.01393586
v -0.00980520 0.01741385 0.01357632
v -0.00982320 0.01750212 0.01110798
v -0.00971246 0.01771759 0.01274335
v -0.00375634 0.01771312 0.01503348
v -0.00345307 0.01741337 0.01519817
v -0.00541890 0.01771914 0.01575213
v -0.00345307 0.01741337 0.01519817
v -0.00565910 0.01741391 0.01611226
v -0.00541890 0.01771914 0.01575213
v -0.00541890 0.01771914 0.01575213
v -0.00565910 0.01741391 0.01611226
v -0.00758100 0.01771301 0.01545852
v -0.00565910 0.01741391 0.01611226
v -0.00816381 0.01741361 0.01548886
v -0.00758100 0.01771301 0.01545852
v -0.00744164 0.01741355 0.00815576
v -0.00345307 0.01741337 0.01519817
v -0.00479966 0.01741427 0.00804436
v -0.00253356 0.01741403 0.00976121
v -0.00565910 0.01741391 0.01611226
v -0.00191706 0.01741540 0.01287972
v -0.00980520 0.01741385 0.01357632
v -0.00816381 0.01741361 0.01548886
v -0.00982320 0.01750212 0.01110798
v -0.00816381 0.01741361 0.01548886
v -0.00565910 0.01741391 0.01611226
v -0.00982320 0.01750212 0.01110798
v -0.00982320 0.01750212 0.01110798
v -0.00565910 0.01741391 0.01611226
v -0.00897002 0.01753544 0.00949794
v -0.00897002 0.01753544 0.00949794
v -0.00565910 0.01741391 0.01611226
v -0.00744164 0.01741355 0.00815576
v -0.00424081 0.01770812 0.00864684
v -0.00253356 0.01741403 0.00976121
v -0.00298917 0.01771265 0.00972587
v -0.00479966 0.01741427 0.00804436
v -0.00253356 0.01741403 0.00976121
v -0.00424081 0.01770812 0.00864684
v -0.00298917 0.01771265 0.00972587
v -0.00253356 0.01741403 0.00976121
v -0.00216013 0.01771426 0.01179015
v -0.00253356 0.01741403 0.00976121
v -0.00191706 0.01741540 0.01287972
v -0.00216013 0.01771426 0.01179015
v -0.00897002 0.01753544 0.00949794
v -0.00744164 0.01741355 0.00815576
v -0.00790250 0.01771277 0.00874233
v -0.00790250 0.01771277 0.00874233
v -0.00744164 0.01741355 0.00815576
v -0.00616574 0.01771926 0.00820678
v -0.00744164 0.01741355 0.00815576
v -0.00479966 0.01741427 0.00804436
v -0.00616574 0.01771926 0.00820678
v -0.00616574 0.01771926 0.00820678
v -0.00479966 0.01741427 0.00804436
v -0.00424081 0.01770812 0.00864684
v -0.00216013 0.01771426 0.01179015
v -0.00276118 0.01771289 0.01393586
v -0.00306237 0.02041316 0.01448625
v -0.00276118 0.01771289 0.01393586
v -0.00375634 0.01771312 0.01503348
v -0.00306237 0.02041316 0.01448625
v -0.00599962 0.02041316 0.00820780
v -0.00424081 0.01770812 0.00864684
v -0.00361705 0.02041316 0.00897807
v -0.00616574 0.01771926 0.00820678
v -0.00424081 0.01770812 0.00864684
v -0.00599962 0.02041316 0.00820780
v -0.00306237 0.02041316 0.01448625
v -0.00375634 0.01771312 0.01503348
v -0.00524491 0.02041316 0.01571643
v -0.00375634 0.01771312 0.01503348
v -0.00541890 0.01771914 0.01575213
v -0.00524491 0.02041316 0.01571643
v -0.00424081 0.01770812 0.00864684
v -0.00298917 0.01771265 0.00972587
v -0.00361705 0.02041316 0.00897807
v -0.00361705 0.02041316 0.00897807
v -0.00298917 0.01771265 0.00972587
v -0.00217056 0.02041321 0.01161444
v -0.00298917 0.01771265 0.00972587
v -0.00216013 0.01771426 0.01179015
v -0.00217056 0.02041321 0.01161444
v -0.00217056 0.02041321 0.01161444
v -0.00216013 0.01771426 0.01179015
v -0.00306237 0.02041316 0.01448625
v -0.00306237 0.02041316 0.01448625
v -0.00524491 0.02041316 0.01571643
v -0.00698703 0.02041316 0.01564162
v -0.00893688 0.02041321 0.01448625
v -0.00982863 0.02041321 0.01161444
v -0.00361705 0.02041316 0.00897807
v -0.00838220 0.02041316 0.00897807
v -0.00217056 0.02041321 0.01161444
v -0.00599962 0.02041316 0.00820780
v 0.00217134 0.02041321 0.01161444
v 0.00247198 0.01753765 0.01027405
v 0.00361776 0.02041316 0.00897807
v 0.00675505 0.02041316 0.01571643
v 0.00658101 0.01771914 0.01575213
v 0.00501293 0.02041316 0.01564162
v 0.00658101 0.01771914 0.01575213
v 0.00441891 0.01771301 0.01545852
v 0.00501293 0.02041316 0.01564162
v 0.00247198 0.01753765 0.01027405
v 0.00409746 0.01771277 0.00874233
v 0.00361776 0.02041316 0.00897807
v 0.00501293 0.02041316 0.01564162
v 0.00441891 0.01771301 0.01545852
v 0.00306308 0.02041316 0.01448625
v 0.00361776 0.02041316 0.00897807
v 0.00583422 0.01771926 0.00820678
v 0.00600034 0.02041316 0.00820780
v 0.00409746 0.01771277 0.00874233
v 0.00583422 0.01771926 0.00820678
v 0.00361776 0.02041316 0.00897807
v 0.00441891 0.01771301 0.01545852
v 0.00298989 0.01771265 0.01427406
v 0.00306308 0.02041316 0.01448625
v 0.00298989 0.01771265 0.01427406
v 0.00215810 0.01760274 0.01248186
v 0.00306308 0.02041316 0.01448625
v 0.00306308 0.02041316 0.01448625
v 0.00215810 0.01760274 0.01248186
v 0.00217134 0.02041321 0.01161444
v 0.00215810 0.01760274 0.01248186
v 0.00247198 0.01753765 0.01027405
v 0.00217134 0.02041321 0.01161444
v 0.00441891 0.01771301 0.01545852
v 0.00277877 0.01741474 0.01464384
v 0.00298989 0.01771265 0.01427406
v 0.00996715 0.01741391 0.01086372
v 0.00984442 0.01741361 0.01344197
v 0.00983983 0.01771426 0.01179015
v 0.00983983 0.01771426 0.01179015
v 0.00984442 0.01741361 0.01344197
v 0.00923872 0.01771289 0.01393586
v 0.00298989 0.01771265 0.01427406
v 0.00277877 0.01741474 0.01464384
v 0.00215810 0.01760274 0.01248186
v 0.00984442 0.01741361 0.01344197
v 0.00836307 0.01759368 0.01505017
v 0.00923872 0.01771289 0.01393586
v 0.00836307 0.01759368 0.01505017
v 0.00593394 0.01741504 0.01617604
v 0.00658101 0.01771914 0.01575213
v 0.00658101 0.01771914 0.01575213
v 0.00593394 0.01741504 0.01617604
v 0.00441891 0.01771301 0.01545852
v 0.00593394 0.01741504 0.01617604
v 0.00277877 0.01741474 0.01464384
v 0.00441891 0.01771301 0.01545852
v 0.00849610 0.01741367 0.00874001
v 0.00984442 0.01741361 0.01344197
v 0.00996715 0.01741391 0.01086372
v 0.00593394 0.01741504 0.01617604
v 0.00593394 0.01741504 0.01617604
v 0.00836307 0.01759368 0.01505017
v 0.00984442 0.01741361 0.01344197
v 0.00247198 0.01753765 0.01027405
v 0.00277877 0.01741474 0.01464384
v 0.00416732 0.01741486 0.00827724
v 0.00416732 0.01741486 0.00827724
v 0.00277877 0.01741474 0.01464384
v 0.00659871 0.01741325 0.00796616
v 0.00215810 0.01760274 0.01248186
v 0.00277877 0.01741474 0.01464384
v 0.00247198 0.01753765 0.01027405
v 0.00659871 0.01741325 0.00796616
v 0.00849610 0.01741367 0.00874001
v 0.00775915 0.01770812 0.00864684
v 0.00775915 0.01770812 0.00864684
v 0.00849610 0.01741367 0.00874001
v 0.00901079 0.01771265 0.00972587
v 0.00849610 0.01741367 0.00874001
v 0.00996715 0.01741391 0.01086372
v 0.00901079 0.01771265 0.00972587
v 0.00901079 0.01771265 0.00972587
v 0.00996715 0.01741391 0.01086372
v 0.00983983 0.01771426 0.01179015
v 0.00247198 0.01753765 0.01027405
v 0.00416732 0.01741486 0.00827724
v 0.00409746 0.01771277 0.00874233
v 0.00409746 0.01771277 0.00874233
v 0.00416732 0.01741486 0.00827724
v 0.00583422 0.01771926 0.00820678
v 0.00416732 0.01741486 0.00827724
v 0.00659871 0.01741325 0.00796616
v 0.00583422 0.01771926 0.00820678
v 0.00583422 0.01771926 0.00820678
v 0.00659871 0.01741325 0.00796616
v 0.00775915 0.01770812 0.00864684
v 0.00983983 0.01771426 0.01179015
v 0.00923872 0.01771289 0.01393586
v 0.00893760 0.02041316 0.01448625
v 0.00923872 0.01771289 0.01393586
v 0.00836307 0.01759368 0.01505017
v 0.00893760 0.02041316 0.01448625
v 0.00600034 0.02041316 0.00820780
v 0.00775915 0.01770812 0.00864684
v 0.00838292 0.02041316 0.00897807
v 0.00583422 0.01771926 0.00820678
v 0.00775915 0.01770812 0.00864684
v 0.00600034 0.02041316 0.00820780
v 0.00893760 0.02041316 0.01448625
v 0.00836307 0.01759368 0.01505017
v 0.00675505 0.02041316 0.01571643
v 0.00836307 0.01759368 0.01505017
v 0.00658101 0.01771914 0.01575213
v 0.00675505 0.02041316 0.01571643
v 0.00775915 0.01770812 0.00864684
v 0.00901079 0.01771265 0.00972587
v 0.00838292 0.02041316 0.00897807
v 0.00838292 0.02041316 0.00897807
v 0.00901079 0.01771265 0.00972587
v 0.00982934 0.02041321 0.01161444
v 0.00901079 0.01771265 0.00972587
v 0.00983983 0.01771426 0.01179015
v 0.00982934 0.02041321 0.01161444
v 0.00982934 0.02041321 0.01161444
v 0.00983983 0.01771426 0.01179015
v 0.00893760 0.02041316 0.01448625
v 0.00361776 0.02041316 0.00897807
v 0.00306308 0.02041316 0.01448625
v 0.00217134 0.02041321 0.01161444
v 0.00838292 0.02041316 0.00897807
v 0.00675505 0.02041316 0.01571643
v 0.00501293 0.02041316 0.01564162
v 0.00893760 0.02041316 0.01448625
v 0.00982934 0.02041321 0.01161444
v 0.00600034 0.02041316 0.00820780
f 1 2 3
f 4 5 6
f 7 8 9
f 10 11 12
f 13 14 15
f 16 17 18
f 19 20 21
f 22 23 24
f 25 26 27
f 28 29 30
f 31 32 33
f 34 35 36
f 37 38 39
f 40 41 42
f 43 44 45
f 46 47 48
f 49 50 51
f 52 53 54
f 55 56 57
f 58 59 60
f 61 62 63
f 64 65 66
f 67 68 69
f 70 71 72
f 73 74 75
f 75 74 76
f 77 78 79
f 80 81 82
f 83 84 85
f 86 87 88
f 89 90 91
f 92 93 94
f 95 96 97
f 98 99 100
f 101 102 103
f 104 105 106
f 104 106 107
f 108 109 110
f 111 112 113
f 114 115 116
f 117 118 119
f 120 121 122
f 123 124 125
f 126 127 128
f 129 130 131
f 132 133 134
f 132 135 133
f 136 137 138
f 139 140 141
f 142 143 144
f 145 146 147
f 148 149 150
f 151 152 153
f 154 155 156
f 157 158 159
f 160 161 162
f 163 164 165
f 166 167 168
f 166 169 167
f 170 171 172
f 173 174 175
f 176 177 178
f 179 180 181
f 182 183 184
f 185 186 187
f 188 189 190
f 191 192 193
f 194 195 196
f 197 198 199
f 200 201 202
f 203 204 205
f 206 207 208
f 209 210 211
f 212 213 214
f 215 216 217
f 218 219 220
f 221 222 223
f 224 225 226
f 227 228 229
f 230 231 232
f 233 234 235
f 236 237 238
f 239 240 241
f 242 243 244
f 245 246 247
f 248 249 250
f 251 252 253
f 254 255 256
f 257 258 259
f 260 261 262
f 263 264 265
f 266 267 268
f 269 270 271
f 272 273 274
f 275 276 277
f 278 279 280
f 281 282 283
f 284 285 286
f 287 288 289
f 290 291 292
f 293 294 295
f 296 297 298
f 299 300 301
f 302 303 304
f 305 306 307
f 308 309 310
f 311 312 313
f 314 315 316
f 317 318 319
f 320 321 322
f 323 324 325
f 326 327 328
f 329 330 331
f 332 333 334
f 335 336 337
f 338 339 340
f 341 342 343
f 344 345 346
f 347 348 349
f 350 351 352
f 353 354 355
f 356 357 358
f 359 360 361
f 362 363 364
f 365 366 367
f 368 369 370
f 371 372 373
f 374 375 376
f 377 378 379
f 380 381 382
f 383 384 385
f 386 387 388
f 389 390 391
f 392 393 394
f 395 396 397
f 398 399 400
f 401 402 403
f 404 405 406
f 407 408 409
f 410 411 412
f 413 414 415
f 416 417 418
f 419 420 421
f 422 423 424
f 425 426 427
f 428 429 430
f 431 432 433
f 434 435 436
f 437 438 439
f 439 438 440
f 441 442 443
f 444 445 446
f 447 448 449
f 450 451 452
f 453 454 455
f 456 457 458
f 459 460 461
f 455 462 463
f 464 465 466
f 465 467 466
f 468 469 470
f 469 471 470
f 465 472 467
f 473 474 475
f 476 477 478
f 479 480 481
f 482 483 484
f 485 486 487
f 488 486 485
f 482 489 483
f 490 486 488
f 465 486 490
f 491 492 493
f 494 495 496
f 497 498 499
f 500 501 502
f 503 504 505
f 506 507 508
f 509 510 511
f 512 513 514
f 515 516 517
f 518 519 520
f 521 522 523
f 524 525 526
f 527 528 529
f 530 531 532
f 533 534 535
f 536 537 538
f 539 540 541
f 542 543 544
f 545 546 547
f 548 549 550
f 551 552 553
f 554 555 556
f 557 558 559
f 560 561 562
f 563 564 565
f 566 567 568
f 569 570 571
f 572 573 574
f 575 576 577
f 578 579 580
f 581 582 583
f 584 585 586
f 587 588 589
f 590 591 592
f 593 594 595
f 596 597 598
f 599 600 601
f 602 603 604
f 605 606 607
f 608 609 610
f 611 612 613
f 614 615 616
f 617 618 619
f 620 621 622
f 623 624 625
f 626 627 628
f 629 630 631
f 632 633 634
f 635 636 637
f 638 639 640
f 641 642 643
f 644 645 646
f 647 648 649
f 650 651 652
f 653 654 655
f 656 657 658
f 659 660 661
f 662 663 664
f 665 666 667
f 668 669 670
f 671 672 673
f 674 675 676
f 677 678 679
f 680 681 682
f 683 684 685
f 686 687 688
f 689 690 691
f 692 693 694
f 695 696 697
f 698 699 700
f 701 702 703
f 704 705 706
f 707 708 709
f 710 711 712
f 713 714 715
f 716 717 718
f 719 720 721
f 722 723 724
f 725 726 727
f 728 729 730
f 731 732 733
f 734 735 736
f 737 738 739
f 740 741 742
f 743 744 745
f 746 747 748
f 749 750 751
f 752 753 754
f 755 756 757
f 758 759 760
f 761 762 763
f 764 765 766
f 767 768 769
f 770 771 772
f 773 774 775
f 776 777 778
f 779 780 781
f 782 783 784
f 785 786 787
f 788 789 790
f 791 792 793
f 794 795 796
f 797 798 799
f 800 801 802
f 803 804 805
f 806 807 808
f 808 807 809
f 810 807 806
f 809 807 811
f 812 813 814
f 815 816 817
f 818 819 820
f 821 822 823
f 824 825 826
f 827 828 829
f 830 831 832
f 833 834 835
f 836 837 838
f 839 840 841
f 842 843 844
f 845 846 847
f 848 849 850
f 851 852 853
f 854 855 856
f 857 858 859
f 860 861 862
f 863 864 865
f 866 867 868
f 869 870 871
f 872 873 874
f 875 876 877
f 878 879 880
f 878 880 881
f 878 881 882
f 883 878 882
f 883 882 884
f 883 885 878
f 883 884 886
f 887 888 889
f 890 891 892
f 893 894 895
f 896 897 898
f 899 900 901
f 902 903 904
f 905 906 907
f 908 909 910
f 911 912 913
f 914 915 916
f 917 918 919
f 920 921 922
f 923 924 925
f 926 927 928
f 929 930 931
f 932 933 934
f 935 936 937
f 938 939 940
f 941 942 943
f 944 945 946
f 947 945 944
f 948 949 950
f 951 952 953
f 954 955 956
f 956 947 944
f 955 947 956
f 957 958 959
f 960 961 962
f 963 964 965
f 966 967 968
f 969 970 971
f 972 973 974
f 975 976 977
f 978 979 980
f 981 982 983
f 984 985 986
f 987 988 989
f 990 991 992
f 993 994 995
f 996 997 998
f 999 1000 1001
f 1002 1003 1004
f 1005 1006 1007
f 1008 1009 1010
f 1011 1012 1013
f 1014 1015 1016
f 1017 1018 1019
f 1017 1020 1018
f 1017 1021 1020
f 1017 1019 1022
f 1022 1019 1015
f 1022 1015 1014

