# https://github.com/mikedh/trimesh
v 0.02017825 0.01584839 0.00007172
v 0.01916742 0.01478332 0.00000044
v 0.01887512 0.01490169 0.00020005
v 0.01781660 0.02069735 0.00020392
v 0.01838719 0.02086764 0.00000084
v 0.01912039 0.02033436 0.00020053
v 0.01916742 0.01478332 0.00000044
v 0.01739293 0.01458746 0.00006049
v 0.01887512 0.01490169 0.00020005
v 0.01838719 0.02086764 0.00000084
v 0.02006298 0.01964491 0.00007733
v 0.01912039 0.02033436 0.00020053
v 0.02006298 0.01964491 0.00007733
v 0.02095651 0.01803833 0.00000180
v 0.02065283 0.01821488 0.00020047
v 0.02065283 0.01821488 0.00020047
v 0.02095651 0.01803833 0.00000180
v 0.02059245 0.01687484 0.00020037
v 0.02095651 0.01803833 0.00000180
v 0.02017825 0.01584839 0.00007172
v 0.02059245 0.01687484 0.00020037
v -0.00611347 0.01455730 -0.00151455
v -0.00161237 0.01574534 -0.00150490
v -0.00262880 0.01455265 -0.00250006
v -0.00611347 0.01455730 -0.00151455
v -0.00262880 0.01455265 -0.00250006
v -0.00718272 0.01294827 -0.00250018
v -0.00718272 0.01294827 -0.00250018
v -0.00960642 0.01252943 -0.00149041
v -0.00611347 0.01455730 -0.00151455
v -0.00960642 0.01252943 -0.00149041
v -0.00718272 0.01294827 -0.00250018
v -0.01020991 0.01067572 -0.00249994
v -0.01020991 0.01067572 -0.00249994
v -0.01240199 0.00976998 -0.00148922
v -0.00960642 0.01252943 -0.00149041
v -0.01240199 0.00976998 -0.00148922
v -0.01020991 0.01067572 -0.00249994
v -0.01284790 0.00739652 -0.00250024
v -0.01421493 0.00683761 -0.00150865
v -0.01240199 0.00976998 -0.00148922
v -0.01284790 0.00739652 -0.00250024
v -0.01538765 0.00353640 -0.00149959
v -0.01284790 0.00739652 -0.00250024
v -0.01451277 0.00291496 -0.00250006
v -0.01538765 0.00353640 -0.00149959
v -0.01421493 0.00683761 -0.00150865
v -0.01284790 0.00739652 -0.00250024
v -0.01451277 0.00291496 -0.00250006
v -0.01577347 -0.00007675 -0.00150049
v -0.01538765 0.00353640 -0.00149959
v -0.01475828 -0.00081276 -0.00250006
v -0.01577347 -0.00007675 -0.00150049
v -0.01451277 0.00291496 -0.00250006
v -0.01475828 -0.00081276 -0.00250006
v -0.01535922 -0.00365490 -0.00150007
v -0.01577347 -0.00007675 -0.00150049
v -0.01535922 -0.00365490 -0.00150007
v -0.01475828 -0.00081276 -0.00250006
v -0.01380175 -0.00539195 -0.00250018
v -0.01380175 -0.00539195 -0.00250018
v -0.01359897 -0.00809693 -0.00149328
v -0.01535922 -0.00365490 -0.00150007
v -0.01136183 -0.00947946 -0.00250006
v -0.01359897 -0.00809693 -0.00149328
v -0.01380175 -0.00539195 -0.00250018
v -0.01136183 -0.00947946 -0.00250006
v -0.01067048 -0.01163631 -0.00149053
v -0.01359897 -0.00809693 -0.00149328
v -0.01067048 -0.01163631 -0.00149053
v -0.01136183 -0.00947946 -0.00250006
v -0.00758493 -0.01274478 -0.00250036
v -0.00758493 -0.01274478 -0.00250036
v -0.00746810 -0.01391035 -0.00148922
v -0.01067048 -0.01163631 -0.00149053
v -0.00353140 -0.01540726 -0.00150520
v -0.00758493 -0.01274478 -0.00250036
v -0.00237554 -0.01461595 -0.00250024
v -0.00353140 -0.01540726 -0.00150520
v -0.00746810 -0.01391035 -0.00148922
v -0.00758493 -0.01274478 -0.00250036
v -0.00237554 -0.01461595 -0.00250024
v 0.00005491 -0.01576226 -0.00149703
v -0.00353140 -0.01540726 -0.00150520
v -0.00161237 0.01574534 -0.00150490
v 0.00175256 0.01472157 -0.00250053
v -0.00262880 0.01455265 -0.00250006
v 0.00005491 -0.01576226 -0.00149703
v -0.00237554 -0.01461595 -0.00250024
v 0.00211549 -0.01466852 -0.00250047
v -0.00469685 0.03124696 0.00099980
v 0.00215554 0.03145825 0.00099998
v 0.00000037 0.03063488 -0.00000032
v -0.00469685 0.03124696 0.00099980
v 0.00000037 0.03063488 -0.00000032
v -0.00921386 0.02917921 -0.00000016
v -0.01236826 0.02904361 0.00099995
v -0.00469685 0.03124696 0.00099980
v -0.00921386 0.02917921 -0.00000016
v -0.01236826 0.02904361 0.00099995
v -0.00921386 0.02917921 -0.00000016
v -0.01573807 0.02617561 0.00000000
v -0.01635605 0.02698409 0.00100070
v -0.01236826 0.02904361 0.00099995
v -0.01573807 0.02617561 0.00000000
v -0.01635605 0.02698409 0.00100070
v -0.01573807 0.02617561 0.00000000
v -0.01983654 0.02319985 0.00000000
v -0.02109485 0.02342647 0.00099970
v -0.01635605 0.02698409 0.00100070
v -0.01983654 0.02319985 0.00000000
v -0.02109485 0.02342647 0.00099970
v -0.01983654 0.02319985 0.00000000
v -0.02441293 0.01845329 -0.00000018
v -0.02421003 0.02019095 0.00099969
v -0.02683353 0.01654559 0.00099968
v -0.02421003 0.02019095 0.00099969
v -0.02441293 0.01845329 -0.00000018
v -0.02683353 0.01654559 0.00099968
v -0.02441293 0.01845329 -0.00000018
v -0.02864557 0.01076871 -0.00000015
v -0.02891248 0.01256448 0.00099967
v -0.02683353 0.01654559 0.00099968
v -0.02864557 0.01076871 -0.00000015
v -0.03040432 0.00832820 0.00099966
v -0.02891248 0.01256448 0.00099967
v -0.02864557 0.01076871 -0.00000015
v -0.03040432 0.00832820 0.00099966
v -0.02864557 0.01076871 -0.00000015
v -0.03052353 0.00219893 -0.00000012
v -0.03127944 0.00392288 0.00099966
v -0.03040432 0.00832820 0.00099966
v -0.03052353 0.00219893 -0.00000012
v -0.03151953 -0.00056175 0.00099966
v -0.03127944 0.00392288 0.00099966
v -0.03052353 0.00219893 -0.00000012
v -0.03151953 -0.00056175 0.00099966
v -0.03052353 0.00219893 -0.00000012
v -0.02989315 -0.00655144 -0.00000014
v -0.03111976 -0.00503528 0.00099966
v -0.03151953 -0.00056175 0.00099966
v -0.02989315 -0.00655144 -0.00000014
v -0.03008842 -0.00940651 0.00099966
v -0.03111976 -0.00503528 0.00099966
v -0.02989315 -0.00655144 -0.00000014
v -0.03008842 -0.00940651 0.00099966
v -0.02989315 -0.00655144 -0.00000014
v -0.02680617 -0.01476359 -0.00000016
v -0.02844607 -0.01358664 0.00099967
v -0.03008842 -0.00940651 0.00099966
v -0.02680617 -0.01476359 -0.00000016
v -0.02622658 -0.01749140 0.00099968
v -0.02844607 -0.01358664 0.00099967
v -0.02680617 -0.01476359 -0.00000016
v -0.02622658 -0.01749140 0.00099968
v -0.02680617 -0.01476359 -0.00000016
v -0.02151536 -0.02176249 -0.00000018
v -0.02347499 -0.02104103 0.00099969
v -0.02622658 -0.01749140 0.00099968
v -0.02151536 -0.02176249 -0.00000018
v -0.01979357 -0.02455765 0.00100136
v -0.02347499 -0.02104103 0.00099969
v -0.02151536 -0.02176249 -0.00000018
v -0.01979357 -0.02455765 0.00100136
v -0.02151536 -0.02176249 -0.00000018
v -0.01573807 -0.02617561 0.00000000
v -0.01603806 -0.02718704 0.00100464
v -0.01979357 -0.02455765 0.00100136
v -0.01573807 -0.02617561 0.00000000
v -0.01603806 -0.02718704 0.00100464
v -0.01573807 -0.02617561 0.00000000
v -0.00921386 -0.02917921 -0.00000016
v -0.00895393 -0.03030282 0.00099985
v -0.01603806 -0.02718704 0.00100464
v -0.00921386 -0.02917921 -0.00000016
v -0.00895393 -0.03030282 0.00099985
v -0.00921386 -0.02917921 -0.00000016
v -0.00215042 -0.03046697 0.00000000
v -0.00215483 -0.03145825 0.00099998
v -0.00895393 -0.03030282 0.00099985
v -0.00215042 -0.03046697 0.00000000
v 0.02011495 0.01588898 0.00649995
v 0.02017825 0.01584839 0.00007172
v 0.01879709 0.01483595 0.00649995
v 0.01738888 0.02070087 0.00649995
v 0.01781660 0.02069735 0.00020392
v 0.01887929 0.02045166 0.00649995
v 0.02017825 0.01584839 0.00007172
v 0.01887512 0.01490169 0.00020005
v 0.01879709 0.01483595 0.00649995
v 0.01781660 0.02069735 0.00020392
v 0.01912039 0.02033436 0.00020053
v 0.01887929 0.02045166 0.00649995
v 0.01887929 0.02045166 0.00649995
v 0.01912039 0.02033436 0.00020053
v 0.02008414 0.01953077 0.00649995
v 0.01887512 0.01490169 0.00020005
v 0.01739293 0.01458746 0.00006049
v 0.01879709 0.01483595 0.00649995
v 0.01879709 0.01483595 0.00649995
v 0.01739293 0.01458746 0.00006049
v 0.01661098 0.01479429 0.00649995
v 0.01912039 0.02033436 0.00020053
v 0.02006298 0.01964491 0.00007733
v 0.02008414 0.01953077 0.00649995
v 0.02006298 0.01964491 0.00007733
v 0.02065283 0.01821488 0.00020047
v 0.02008414 0.01953077 0.00649995
v 0.02008414 0.01953077 0.00649995
v 0.02065283 0.01821488 0.00020047
v 0.02075195 0.01762264 0.00649995
v 0.02065283 0.01821488 0.00020047
v 0.02059245 0.01687484 0.00020037
v 0.02075195 0.01762264 0.00649995
v 0.02075195 0.01762264 0.00649995
v 0.02059245 0.01687484 0.00020037
v 0.02011495 0.01588898 0.00649995
v 0.02059245 0.01687484 0.00020037
v 0.02017825 0.01584839 0.00007172
v 0.02011495 0.01588898 0.00649995
v -0.00565863 0.01472359 0.00000000
v -0.00161237 0.01574534 -0.00150490
v -0.00611347 0.01455730 -0.00151455
v -0.00565863 0.01472359 0.00000000
v -0.00145137 0.01576071 0.00000000
v -0.00161237 0.01574534 -0.00150490
v -0.00879574 0.01311135 0.00000000
v -0.00565863 0.01472359 0.00000000
v -0.00611347 0.01455730 -0.00151455
v -0.00879574 0.01311135 0.00000000
v -0.00611347 0.01455730 -0.00151455
v -0.00960642 0.01252943 -0.00149041
v -0.01229602 0.00996560 0.00000000
v -0.00879574 0.01311135 0.00000000
v -0.00960642 0.01252943 -0.00149041
v -0.01229602 0.00996560 0.00000000
v -0.00960642 0.01252943 -0.00149041
v -0.01240199 0.00976998 -0.00148922
v -0.01229602 0.00996560 0.00000000
v -0.01240199 0.00976998 -0.00148922
v -0.01421493 0.00683761 -0.00150865
v -0.01510941 0.00479317 0.00000000
v -0.01229602 0.00996560 0.00000000
v -0.01421493 0.00683761 -0.00150865
v -0.01510941 0.00479317 0.00000000
v -0.01421493 0.00683761 -0.00150865
v -0.01538765 0.00353640 -0.00149959
v -0.01578581 -0.00027539 0.00000000
v -0.01538765 0.00353640 -0.00149959
v -0.01577347 -0.00007675 -0.00150049
v -0.01578581 -0.00027539 0.00000000
v -0.01510941 0.00479317 0.00000000
v -0.01538765 0.00353640 -0.00149959
v -0.01578581 -0.00027539 0.00000000
v -0.01577347 -0.00007675 -0.00150049
v -0.01535922 -0.00365490 -0.00150007
v -0.01504236 -0.00492245 0.00000000
v -0.01578581 -0.00027539 0.00000000
v -0.01535922 -0.00365490 -0.00150007
v -0.01504236 -0.00492245 0.00000000
v -0.01535922 -0.00365490 -0.00150007
v -0.01359897 -0.00809693 -0.00149328
v -0.01288729 -0.00912028 0.00000000
v -0.01504236 -0.00492245 0.00000000
v -0.01359897 -0.00809693 -0.00149328
v -0.01288729 -0.00912028 0.00000000
v -0.01359897 -0.00809693 -0.00149328
v -0.01067048 -0.01163631 -0.00149053
v -0.01052016 -0.01175290 0.00000000
v -0.01288729 -0.00912028 0.00000000
v -0.01067048 -0.01163631 -0.00149053
v -0.00697905 -0.01420569 0.00000000
v -0.01052016 -0.01175290 0.00000000
v -0.01067048 -0.01163631 -0.00149053
v -0.00697905 -0.01420569 0.00000000
v -0.01067048 -0.01163631 -0.00149053
v -0.00746810 -0.01391035 -0.00148922
v -0.00697905 -0.01420569 0.00000000
v -0.00746810 -0.01391035 -0.00148922
v -0.00353140 -0.01540726 -0.00150520
v -0.00284833 -0.01551449 0.00000000
v -0.00697905 -0.01420569 0.00000000
v -0.00353140 -0.01540726 -0.00150520
v 0.00145209 -0.01576071 0.00000000
v -0.00353140 -0.01540726 -0.00150520
v 0.00005491 -0.01576226 -0.00149703
v 0.00145209 -0.01576071 0.00000000
v -0.00284833 -0.01551449 0.00000000
v -0.00353140 -0.01540726 -0.00150520
v -0.02591305 -0.00545681 0.00749993
v -0.02367246 -0.00537759 0.00749993
v -0.02405256 -0.00550502 0.00399995
v -0.01944303 0.00007327 0.00399995
v -0.02002227 0.00243026 0.00749993
v -0.02008599 0.00255662 0.00399995
v -0.01944303 -0.00007327 0.00749993
v -0.02002227 0.00243026 0.00749993
v -0.01944303 0.00007327 0.00399995
v -0.02367246 -0.00537759 0.00749993
v -0.02157527 -0.00435352 0.00749993
v -0.02405256 -0.00550502 0.00399995
v -0.02405256 -0.00550502 0.00399995
v -0.02157527 -0.00435352 0.00749993
v -0.02146518 -0.00426471 0.00399995
v -0.02008599 0.00255662 0.00399995
v -0.02146518 0.00426471 0.00749993
v -0.02157527 0.00435352 0.00399995
v -0.02002227 0.00243026 0.00749993
v -0.02146518 0.00426471 0.00749993
v -0.02008599 0.00255662 0.00399995
v -0.02157527 -0.00435352 0.00749993
v -0.02008599 -0.00255662 0.00749993
v -0.02146518 -0.00426471 0.00399995
v -0.02146518 -0.00426471 0.00399995
v -0.02008599 -0.00255662 0.00749993
v -0.02002227 -0.00243026 0.00399995
v -0.02146518 0.00426471 0.00749993
v -0.02310794 0.00517792 0.00749993
v -0.02157527 0.00435352 0.00399995
v -0.02157527 0.00435352 0.00399995
v -0.02310794 0.00517792 0.00749993
v -0.02367246 0.00537759 0.00399995
v -0.02310794 0.00517792 0.00749993
v -0.02491819 0.00553763 0.00749993
v -0.02367246 0.00537759 0.00399995
v -0.02008599 -0.00255662 0.00749993
v -0.01944303 -0.00007327 0.00749993
v -0.02002227 -0.00243026 0.00399995
v -0.02002227 -0.00243026 0.00399995
v -0.01944303 -0.00007327 0.00749993
v -0.01944303 0.00007327 0.00399995
v -0.02367246 0.00537759 0.00399995
v -0.02491819 0.00553763 0.00749993
v -0.02669602 0.00533831 0.00399995
v 0.03054976 -0.00047916 0.00749463
v 0.02979689 0.00288963 0.00749993
v 0.03058212 0.00047111 0.00399995
v 0.03058212 0.00047111 0.00399995
v 0.02979689 0.00288963 0.00749993
v 0.02906870 0.00385028 0.00399995
v 0.02491921 -0.00553763 0.00749993
v 0.02695870 -0.00516462 0.00749993
v 0.02669674 -0.00533831 0.00399995
v 0.02695870 -0.00516462 0.00749993
v 0.02925068 -0.00364602 0.00749993
v 0.02669674 -0.00533831 0.00399995
v 0.02669674 -0.00533831 0.00399995
v 0.02925068 -0.00364602 0.00749993
v 0.02965658 -0.00311392 0.00399995
v 0.02979689 0.00288963 0.00749993
v 0.02778822 0.00476843 0.00749993
v 0.02906870 0.00385028 0.00399995
v 0.02906870 0.00385028 0.00399995
v 0.02778822 0.00476843 0.00749993
v 0.02616012 0.00544047 0.00399995
v 0.02778822 0.00476843 0.00749993
v 0.02591401 0.00545681 0.00749993
v 0.02616012 0.00544047 0.00399995
v 0.02925068 -0.00364602 0.00749993
v 0.03054976 -0.00047916 0.00749463
v 0.02965658 -0.00311392 0.00399995
v 0.02965658 -0.00311392 0.00399995
v 0.03054976 -0.00047916 0.00749463
v 0.03058212 0.00047111 0.00399995
v 0.02821916 0.00083440 0.00000000
v 0.02818858 0.00094451 0.00399995
v 0.02690047 0.00270361 0.00000000
v 0.02818858 0.00094451 0.00399995
v 0.02680850 0.00276613 0.00399995
v 0.02690047 0.00270361 0.00000000
v 0.02451616 -0.00331342 0.00000000
v 0.02583068 -0.00319868 0.00399995
v 0.02690047 -0.00270361 0.00000000
v 0.02690047 0.00270361 0.00000000
v 0.02680850 0.00276613 0.00399995
v 0.02451616 0.00331342 0.00000000
v 0.02680850 0.00276613 0.00399995
v 0.02440094 0.00329459 0.00399995
v 0.02451616 0.00331342 0.00000000
v 0.02583068 -0.00319868 0.00399995
v 0.02747058 -0.00216872 0.00399995
v 0.02690047 -0.00270361 0.00000000
v 0.02690047 -0.00270361 0.00000000
v 0.02747058 -0.00216872 0.00399995
v 0.02804946 -0.00121498 0.00000000
v 0.02747058 -0.00216872 0.00399995
v 0.02814650 -0.00087355 0.00399995
v 0.02804946 -0.00121498 0.00000000
v 0.02804946 -0.00121498 0.00000000
v 0.02814650 -0.00087355 0.00399995
v 0.02821916 0.00083440 0.00000000
v 0.02814650 -0.00087355 0.00399995
v 0.02818858 0.00094451 0.00399995
v 0.02821916 0.00083440 0.00000000
v -0.02192622 0.00116670 0.00000000
v -0.02250260 0.00219584 0.00399995
v -0.02309924 0.00270361 0.00000000
v -0.02600705 -0.00316882 0.00000000
v -0.02429378 -0.00320566 0.00399995
v -0.02407521 -0.00314003 0.00000000
v -0.02250260 0.00219584 0.00399995
v -0.02469694 0.00331134 0.00399995
v -0.02309924 0.00270361 0.00000000
v -0.02309924 0.00270361 0.00000000
v -0.02469694 0.00331134 0.00399995
v -0.02477186 0.00326520 0.00000000
v -0.02407521 -0.00314003 0.00000000
v -0.02291899 -0.00252700 0.00399995
v -0.02247065 -0.00214803 0.00000000
v -0.02429378 -0.00320566 0.00399995
v -0.02291899 -0.00252700 0.00399995
v -0.02407521 -0.00314003 0.00000000
v -0.02291899 -0.00252700 0.00399995
v -0.02194052 -0.00121874 0.00399995
v -0.02247065 -0.00214803 0.00000000
v -0.02247065 -0.00214803 0.00000000
v -0.02194052 -0.00121874 0.00399995
v -0.02175140 -0.00040392 0.00000000
v -0.02194052 -0.00121874 0.00399995
v -0.02175140 0.00040392 0.00399995
v -0.02175140 -0.00040392 0.00000000
v -0.02175140 -0.00040392 0.00000000
v -0.02175140 0.00040392 0.00399995
v -0.02192622 0.00116670 0.00000000
v -0.02175140 0.00040392 0.00399995
v -0.02250260 0.00219584 0.00399995
v -0.02192622 0.00116670 0.00000000
v 0.01606065 0.02719628 0.00100422
v 0.01751917 0.02618968 0.00661135
v 0.02072632 0.02375382 0.00649995
v 0.02109581 0.02342647 0.00099970
v 0.02109581 0.02342647 0.00099970
v 0.02072632 0.02375382 0.00649995
v 0.02388381 0.02057600 0.00649995
v 0.02421075 0.02019095 0.00099969
v 0.02109581 0.02342647 0.00099970
v 0.02388381 0.02057600 0.00649995
v 0.02421075 0.02019095 0.00099969
v 0.02388381 0.02057600 0.00649995
v 0.02655941 0.01698309 0.00650006
v 0.02683413 0.01654565 0.00099968
v 0.02421075 0.02019095 0.00099969
v 0.02655941 0.01698309 0.00650006
v 0.02683413 0.01654565 0.00099968
v 0.02655941 0.01698309 0.00650006
v 0.02869862 0.01304692 0.00650018
v 0.02891314 0.01256448 0.00099967
v 0.02683413 0.01654565 0.00099968
v 0.02869862 0.01304692 0.00650018
v 0.02891314 0.01256448 0.00099967
v 0.02869862 0.01304692 0.00650018
v 0.03025799 0.00884718 0.00650018
v 0.03040528 0.00832826 0.00099966
v 0.02891314 0.01256448 0.00099967
v 0.03025799 0.00884718 0.00650018
v 0.03040528 0.00832826 0.00099966
v 0.03025799 0.00884718 0.00650018
v 0.03120684 0.00446868 0.00650024
v 0.03128010 0.00392288 0.00099966
v 0.03040528 0.00832826 0.00099966
v 0.03120684 0.00446868 0.00650024
v 0.03128010 0.00392288 0.00099966
v 0.03120684 0.00446868 0.00650024
v 0.03152513 0.00000000 0.00650024
v 0.03152000 -0.00056185 0.00099966
v 0.03128010 0.00392288 0.00099966
v 0.03152513 0.00000000 0.00650024
v 0.03152000 -0.00056185 0.00099966
v 0.03152513 0.00000000 0.00650024
v 0.03120684 -0.00446868 0.00650024
v 0.03112030 -0.00503528 0.00099966
v 0.03152000 -0.00056185 0.00099966
v 0.03120684 -0.00446868 0.00650024
v 0.03112030 -0.00503528 0.00099966
v 0.03120684 -0.00446868 0.00650024
v 0.03025799 -0.00884718 0.00650018
v 0.03008908 -0.00940657 0.00099966
v 0.03112030 -0.00503528 0.00099966
v 0.03025799 -0.00884718 0.00650018
v 0.03008908 -0.00940657 0.00099966
v 0.03025799 -0.00884718 0.00650018
v 0.02869862 -0.01304692 0.00650018
v 0.02844703 -0.01358664 0.00099967
v 0.03008908 -0.00940657 0.00099966
v 0.02869862 -0.01304692 0.00650018
v 0.02844703 -0.01358664 0.00099967
v 0.02869862 -0.01304692 0.00650018
v 0.02655947 -0.01698309 0.00650006
v 0.02622753 -0.01749140 0.00099968
v 0.02844703 -0.01358664 0.00099967
v 0.02655947 -0.01698309 0.00650006
v 0.02622753 -0.01749140 0.00099968
v 0.02655947 -0.01698309 0.00650006
v 0.02388381 -0.02057600 0.00649995
v 0.02347546 -0.02104103 0.00099969
v 0.02622753 -0.01749140 0.00099968
v 0.02388381 -0.02057600 0.00649995
v 0.02347546 -0.02104103 0.00099969
v 0.02388381 -0.02057600 0.00649995
v 0.02072632 -0.02375382 0.00649995
v 0.01979643 -0.02455574 0.00100130
v 0.02347546 -0.02104103 0.00099969
v 0.02072632 -0.02375382 0.00649995
v 0.01979643 -0.02455574 0.00100130
v 0.02072632 -0.02375382 0.00649995
v 0.01752132 -0.02618575 0.00662065
v 0.01631653 -0.02698135 0.00100541
v 0.01979643 -0.02455574 0.00100130
v 0.01752132 -0.02618575 0.00662065
v 0.01530337 0.01538842 0.00000170
v 0.01052099 0.01175290 0.00000000
v 0.01439923 0.01803833 0.00000150
v 0.02265894 -0.00228721 0.00000000
v 0.01573973 -0.00145209 0.00000000
v 0.02176666 -0.00071179 0.00000000
v 0.02821916 0.00083440 0.00000000
v 0.02690047 0.00270361 0.00000000
v 0.03058362 -0.00110024 0.00000000
v 0.02963924 0.00762188 -0.00000014
v -0.02309924 0.00270361 0.00000000
v -0.02864557 0.01076871 -0.00000015
v -0.01510941 0.00479317 0.00000000
v -0.00565863 0.01472359 0.00000000
v -0.01573807 0.02617561 0.00000000
v -0.00921386 0.02917921 -0.00000016
v -0.00879574 0.01311135 0.00000000
v -0.02175140 -0.00040392 0.00000000
v -0.02192622 0.00116670 0.00000000
v -0.01578581 -0.00027539 0.00000000
v -0.01229602 0.00996560 0.00000000
v -0.02441293 0.01845329 -0.00000018
v 0.00697982 0.01420563 0.00000000
v -0.01983654 0.02319985 0.00000000
v -0.00215042 -0.03046697 0.00000000
v 0.00145209 -0.01576071 0.00000000
v 0.00500506 -0.03018718 -0.00000016
v 0.01585781 0.02042824 0.00000155
v 0.02072000 0.02252209 -0.00000012
v 0.01838719 0.02086764 0.00000084
v 0.02216142 0.00177610 0.00000000
v -0.02151536 -0.02176249 -0.00000018
v -0.02680617 -0.01476359 -0.00000016
v -0.01288729 -0.00912028 0.00000000
v 0.01552808 0.00285798 0.00000000
v 0.02451616 0.00331342 0.00000000
v -0.00284833 -0.01551449 0.00000000
v 0.01905030 -0.02395027 -0.00000018
v 0.01035392 -0.01190012 0.00000000
v 0.02506119 -0.01756376 -0.00000017
v 0.01525849 0.02644068 0.00000000
v -0.00921386 -0.02917921 -0.00000016
v 0.00284910 0.01551449 0.00000000
v 0.00000037 0.03063488 -0.00000032
v 0.00921458 0.02917921 -0.00000015
v -0.02600705 -0.00316882 0.00000000
v -0.02989315 -0.00655144 -0.00000014
v -0.02772492 -0.00184768 0.00000000
v 0.01306551 -0.00890774 0.00000000
v -0.01504236 -0.00492245 0.00000000
v -0.00697905 -0.01420569 0.00000000
v 0.02690047 -0.00270361 0.00000000
v 0.02804946 -0.00121498 0.00000000
v 0.01449173 0.00622964 0.00000000
v -0.00145137 0.01576071 0.00000000
v 0.02901494 -0.00973189 -0.00000015
v -0.01573807 -0.02617561 0.00000000
v 0.00675511 -0.01431363 0.00000000
v -0.03052353 0.00219893 -0.00000012
v -0.02825868 -0.00030373 0.00000000
v 0.01239109 -0.02793645 0.00000000
v 0.01916742 0.01478332 0.00000044
v 0.02017825 0.01584839 0.00007172
v 0.02625852 0.01571780 -0.00000014
v 0.01916742 0.01478332 0.00000044
v 0.02451616 -0.00331342 0.00000000
v 0.02625852 0.01571780 -0.00000014
v -0.02791029 0.00160772 0.00000000
v 0.02017825 0.01584839 0.00007172
v 0.02095651 0.01803833 0.00000180
v 0.02625852 0.01571780 -0.00000014
v 0.01449173 0.00622964 0.00000000
v 0.01739293 0.01458746 0.00006049
v 0.01916742 0.01478332 0.00000044
v 0.01486063 -0.00529009 0.00000000
v 0.01281559 0.00921351 0.00000000
v 0.01739293 0.01458746 0.00006049
v 0.01449173 0.00622964 0.00000000
v -0.01052016 -0.01175290 0.00000000
v 0.02095651 0.01803833 0.00000180
v -0.02247065 -0.00214803 0.00000000
v -0.02633082 0.00300568 0.00000000
v -0.02407521 -0.00314003 0.00000000
v 0.01281559 0.00921351 0.00000000
v 0.01530337 0.01538842 0.00000170
v 0.01739293 0.01458746 0.00006049
v 0.02095651 0.01803833 0.00000180
v 0.02006298 0.01964491 0.00007733
v 0.02072000 0.02252209 -0.00000012
v 0.01281559 0.00921351 0.00000000
v -0.02477186 0.00326520 0.00000000
v 0.01838719 0.02086764 0.00000084
v 0.02072000 0.02252209 -0.00000012
v 0.02006298 0.01964491 0.00007733
v -0.02772492 -0.00184768 0.00000000
v -0.02622509 -0.00307584 0.00399995
v -0.02600705 -0.00316882 0.00000000
v -0.02771627 -0.00184196 0.00399995
v -0.02622509 -0.00307584 0.00399995
v -0.02772492 -0.00184768 0.00000000
v -0.02477186 0.00326520 0.00000000
v -0.02469694 0.00331134 0.00399995
v -0.02633082 0.00300568 0.00000000
v -0.02469694 0.00331134 0.00399995
v -0.02705711 0.00261217 0.00399995
v -0.02633082 0.00300568 0.00000000
v -0.02633082 0.00300568 0.00000000
v -0.02705711 0.00261217 0.00399995
v -0.02791029 0.00160772 0.00000000
v -0.02622509 -0.00307584 0.00399995
v -0.02429378 -0.00320566 0.00399995
v -0.02600705 -0.00316882 0.00000000
v -0.02705711 0.00261217 0.00399995
v -0.02833425 0.00030409 0.00399995
v -0.02791029 0.00160772 0.00000000
v -0.02791029 0.00160772 0.00000000
v -0.02833425 0.00030409 0.00399995
v -0.02825868 -0.00030373 0.00000000
v -0.02825868 -0.00030373 0.00000000
v -0.02833425 0.00030409 0.00399995
v -0.02772492 -0.00184768 0.00000000
v -0.02833425 0.00030409 0.00399995
v -0.02771627 -0.00184196 0.00399995
v -0.02772492 -0.00184768 0.00000000
v 0.02265894 -0.00228721 0.00000000
v 0.02389997 -0.00309765 0.00399995
v 0.02451616 -0.00331342 0.00000000
v 0.02258968 -0.00221407 0.00399995
v 0.02389997 -0.00309765 0.00399995
v 0.02265894 -0.00228721 0.00000000
v 0.02451616 0.00331342 0.00000000
v 0.02440094 0.00329459 0.00399995
v 0.02216142 0.00177610 0.00000000
v 0.02440094 0.00329459 0.00399995
v 0.02210134 0.00167626 0.00399995
v 0.02216142 0.00177610 0.00000000
v 0.02389997 -0.00309765 0.00399995
v 0.02583068 -0.00319868 0.00399995
v 0.02451616 -0.00331342 0.00000000
v 0.02216142 0.00177610 0.00000000
v 0.02210134 0.00167626 0.00399995
v 0.02176666 -0.00071179 0.00000000
v 0.02210134 0.00167626 0.00399995
v 0.02177870 -0.00070913 0.00399995
v 0.02176666 -0.00071179 0.00000000
v 0.02177870 -0.00070913 0.00399995
v 0.02258968 -0.00221407 0.00399995
v 0.02176666 -0.00071179 0.00000000
v 0.02176666 -0.00071179 0.00000000
v 0.02258968 -0.00221407 0.00399995
v 0.02265894 -0.00228721 0.00000000
v 0.00741398 0.03200536 0.00099999
v 0.01252871 0.05451083 0.00105762
v 0.01267254 0.03255248 0.00099999
v 0.00727022 0.05396372 0.00105762
v -0.00726908 -0.05396461 0.00105798
v -0.00215483 -0.03145825 0.00099998
v 0.00509071 -0.05396580 0.00105852
v -0.01252752 -0.05451166 0.00105798
v -0.00741321 -0.03200536 0.00099999
v -0.01484274 0.02843225 0.00753909
v -0.01261574 0.03296494 0.00749993
v -0.01377910 0.02992922 0.00749993
v 0.01377964 -0.02992916 0.00749993
v 0.01484370 -0.02843225 0.00753909
v 0.01261663 -0.03296500 0.00749993
v 0.01377964 0.02992916 0.00749993
v 0.01259922 0.03302896 0.00749993
v 0.01485008 0.02842468 0.00754982
v -0.01259875 -0.03302896 0.00749993
v -0.01483881 -0.02843737 0.00753206
v -0.01377910 -0.02992922 0.00749993
v 0.02491921 -0.00553763 0.00749993
v 0.02654528 -0.01522821 0.00750017
v 0.02977305 -0.00708020 0.00750011
v 0.02287900 -0.00510055 0.00749993
v 0.02093786 -0.00379193 0.00749993
v 0.02188551 -0.02132511 0.00750005
v 0.02093786 -0.00379193 0.00749993
v 0.01733422 -0.02524077 0.00756025
v 0.02188551 -0.02132511 0.00750005
v 0.01968365 -0.00155413 0.00749993
v 0.01733422 -0.02524077 0.00756025
v 0.01762181 0.02496439 0.00752032
v 0.01733422 -0.02524077 0.00756025
v 0.01950210 0.00053477 0.00749993
v 0.01762181 0.02496439 0.00752032
v 0.01950210 0.00053477 0.00749993
v 0.02008670 0.00255662 0.00749993
v 0.01950210 0.00053477 0.00749993
v 0.01968365 -0.00155413 0.00749993
v 0.03020447 0.00492501 0.00750011
v 0.02778822 0.00476843 0.00749993
v 0.02979689 0.00288963 0.00749993
v 0.02591401 0.00545681 0.00749993
v 0.03054976 -0.00047916 0.00749463
v 0.02756989 0.01328349 0.00750011
v 0.02390164 0.00541377 0.00749993
v 0.02175498 0.00451094 0.00749993
v 0.02267390 0.02055311 0.00750017
v 0.02925068 -0.00364602 0.00749993
v 0.02695870 -0.00516462 0.00749993
v -0.01979357 -0.02455765 0.00100136
v -0.01603806 -0.02718704 0.00100464
v -0.01761198 -0.02614468 0.00656986
v -0.01979357 -0.02455765 0.00100136
v -0.01761198 -0.02614468 0.00656986
v -0.02155703 -0.02300179 0.00649995
v -0.02347499 -0.02104103 0.00099969
v -0.01979357 -0.02455765 0.00100136
v -0.02155703 -0.02300179 0.00649995
v -0.02347499 -0.02104103 0.00099969
v -0.02155703 -0.02300179 0.00649995
v -0.02459967 -0.01971393 0.00650006
v -0.02622658 -0.01749140 0.00099968
v -0.02347499 -0.02104103 0.00099969
v -0.02459967 -0.01971393 0.00650006
v -0.02622658 -0.01749140 0.00099968
v -0.02459967 -0.01971393 0.00650006
v -0.02714574 -0.01602810 0.00650006
v -0.02844607 -0.01358664 0.00099967
v -0.02622658 -0.01749140 0.00099968
v -0.02714574 -0.01602810 0.00650006
v -0.02844607 -0.01358664 0.00099967
v -0.02714574 -0.01602810 0.00650006
v -0.02914351 -0.01201850 0.00650018
v -0.03008842 -0.00940651 0.00099966
v -0.02844607 -0.01358664 0.00099967
v -0.02914351 -0.01201850 0.00650018
v -0.03008842 -0.00940651 0.00099966
v -0.02914351 -0.01201850 0.00650018
v -0.03055292 -0.00776589 0.00650018
v -0.03111976 -0.00503528 0.00099966
v -0.03008842 -0.00940651 0.00099966
v -0.03055292 -0.00776589 0.00650018
v -0.03111976 -0.00503528 0.00099966
v -0.03055292 -0.00776589 0.00650018
v -0.03134500 -0.00335640 0.00650024
v -0.03151953 -0.00056175 0.00099966
v -0.03111976 -0.00503528 0.00099966
v -0.03134500 -0.00335640 0.00650024
v -0.03151953 -0.00056175 0.00099966
v -0.03134500 -0.00335640 0.00650024
v -0.03150451 0.00112057 0.00650024
v -0.03127944 0.00392288 0.00099966
v -0.03151953 -0.00056175 0.00099966
v -0.03150451 0.00112057 0.00650024
v -0.03127944 0.00392288 0.00099966
v -0.03150451 0.00112057 0.00650024
v -0.03102749 0.00557530 0.00650024
v -0.03040432 0.00832820 0.00099966
v -0.03127944 0.00392288 0.00099966
v -0.03102749 0.00557530 0.00650024
v -0.03040432 0.00832820 0.00099966
v -0.03102749 0.00557530 0.00650024
v -0.02992391 0.00991714 0.00650018
v -0.02891248 0.01256448 0.00099967
v -0.03040432 0.00832820 0.00099966
v -0.02992391 0.00991714 0.00650018
v -0.02891248 0.01256448 0.00099967
v -0.02992391 0.00991714 0.00650018
v -0.02821600 0.01405853 0.00650006
v -0.02683353 0.01654559 0.00099968
v -0.02891248 0.01256448 0.00099967
v -0.02821600 0.01405853 0.00650006
v -0.02683353 0.01654559 0.00099968
v -0.02821600 0.01405853 0.00650006
v -0.02593821 0.01791656 0.00650006
v -0.02421003 0.02019095 0.00099969
v -0.02683353 0.01654559 0.00099968
v -0.02593821 0.01791656 0.00650006
v -0.02421003 0.02019095 0.00099969
v -0.02593821 0.01791656 0.00650006
v -0.02199542 0.02265912 0.00650066
v -0.02109485 0.02342647 0.00099970
v -0.02421003 0.02019095 0.00099969
v -0.02199542 0.02265912 0.00650066
v -0.01635605 0.02698409 0.00100070
v -0.02109485 0.02342647 0.00099970
v -0.02199542 0.02265912 0.00650066
v -0.01635605 0.02698409 0.00100070
v -0.02199542 0.02265912 0.00650066
v -0.01689887 0.02659595 0.00676030
v -0.02188462 0.02132511 0.00750005
v -0.02146518 0.00426471 0.00749993
v -0.01734161 0.02524489 0.00755733
v -0.02146518 0.00426471 0.00749993
v -0.02002227 0.00243026 0.00749993
v -0.01734161 0.02524489 0.00755733
v -0.02654451 0.01522821 0.00750017
v -0.02188462 0.02132511 0.00750005
v -0.02310794 0.00517792 0.00749993
v -0.02002227 0.00243026 0.00749993
v -0.01944303 -0.00007327 0.00749993
v -0.02491819 0.00553763 0.00749993
v -0.02977228 0.00708020 0.00750011
v -0.02695775 0.00516462 0.00749993
v -0.02924996 0.00364602 0.00749993
v -0.03054893 0.00047914 0.00749463
v -0.03020370 -0.00492501 0.00750011
v -0.02979642 -0.00288963 0.00749993
v -0.02778726 -0.00476843 0.00749993
v -0.02591305 -0.00545681 0.00749993
v -0.02756923 -0.01328349 0.00750011
v -0.02367246 -0.00537759 0.00749993
v -0.02157527 -0.00435352 0.00749993
v -0.02267313 -0.02055311 0.00750017
v -0.01944303 -0.00007327 0.00749993
v -0.01761502 -0.02496832 0.00752151
v -0.01734161 0.02524489 0.00755733
v -0.01761502 -0.02496832 0.00752151
v -0.02008599 -0.00255662 0.00749993
v -0.01944303 -0.00007327 0.00749993
v -0.01236826 0.02904361 0.00099995
v -0.01402586 0.02941173 0.00099999
v -0.01257807 0.03322494 0.00099999
v 0.00895464 0.03030282 0.00099985
v 0.00215554 0.03145825 0.00099998
v -0.00508952 0.05396658 0.00105888
v -0.01635605 0.02698409 0.00100070
v -0.01245635 0.05484992 0.00105888
v -0.00521123 0.03234159 0.00099999
v 0.01421260 0.02923357 0.00100000
v -0.00469685 0.03124696 0.00099980
v 0.01606065 0.02719628 0.00100422
v -0.01421213 -0.02923357 0.00100000
v -0.01603806 -0.02718704 0.00100464
v -0.00895393 -0.03030282 0.00099985
v 0.00469756 -0.03124696 0.00099980
v 0.00521183 -0.03234159 0.00099999
v 0.01402682 -0.02941173 0.00099999
v 0.01236873 -0.02904361 0.00099995
v 0.01631653 -0.02698135 0.00100541
v -0.01267158 -0.03255242 0.00099999
v 0.01257854 -0.03322494 0.00099999
v 0.02066063 0.00341833 0.00399995
v 0.02210134 0.00167626 0.00399995
v 0.02204746 0.00466871 0.00399995
v 0.02747058 -0.00216872 0.00399995
v 0.02669674 -0.00533831 0.00399995
v 0.02965658 -0.00311392 0.00399995
v 0.02583068 -0.00319868 0.00399995
v 0.02814650 -0.00087355 0.00399995
v 0.03058212 0.00047111 0.00399995
v 0.02818858 0.00094451 0.00399995
v 0.02390164 -0.00541377 0.00399995
v 0.02389997 -0.00309765 0.00399995
v 0.02906870 0.00385028 0.00399995
v 0.02175498 -0.00451094 0.00399995
v 0.02258968 -0.00221407 0.00399995
v 0.02680850 0.00276613 0.00399995
v 0.02008670 -0.00255662 0.00399995
v 0.02177870 -0.00070913 0.00399995
v 0.02616012 0.00544047 0.00399995
v 0.02440094 0.00329459 0.00399995
v 0.01950210 -0.00053477 0.00399995
v 0.02377152 0.00538576 0.00399995
v 0.01968365 0.00155413 0.00399995
v 0.01950210 0.00053477 0.00749993
v 0.01968365 -0.00155413 0.00749993
v 0.01950210 -0.00053477 0.00399995
v 0.02591401 0.00545681 0.00749993
v 0.02390164 0.00541377 0.00749993
v 0.02616012 0.00544047 0.00399995
v 0.02377152 0.00538576 0.00399995
v 0.01950210 -0.00053477 0.00399995
v 0.01968365 -0.00155413 0.00749993
v 0.02008670 -0.00255662 0.00399995
v 0.01968365 -0.00155413 0.00749993
v 0.02093786 -0.00379193 0.00749993
v 0.02008670 -0.00255662 0.00399995
v 0.02377152 0.00538576 0.00399995
v 0.02175498 0.00451094 0.00749993
v 0.02204746 0.00466871 0.00399995
v 0.02390164 0.00541377 0.00749993
v 0.02175498 0.00451094 0.00749993
v 0.02377152 0.00538576 0.00399995
v 0.02008670 -0.00255662 0.00399995
v 0.02093786 -0.00379193 0.00749993
v 0.02175498 -0.00451094 0.00399995
v 0.02204746 0.00466871 0.00399995
v 0.02175498 0.00451094 0.00749993
v 0.02066063 0.00341833 0.00399995
v 0.02093786 -0.00379193 0.00749993
v 0.02287900 -0.00510055 0.00749993
v 0.02175498 -0.00451094 0.00399995
v 0.02175498 0.00451094 0.00749993
v 0.02008670 0.00255662 0.00749993
v 0.02066063 0.00341833 0.00399995
v 0.02175498 -0.00451094 0.00399995
v 0.02287900 -0.00510055 0.00749993
v 0.02390164 -0.00541377 0.00399995
v 0.02066063 0.00341833 0.00399995
v 0.02008670 0.00255662 0.00749993
v 0.01968365 0.00155413 0.00399995
v 0.02287900 -0.00510055 0.00749993
v 0.02491921 -0.00553763 0.00749993
v 0.02390164 -0.00541377 0.00399995
v 0.02008670 0.00255662 0.00749993
v 0.01950210 0.00053477 0.00749993
v 0.01968365 0.00155413 0.00399995
v 0.02390164 -0.00541377 0.00399995
v 0.02491921 -0.00553763 0.00749993
v 0.02669674 -0.00533831 0.00399995
v 0.01968365 0.00155413 0.00399995
v 0.01950210 0.00053477 0.00749993
v 0.01950210 -0.00053477 0.00399995
v -0.02965611 0.00311392 0.00399995
v -0.02705711 0.00261217 0.00399995
v -0.02669602 0.00533831 0.00399995
v -0.02291899 -0.00252700 0.00399995
v -0.02146518 -0.00426471 0.00399995
v -0.02002227 -0.00243026 0.00399995
v -0.02194052 -0.00121874 0.00399995
v -0.02429378 -0.00320566 0.00399995
v -0.02405256 -0.00550502 0.00399995
v -0.01944303 0.00007327 0.00399995
v -0.02175140 0.00040392 0.00399995
v -0.02622509 -0.00307584 0.00399995
v -0.02666658 -0.00526637 0.00399995
v -0.02008599 0.00255662 0.00399995
v -0.02250260 0.00219584 0.00399995
v -0.02906823 -0.00385028 0.00399995
v -0.02157527 0.00435352 0.00399995
v -0.02771627 -0.00184196 0.00399995
v -0.02469694 0.00331134 0.00399995
v -0.02367246 0.00537759 0.00399995
v -0.03058159 -0.00047110 0.00399995
v -0.02833425 0.00030409 0.00399995
v -0.03054893 0.00047914 0.00749463
v -0.02979642 -0.00288963 0.00749993
v -0.03058159 -0.00047110 0.00399995
v -0.03058159 -0.00047110 0.00399995
v -0.02979642 -0.00288963 0.00749993
v -0.02906823 -0.00385028 0.00399995
v -0.02491819 0.00553763 0.00749993
v -0.02695775 0.00516462 0.00749993
v -0.02669602 0.00533831 0.00399995
v -0.02695775 0.00516462 0.00749993
v -0.02924996 0.00364602 0.00749993
v -0.02669602 0.00533831 0.00399995
v -0.02669602 0.00533831 0.00399995
v -0.02924996 0.00364602 0.00749993
v -0.02965611 0.00311392 0.00399995
v -0.02979642 -0.00288963 0.00749993
v -0.02778726 -0.00476843 0.00749993
v -0.02906823 -0.00385028 0.00399995
v -0.02906823 -0.00385028 0.00399995
v -0.02778726 -0.00476843 0.00749993
v -0.02666658 -0.00526637 0.00399995
v -0.02778726 -0.00476843 0.00749993
v -0.02591305 -0.00545681 0.00749993
v -0.02666658 -0.00526637 0.00399995
v -0.02666658 -0.00526637 0.00399995
v -0.02591305 -0.00545681 0.00749993
v -0.02405256 -0.00550502 0.00399995
v -0.02924996 0.00364602 0.00749993
v -0.03054893 0.00047914 0.00749463
v -0.02965611 0.00311392 0.00399995
v -0.02965611 0.00311392 0.00399995
v -0.03054893 0.00047914 0.00749463
v -0.03058159 -0.00047110 0.00399995
v 0.00145209 -0.01576071 0.00000000
v 0.00005491 -0.01576226 -0.00149703
v 0.00364721 -0.01537954 -0.00150472
v 0.00675511 -0.01431363 0.00000000
v 0.00145209 -0.01576071 0.00000000
v 0.00364721 -0.01537954 -0.00150472
v 0.00675511 -0.01431363 0.00000000
v 0.00364721 -0.01537954 -0.00150472
v 0.00723445 -0.01401740 -0.00149220
v 0.00675511 -0.01431363 0.00000000
v 0.00723445 -0.01401740 -0.00149220
v 0.00988287 -0.01229453 -0.00149268
v 0.01035392 -0.01190012 0.00000000
v 0.00675511 -0.01431363 0.00000000
v 0.00988287 -0.01229453 -0.00149268
v 0.01035392 -0.01190012 0.00000000
v 0.00988287 -0.01229453 -0.00149268
v 0.01234978 -0.00982886 -0.00149566
v 0.01306551 -0.00890774 0.00000000
v 0.01035392 -0.01190012 0.00000000
v 0.01234978 -0.00982886 -0.00149566
v 0.01306551 -0.00890774 0.00000000
v 0.01234978 -0.00982886 -0.00149566
v 0.01414155 -0.00698805 -0.00150233
v 0.01486063 -0.00529009 0.00000000
v 0.01306551 -0.00890774 0.00000000
v 0.01414155 -0.00698805 -0.00150233
v 0.01486063 -0.00529009 0.00000000
v 0.01414155 -0.00698805 -0.00150233
v 0.01535969 -0.00365478 -0.00150007
v 0.01573973 -0.00145209 0.00000000
v 0.01486063 -0.00529009 0.00000000
v 0.01535969 -0.00365478 -0.00150007
v 0.01573973 -0.00145209 0.00000000
v 0.01535969 -0.00365478 -0.00150007
v 0.01578557 0.00083569 -0.00151932
v 0.01552808 0.00285798 0.00000000
v 0.01573973 -0.00145209 0.00000000
v 0.01578557 0.00083569 -0.00151932
v 0.01552808 0.00285798 0.00000000
v 0.01578557 0.00083569 -0.00151932
v 0.01499605 0.00494027 -0.00148922
v 0.01449173 0.00622964 0.00000000
v 0.01552808 0.00285798 0.00000000
v 0.01499605 0.00494027 -0.00148922
v 0.01449173 0.00622964 0.00000000
v 0.01499605 0.00494027 -0.00148922
v 0.01307290 0.00889665 -0.00148571
v 0.01281559 0.00921351 0.00000000
v 0.01449173 0.00622964 0.00000000
v 0.01307290 0.00889665 -0.00148571
v 0.01052099 0.01175290 0.00000000
v 0.01281559 0.00921351 0.00000000
v 0.01307290 0.00889665 -0.00148571
v 0.01039224 0.01186668 -0.00149280
v 0.00697982 0.01420563 0.00000000
v 0.01052099 0.01175290 0.00000000
v 0.01039224 0.01186668 -0.00149280
v 0.00697982 0.01420563 0.00000000
v 0.01039224 0.01186668 -0.00149280
v 0.00747156 0.01390892 -0.00149053
v 0.00697982 0.01420563 0.00000000
v 0.00747156 0.01390892 -0.00149053
v 0.00354034 0.01540529 -0.00150609
v 0.00284910 0.01551449 0.00000000
v 0.00697982 0.01420563 0.00000000
v 0.00354034 0.01540529 -0.00150609
v -0.00145137 0.01576071 0.00000000
v 0.00354034 0.01540529 -0.00150609
v -0.00161237 0.01574534 -0.00150490
v -0.00145137 0.01576071 0.00000000
v 0.00284910 0.01551449 0.00000000
v 0.00354034 0.01540529 -0.00150609
v 0.01451373 0.00291496 -0.00250006
v 0.01021087 0.01067572 -0.00249994
v 0.01284837 0.00739652 -0.00250036
v 0.00718349 0.01294827 -0.00250018
v 0.01475924 -0.00081274 -0.00249994
v 0.00175256 0.01472157 -0.00250053
v -0.00262880 0.01455265 -0.00250006
v 0.01380223 -0.00539195 -0.00250024
v -0.01284790 0.00739652 -0.00250024
v -0.00718272 0.01294827 -0.00250018
v -0.01020991 0.01067572 -0.00249994
v 0.00758570 -0.01274484 -0.00250024
v 0.01136279 -0.00947952 -0.00250006
v -0.00237554 -0.01461595 -0.00250024
v 0.00211549 -0.01466852 -0.00250047
v -0.01380175 -0.00539195 -0.00250018
v -0.01475828 -0.00081276 -0.00250006
v -0.01451277 0.00291496 -0.00250006
v -0.00758493 -0.01274478 -0.00250036
v -0.01136183 -0.00947946 -0.00250006
v -0.01643556 0.02605623 0.00793213
v -0.01606631 -0.02643465 0.00819510
v -0.01586234 0.02667683 0.00839221
v -0.01520997 -0.02756184 0.00936657
v -0.01502281 -0.02784794 0.01011466
v -0.01522058 0.02752405 0.00934386
v -0.01586234 0.02667683 0.00839221
v -0.01552802 -0.02710878 0.00879633
v -0.01522058 0.02752405 0.00934386
v -0.01502281 -0.02784794 0.01011466
v -0.01502948 0.02783823 0.01002681
v -0.01522058 0.02752405 0.00934386
v -0.01606631 -0.02643465 0.00819510
v -0.01552802 -0.02710878 0.00879633
v -0.01586234 0.02667683 0.00839221
v -0.01681864 -0.02568984 0.00773692
v -0.01734161 0.02524489 0.00755733
v -0.01761502 -0.02496832 0.00752151
v -0.01681864 -0.02568984 0.00773692
v -0.01643556 0.02605623 0.00793213
v -0.01734161 0.02524489 0.00755733
v -0.01643556 0.02605623 0.00793213
v -0.01681864 -0.02568984 0.00773692
v -0.01606631 -0.02643465 0.00819510
v -0.01552802 -0.02710878 0.00879633
v -0.01520997 -0.02756184 0.00936657
v -0.01522058 0.02752405 0.00934386
v 0.01647228 -0.02602022 0.00791114
v 0.01602768 0.02649205 0.00822902
v 0.01585328 -0.02669340 0.00839692
v 0.01668334 0.02581346 0.00778723
v 0.01602768 0.02649205 0.00822902
v 0.01647228 -0.02602022 0.00791114
v 0.01521050 0.02756172 0.00936651
v 0.01502341 0.02784794 0.01011466
v 0.01522183 -0.02752393 0.00934249
v 0.01585328 -0.02669340 0.00839692
v 0.01552850 0.02710878 0.00879633
v 0.01522183 -0.02752393 0.00934249
v 0.01502341 0.02784794 0.01011466
v 0.01503044 -0.02783823 0.01002681
v 0.01522183 -0.02752393 0.00934249
v 0.01602768 0.02649205 0.00822902
v 0.01552850 0.02710878 0.00879633
v 0.01585328 -0.02669340 0.00839692
v 0.01668334 0.02581346 0.00778723
v 0.01733422 -0.02524077 0.00756025
v 0.01762181 0.02496439 0.00752032
v 0.01668334 0.02581346 0.00778723
v 0.01647228 -0.02602022 0.00791114
v 0.01733422 -0.02524077 0.00756025
v 0.01552850 0.02710878 0.00879633
v 0.01521050 0.02756172 0.00936651
v 0.01522183 -0.02752393 0.00934249
v -0.01261574 0.03296494 0.00749993
v -0.01402586 0.02941173 0.00099999
v -0.01377910 0.02992922 0.00749993
v -0.01257807 0.03322494 0.00099999
v -0.01402586 0.02941173 0.00099999
v -0.01261574 0.03296494 0.00749993
v -0.01377910 0.02992922 0.00749993
v -0.01402586 0.02941173 0.00099999
v -0.01484274 0.02843225 0.00753909
v -0.01484274 0.02843225 0.00753909
v -0.01553088 0.02769005 0.00802231
v -0.01500052 0.02825462 0.00908458
v -0.01484274 0.02843225 0.00753909
v -0.01402586 0.02941173 0.00099999
v -0.01553088 0.02769005 0.00802231
v -0.01402586 0.02941173 0.00099999
v -0.01635605 0.02698409 0.00100070
v -0.01553088 0.02769005 0.00802231
v -0.01553088 0.02769005 0.00802231
v -0.01635605 0.02698409 0.00100070
v -0.01689887 0.02659595 0.00676030
v -0.01761198 -0.02614468 0.00656986
v -0.01603806 -0.02718704 0.00100464
v -0.01595336 -0.02728122 0.00749421
v -0.01595336 -0.02728122 0.00749421
v -0.01603806 -0.02718704 0.00100464
v -0.01499140 -0.02824354 0.00911254
v -0.01499140 -0.02824354 0.00911254
v -0.01603806 -0.02718704 0.00100464
v -0.01483881 -0.02843737 0.00753206
v -0.01421213 -0.02923357 0.00100000
v -0.01483881 -0.02843737 0.00753206
v -0.01421213 -0.02923357 0.00100000
v -0.01377910 -0.02992922 0.00749993
v -0.01421213 -0.02923357 0.00100000
v -0.01267158 -0.03255242 0.00099999
v -0.01377910 -0.02992922 0.00749993
v -0.01377910 -0.02992922 0.00749993
v -0.01267158 -0.03255242 0.00099999
v -0.01259875 -0.03302896 0.00749993
v 0.01261663 -0.03296500 0.00749993
v 0.01402682 -0.02941173 0.00099999
v 0.01377964 -0.02992916 0.00749993
v 0.01257854 -0.03322494 0.00099999
v 0.01377964 -0.02992916 0.00749993
v 0.01402682 -0.02941173 0.00099999
v 0.01484370 -0.02843225 0.00753909
v 0.01484370 -0.02843225 0.00753909
v 0.01587164 -0.02734774 0.00754321
v 0.01500105 -0.02825462 0.00908452
v 0.01402682 -0.02941173 0.00099999
v 0.01631653 -0.02698135 0.00100541
v 0.01587164 -0.02734774 0.00754321
v 0.01751917 0.02618968 0.00661135
v 0.01606065 0.02719628 0.00100422
v 0.01595383 0.02728122 0.00749421
v 0.01595383 0.02728122 0.00749421
v 0.01606065 0.02719628 0.00100422
v 0.01499187 0.02824360 0.00911248
v 0.01499187 0.02824360 0.00911248
v 0.01606065 0.02719628 0.00100422
v 0.01485008 0.02842468 0.00754982
v 0.01421260 0.02923357 0.00100000
v 0.01485008 0.02842468 0.00754982
v 0.01421260 0.02923357 0.00100000
v 0.01377964 0.02992916 0.00749993
v 0.01421260 0.02923357 0.00100000
v 0.01267254 0.03255248 0.00099999
v 0.01377964 0.02992916 0.00749993
v 0.01377964 0.02992916 0.00749993
v 0.01267254 0.03255248 0.00099999
v 0.01259922 0.03302896 0.00749993
v 0.01539742 0.01966208 0.00020023
v 0.01648092 0.02045339 0.00020005
v 0.01540583 0.01978302 0.00649995
v 0.01739293 0.01458746 0.00006049
v 0.01623553 0.01502066 0.00020053
v 0.01661098 0.01479429 0.00649995
v 0.01540583 0.01978302 0.00649995
v 0.01648092 0.02045339 0.00020005
v 0.01738888 0.02070087 0.00649995
v 0.01648092 0.02045339 0.00020005
v 0.01781660 0.02069735 0.00020392
v 0.01738888 0.02070087 0.00649995
v 0.01661098 0.01479429 0.00649995
v 0.01522827 0.01590639 0.00020052
v 0.01497954 0.01624715 0.00649995
v 0.01623553 0.01502066 0.00020053
v 0.01522827 0.01590639 0.00020052
v 0.01470321 0.01714020 0.00020047
v 0.01497954 0.01624715 0.00649995
v 0.01497954 0.01624715 0.00649995
v 0.01470321 0.01714020 0.00020047
v 0.01466286 0.01789528 0.00649995
v 0.01470321 0.01714020 0.00020047
v 0.01476359 0.01848018 0.00020037
v 0.01466286 0.01789528 0.00649995
v 0.01466286 0.01789528 0.00649995
v 0.01476359 0.01848018 0.00020037
v 0.01540583 0.01978302 0.00649995
v 0.01476359 0.01848018 0.00020037
v 0.01539742 0.01966208 0.00020023
v 0.01540583 0.01978302 0.00649995
v 0.01540583 0.01978302 0.00649995
v 0.01738888 0.02070087 0.00649995
v 0.01887929 0.02045166 0.00649995
v 0.02008414 0.01953077 0.00649995
v 0.02075195 0.01762264 0.00649995
v 0.01497954 0.01624715 0.00649995
v 0.02011495 0.01588898 0.00649995
v 0.01879709 0.01483595 0.00649995
v 0.01661098 0.01479429 0.00649995
v 0.01466286 0.01789528 0.00649995
v -0.01689887 0.02659595 0.00676030
v -0.01643556 0.02605623 0.00793213
v -0.01586234 0.02667683 0.00839221
v -0.01689887 0.02659595 0.00676030
v -0.01586234 0.02667683 0.00839221
v -0.01553088 0.02769005 0.00802231
v -0.01689887 0.02659595 0.00676030
v -0.01734161 0.02524489 0.00755733
v -0.01643556 0.02605623 0.00793213
v -0.01522058 0.02752405 0.00934386
v -0.01502948 0.02783823 0.01002681
v -0.01500052 0.02825462 0.00908458
v -0.01553088 0.02769005 0.00802231
v -0.01522058 0.02752405 0.00934386
v -0.01500052 0.02825462 0.00908458
v -0.01553088 0.02769005 0.00802231
v -0.01586234 0.02667683 0.00839221
v -0.01522058 0.02752405 0.00934386
v -0.02155703 -0.02300179 0.00649995
v -0.01761198 -0.02614468 0.00656986
v -0.01761502 -0.02496832 0.00752151
v -0.02155703 -0.02300179 0.00649995
v -0.01761502 -0.02496832 0.00752151
v -0.02267313 -0.02055311 0.00750017
v -0.02459967 -0.01971393 0.00650006
v -0.02155703 -0.02300179 0.00649995
v -0.02267313 -0.02055311 0.00750017
v -0.02714574 -0.01602810 0.00650006
v -0.02459967 -0.01971393 0.00650006
v -0.02267313 -0.02055311 0.00750017
v -0.02714574 -0.01602810 0.00650006
v -0.02267313 -0.02055311 0.00750017
v -0.02756923 -0.01328349 0.00750011
v -0.02914351 -0.01201850 0.00650018
v -0.02714574 -0.01602810 0.00650006
v -0.02756923 -0.01328349 0.00750011
v -0.03055292 -0.00776589 0.00650018
v -0.02756923 -0.01328349 0.00750011
v -0.03020370 -0.00492501 0.00750011
v -0.03055292 -0.00776589 0.00650018
v -0.02914351 -0.01201850 0.00650018
v -0.02756923 -0.01328349 0.00750011
v -0.03134500 -0.00335640 0.00650024
v -0.03055292 -0.00776589 0.00650018
v -0.03020370 -0.00492501 0.00750011
v -0.03150451 0.00112057 0.00650024
v -0.03134500 -0.00335640 0.00650024
v -0.03020370 -0.00492501 0.00750011
v -0.03150451 0.00112057 0.00650024
v -0.03020370 -0.00492501 0.00750011
v -0.03054893 0.00047914 0.00749463
v -0.03150451 0.00112057 0.00650024
v -0.03054893 0.00047914 0.00749463
v -0.02977228 0.00708020 0.00750011
v -0.03102749 0.00557530 0.00650024
v -0.03150451 0.00112057 0.00650024
v -0.02977228 0.00708020 0.00750011
v -0.02992391 0.00991714 0.00650018
v -0.03102749 0.00557530 0.00650024
v -0.02977228 0.00708020 0.00750011
v -0.02992391 0.00991714 0.00650018
v -0.02977228 0.00708020 0.00750011
v -0.02654451 0.01522821 0.00750017
v -0.02821600 0.01405853 0.00650006
v -0.02992391 0.00991714 0.00650018
v -0.02654451 0.01522821 0.00750017
v -0.02593821 0.01791656 0.00650006
v -0.02821600 0.01405853 0.00650006
v -0.02654451 0.01522821 0.00750017
v -0.02593821 0.01791656 0.00650006
v -0.02654451 0.01522821 0.00750017
v -0.02188462 0.02132511 0.00750005
v -0.02199542 0.02265912 0.00650066
v -0.02593821 0.01791656 0.00650006
v -0.02188462 0.02132511 0.00750005
v -0.02199542 0.02265912 0.00650066
v -0.02188462 0.02132511 0.00750005
v -0.01734161 0.02524489 0.00755733
v -0.01689887 0.02659595 0.00676030
v -0.02199542 0.02265912 0.00650066
v -0.01734161 0.02524489 0.00755733
v -0.01761198 -0.02614468 0.00656986
v -0.01681864 -0.02568984 0.00773692
v -0.01761502 -0.02496832 0.00752151
v -0.01499140 -0.02824354 0.00911254
v -0.01552802 -0.02710878 0.00879633
v -0.01595336 -0.02728122 0.00749421
v -0.01499140 -0.02824354 0.00911254
v -0.01502281 -0.02784794 0.01011466
v -0.01520997 -0.02756184 0.00936657
v -0.01681864 -0.02568984 0.00773692
v -0.01761198 -0.02614468 0.00656986
v -0.01595336 -0.02728122 0.00749421
v -0.01595336 -0.02728122 0.00749421
v -0.01552802 -0.02710878 0.00879633
v -0.01606631 -0.02643465 0.00819510
v -0.01499140 -0.02824354 0.00911254
v -0.01520997 -0.02756184 0.00936657
v -0.01552802 -0.02710878 0.00879633
v -0.01606631 -0.02643465 0.00819510
v -0.01681864 -0.02568984 0.00773692
v -0.01595336 -0.02728122 0.00749421
v 0.01587164 -0.02734774 0.00754321
v 0.01647228 -0.02602022 0.00791114
v 0.01585328 -0.02669340 0.00839692
v 0.01587164 -0.02734774 0.00754321
v 0.01733422 -0.02524077 0.00756025
v 0.01647228 -0.02602022 0.00791114
v 0.01587164 -0.02734774 0.00754321
v 0.01752132 -0.02618575 0.00662065
v 0.01733422 -0.02524077 0.00756025
v 0.01522183 -0.02752393 0.00934249
v 0.01503044 -0.02783823 0.01002681
v 0.01500105 -0.02825462 0.00908452
v 0.01587164 -0.02734774 0.00754321
v 0.01522183 -0.02752393 0.00934249
v 0.01500105 -0.02825462 0.00908452
v 0.01587164 -0.02734774 0.00754321
v 0.01585328 -0.02669340 0.00839692
v 0.01522183 -0.02752393 0.00934249
v 0.02072632 0.02375382 0.00649995
v 0.01751917 0.02618968 0.00661135
v 0.01762181 0.02496439 0.00752032
v 0.02072632 0.02375382 0.00649995
v 0.01762181 0.02496439 0.00752032
v 0.02267390 0.02055311 0.00750017
v 0.02388381 0.02057600 0.00649995
v 0.02072632 0.02375382 0.00649995
v 0.02267390 0.02055311 0.00750017
v 0.02655941 0.01698309 0.00650006
v 0.02388381 0.02057600 0.00649995
v 0.02267390 0.02055311 0.00750017
v 0.02655941 0.01698309 0.00650006
v 0.02267390 0.02055311 0.00750017
v 0.02756989 0.01328349 0.00750011
v 0.02869862 0.01304692 0.00650018
v 0.02655941 0.01698309 0.00650006
v 0.02756989 0.01328349 0.00750011
v 0.03025799 0.00884718 0.00650018
v 0.02869862 0.01304692 0.00650018
v 0.02756989 0.01328349 0.00750011
v 0.03025799 0.00884718 0.00650018
v 0.02756989 0.01328349 0.00750011
v 0.03020447 0.00492501 0.00750011
v 0.03120684 0.00446868 0.00650024
v 0.03025799 0.00884718 0.00650018
v 0.03020447 0.00492501 0.00750011
v 0.03152513 0.00000000 0.00650024
v 0.03120684 0.00446868 0.00650024
v 0.03020447 0.00492501 0.00750011
v 0.03152513 0.00000000 0.00650024
v 0.03020447 0.00492501 0.00750011
v 0.03054976 -0.00047916 0.00749463
v 0.03120684 -0.00446868 0.00650024
v 0.03054976 -0.00047916 0.00749463
v 0.02977305 -0.00708020 0.00750011
v 0.03120684 -0.00446868 0.00650024
v 0.03152513 0.00000000 0.00650024
v 0.03054976 -0.00047916 0.00749463
v 0.03025799 -0.00884718 0.00650018
v 0.03120684 -0.00446868 0.00650024
v 0.02977305 -0.00708020 0.00750011
v 0.02869862 -0.01304692 0.00650018
v 0.03025799 -0.00884718 0.00650018
v 0.02977305 -0.00708020 0.00750011
v 0.02869862 -0.01304692 0.00650018
v 0.02977305 -0.00708020 0.00750011
v 0.02654528 -0.01522821 0.00750017
v 0.02655947 -0.01698309 0.00650006
v 0.02869862 -0.01304692 0.00650018
v 0.02654528 -0.01522821 0.00750017
v 0.02388381 -0.02057600 0.00649995
v 0.02655947 -0.01698309 0.00650006
v 0.02654528 -0.01522821 0.00750017
v 0.02388381 -0.02057600 0.00649995
v 0.02654528 -0.01522821 0.00750017
v 0.02188551 -0.02132511 0.00750005
v 0.02072632 -0.02375382 0.00649995
v 0.02388381 -0.02057600 0.00649995
v 0.02188551 -0.02132511 0.00750005
v 0.02072632 -0.02375382 0.00649995
v 0.02188551 -0.02132511 0.00750005
v 0.01733422 -0.02524077 0.00756025
v 0.01752132 -0.02618575 0.00662065
v 0.02072632 -0.02375382 0.00649995
v 0.01733422 -0.02524077 0.00756025
v 0.01751917 0.02618968 0.00661135
v 0.01668334 0.02581346 0.00778723
v 0.01762181 0.02496439 0.00752032
v 0.01602768 0.02649205 0.00822902
v 0.01668334 0.02581346 0.00778723
v 0.01595383 0.02728122 0.00749421
v 0.01499187 0.02824360 0.00911248
v 0.01552850 0.02710878 0.00879633
v 0.01595383 0.02728122 0.00749421
v 0.01499187 0.02824360 0.00911248
v 0.01502341 0.02784794 0.01011466
v 0.01521050 0.02756172 0.00936651
v 0.01668334 0.02581346 0.00778723
v 0.01751917 0.02618968 0.00661135
v 0.01595383 0.02728122 0.00749421
v 0.01595383 0.02728122 0.00749421
v 0.01552850 0.02710878 0.00879633
v 0.01602768 0.02649205 0.00822902
v 0.01499187 0.02824360 0.00911248
v 0.01521050 0.02756172 0.00936651
v 0.01552850 0.02710878 0.00879633
v 0.00469756 -0.03124696 0.00099980
v -0.00215483 -0.03145825 0.00099998
v -0.00215042 -0.03046697 0.00000000
v 0.00469756 -0.03124696 0.00099980
v -0.00215042 -0.03046697 0.00000000
v 0.00500506 -0.03018718 -0.00000016
v 0.01236873 -0.02904361 0.00099995
v 0.00469756 -0.03124696 0.00099980
v 0.00500506 -0.03018718 -0.00000016
v 0.01236873 -0.02904361 0.00099995
v 0.00500506 -0.03018718 -0.00000016
v 0.01239109 -0.02793645 0.00000000
v 0.01631653 -0.02698135 0.00100541
v 0.01236873 -0.02904361 0.00099995
v 0.01239109 -0.02793645 0.00000000
v 0.01631653 -0.02698135 0.00100541
v 0.01239109 -0.02793645 0.00000000
v 0.01905030 -0.02395027 -0.00000018
v 0.01979643 -0.02455574 0.00100130
v 0.01631653 -0.02698135 0.00100541
v 0.01905030 -0.02395027 -0.00000018
v 0.02347546 -0.02104103 0.00099969
v 0.01979643 -0.02455574 0.00100130
v 0.01905030 -0.02395027 -0.00000018
v 0.02347546 -0.02104103 0.00099969
v 0.01905030 -0.02395027 -0.00000018
v 0.02506119 -0.01756376 -0.00000017
v 0.02622753 -0.01749140 0.00099968
v 0.02347546 -0.02104103 0.00099969
v 0.02506119 -0.01756376 -0.00000017
v 0.02844703 -0.01358664 0.00099967
v 0.02622753 -0.01749140 0.00099968
v 0.02506119 -0.01756376 -0.00000017
v 0.02844703 -0.01358664 0.00099967
v 0.02506119 -0.01756376 -0.00000017
v 0.02901494 -0.00973189 -0.00000015
v 0.03008908 -0.00940657 0.00099966
v 0.02844703 -0.01358664 0.00099967
v 0.02901494 -0.00973189 -0.00000015
v 0.03112030 -0.00503528 0.00099966
v 0.03008908 -0.00940657 0.00099966
v 0.02901494 -0.00973189 -0.00000015
v 0.03112030 -0.00503528 0.00099966
v 0.02901494 -0.00973189 -0.00000015
v 0.03058362 -0.00110024 0.00000000
v 0.03152000 -0.00056185 0.00099966
v 0.03112030 -0.00503528 0.00099966
v 0.03058362 -0.00110024 0.00000000
v 0.03128010 0.00392288 0.00099966
v 0.03152000 -0.00056185 0.00099966
v 0.03058362 -0.00110024 0.00000000
v 0.03128010 0.00392288 0.00099966
v 0.03058362 -0.00110024 0.00000000
v 0.02963924 0.00762188 -0.00000014
v 0.03040528 0.00832826 0.00099966
v 0.03128010 0.00392288 0.00099966
v 0.02963924 0.00762188 -0.00000014
v 0.02891314 0.01256448 0.00099967
v 0.03040528 0.00832826 0.00099966
v 0.02963924 0.00762188 -0.00000014
v 0.02891314 0.01256448 0.00099967
v 0.02963924 0.00762188 -0.00000014
v 0.02625852 0.01571780 -0.00000014
v 0.02683413 0.01654565 0.00099968
v 0.02891314 0.01256448 0.00099967
v 0.02625852 0.01571780 -0.00000014
v 0.02421075 0.02019095 0.00099969
v 0.02683413 0.01654565 0.00099968
v 0.02625852 0.01571780 -0.00000014
v 0.02421075 0.02019095 0.00099969
v 0.02625852 0.01571780 -0.00000014
v 0.02072000 0.02252209 -0.00000012
v 0.02109581 0.02342647 0.00099970
v 0.02421075 0.02019095 0.00099969
v 0.02072000 0.02252209 -0.00000012
v 0.01606065 0.02719628 0.00100422
v 0.02109581 0.02342647 0.00099970
v 0.02072000 0.02252209 -0.00000012
v 0.01606065 0.02719628 0.00100422
v 0.02072000 0.02252209 -0.00000012
v 0.01525849 0.02644068 0.00000000
v 0.01606065 0.02719628 0.00100422
v 0.01525849 0.02644068 0.00000000
v 0.00921458 0.02917921 -0.00000015
v 0.00895464 0.03030282 0.00099985
v 0.01606065 0.02719628 0.00100422
v 0.00921458 0.02917921 -0.00000015
v 0.00895464 0.03030282 0.00099985
v 0.00921458 0.02917921 -0.00000015
v 0.00000037 0.03063488 -0.00000032
v 0.00215554 0.03145825 0.00099998
v 0.00895464 0.03030282 0.00099985
v 0.00000037 0.03063488 -0.00000032
v 0.00211549 -0.01466852 -0.00250047
v 0.00364721 -0.01537954 -0.00150472
v 0.00005491 -0.01576226 -0.00149703
v 0.00364721 -0.01537954 -0.00150472
v 0.00211549 -0.01466852 -0.00250047
v 0.00758570 -0.01274484 -0.00250024
v 0.00758570 -0.01274484 -0.00250024
v 0.00723445 -0.01401740 -0.00149220
v 0.00364721 -0.01537954 -0.00150472
v 0.00758570 -0.01274484 -0.00250024
v 0.00988287 -0.01229453 -0.00149268
v 0.00723445 -0.01401740 -0.00149220
v 0.01136279 -0.00947952 -0.00250006
v 0.00988287 -0.01229453 -0.00149268
v 0.00758570 -0.01274484 -0.00250024
v 0.01136279 -0.00947952 -0.00250006
v 0.01234978 -0.00982886 -0.00149566
v 0.00988287 -0.01229453 -0.00149268
v 0.01414155 -0.00698805 -0.00150233
v 0.01234978 -0.00982886 -0.00149566
v 0.01136279 -0.00947952 -0.00250006
v 0.01414155 -0.00698805 -0.00150233
v 0.01136279 -0.00947952 -0.00250006
v 0.01380223 -0.00539195 -0.00250024
v 0.01380223 -0.00539195 -0.00250024
v 0.01535969 -0.00365478 -0.00150007
v 0.01414155 -0.00698805 -0.00150233
v 0.01535969 -0.00365478 -0.00150007
v 0.01380223 -0.00539195 -0.00250024
v 0.01475924 -0.00081274 -0.00249994
v 0.01475924 -0.00081274 -0.00249994
v 0.01578557 0.00083569 -0.00151932
v 0.01535969 -0.00365478 -0.00150007
v 0.01451373 0.00291496 -0.00250006
v 0.01578557 0.00083569 -0.00151932
v 0.01475924 -0.00081274 -0.00249994
v 0.01451373 0.00291496 -0.00250006
v 0.01499605 0.00494027 -0.00148922
v 0.01578557 0.00083569 -0.00151932
v 0.01284837 0.00739652 -0.00250036
v 0.01499605 0.00494027 -0.00148922
v 0.01451373 0.00291496 -0.00250006
v 0.01284837 0.00739652 -0.00250036
v 0.01307290 0.00889665 -0.00148571
v 0.01499605 0.00494027 -0.00148922
v 0.01021087 0.01067572 -0.00249994
v 0.01039224 0.01186668 -0.00149280
v 0.01307290 0.00889665 -0.00148571
v 0.01021087 0.01067572 -0.00249994
v 0.01307290 0.00889665 -0.00148571
v 0.01284837 0.00739652 -0.00250036
v 0.00718349 0.01294827 -0.00250018
v 0.00747156 0.01390892 -0.00149053
v 0.01039224 0.01186668 -0.00149280
v 0.00718349 0.01294827 -0.00250018
v 0.01039224 0.01186668 -0.00149280
v 0.01021087 0.01067572 -0.00249994
v 0.00354034 0.01540529 -0.00150609
v 0.00718349 0.01294827 -0.00250018
v 0.00175256 0.01472157 -0.00250053
v 0.00354034 0.01540529 -0.00150609
v 0.00747156 0.01390892 -0.00149053
v 0.00718349 0.01294827 -0.00250018
v 0.00175256 0.01472157 -0.00250053
v -0.00161237 0.01574534 -0.00150490
v 0.00354034 0.01540529 -0.00150609
v 0.01439923 0.01803833 0.00000150
v 0.01585781 0.02042824 0.00000155
v 0.01539742 0.01966208 0.00020023
v 0.01539742 0.01966208 0.00020023
v 0.01585781 0.02042824 0.00000155
v 0.01648092 0.02045339 0.00020005
v 0.01739293 0.01458746 0.00006049
v 0.01530337 0.01538842 0.00000170
v 0.01623553 0.01502066 0.00020053
v 0.01585781 0.02042824 0.00000155
v 0.01781660 0.02069735 0.00020392
v 0.01648092 0.02045339 0.00020005
v 0.01585781 0.02042824 0.00000155
v 0.01838719 0.02086764 0.00000084
v 0.01781660 0.02069735 0.00020392
v 0.01623553 0.01502066 0.00020053
v 0.01530337 0.01538842 0.00000170
v 0.01522827 0.01590639 0.00020052
v 0.01522827 0.01590639 0.00020052
v 0.01530337 0.01538842 0.00000170
v 0.01470321 0.01714020 0.00020047
v 0.01530337 0.01538842 0.00000170
v 0.01439923 0.01803833 0.00000150
v 0.01470321 0.01714020 0.00020047
v 0.01470321 0.01714020 0.00020047
v 0.01439923 0.01803833 0.00000150
v 0.01476359 0.01848018 0.00020037
v 0.01476359 0.01848018 0.00020037
v 0.01439923 0.01803833 0.00000150
v 0.01539742 0.01966208 0.00020023
v 0.01245743 -0.05484914 0.00105852
v 0.01525497 0.06630653 0.01106137
v 0.01525551 0.06845593 0.02644127
v 0.01525527 -0.06846272 0.02643764
v -0.01525551 0.06845593 0.02644127
v -0.01525497 0.06630653 0.01106137
v -0.01525527 -0.06846272 0.02643764
v 0.01525533 0.06931853 0.02623498
v 0.01525521 0.07196158 0.02213627
v 0.01525521 -0.06962722 0.02613562
v 0.01525515 -0.07078915 0.02532345
v 0.01525509 -0.07158952 0.02423405
v 0.01525533 -0.07197290 0.02268934
v 0.01525533 -0.07185590 0.02158552
v 0.01525533 -0.07075327 0.01761788
v 0.01525545 -0.06930655 0.01320600
v 0.01525461 -0.06638556 0.01107048
v 0.01525515 -0.06847184 0.01210939
v 0.01525521 -0.06758683 0.01148784
v 0.01525431 0.06754839 0.01146334
v 0.01525491 0.06862276 0.01224523
v 0.01525419 0.06938499 0.01338958
v 0.01525527 0.07189172 0.02323365
v 0.01525527 0.07155174 0.02429103
v 0.01525533 0.07087653 0.02522397
v 0.01525533 0.07015961 0.02582722
v 0.01525408 0.07093381 0.01820760
v -0.01525521 -0.06758683 0.01148784
v -0.01525515 -0.06847184 0.01210939
v -0.01525545 -0.06930655 0.01320600
v -0.01525533 -0.07075327 0.01761788
v -0.01525461 -0.06638556 0.01107048
v -0.01525533 -0.07185590 0.02158552
v -0.01525533 -0.07197290 0.02268934
v -0.01525515 -0.07078915 0.02532345
v -0.01525509 -0.07158952 0.02423405
v -0.01525521 -0.06962722 0.02613562
v -0.01525533 0.06931853 0.02623498
v -0.01525527 0.07189172 0.02323365
v -0.01525533 0.07015961 0.02582722
v -0.01525533 0.07087653 0.02522397
v -0.01525527 0.07155174 0.02429103
v -0.01525521 0.07196158 0.02213627
v -0.01525419 0.06938499 0.01338958
v -0.01525491 0.06862276 0.01224523
v -0.01525431 0.06754839 0.01146334
v -0.01525408 0.07093381 0.01820760
f 1 2 3
f 4 5 6
f 7 8 9
f 10 11 12
f 13 14 15
f 16 17 18
f 19 20 21
f 22 23 24
f 25 26 27
f 28 29 30
f 31 32 33
f 34 35 36
f 37 38 39
f 40 41 42
f 43 44 45
f 46 47 48
f 49 50 51
f 52 53 54
f 55 56 57
f 58 59 60
f 61 62 63
f 64 65 66
f 67 68 69
f 70 71 72
f 73 74 75
f 76 77 78
f 79 80 81
f 82 83 84
f 85 86 87
f 88 89 90
f 91 92 93
f 94 95 96
f 97 98 99
f 100 101 102
f 103 104 105
f 106 107 108
f 109 110 111
f 112 113 114
f 115 112 114
f 116 117 118
f 119 120 121
f 122 123 124
f 125 126 127
f 128 129 130
f 131 132 133
f 134 135 136
f 137 138 139
f 140 141 142
f 143 144 145
f 146 147 148
f 149 150 151
f 152 153 154
f 155 156 157
f 158 159 160
f 161 162 163
f 164 165 166
f 167 168 169
f 170 171 172
f 173 174 175
f 176 177 178
f 179 180 181
f 182 183 184
f 185 186 187
f 188 189 190
f 191 192 193
f 194 195 196
f 197 198 199
f 200 201 202
f 203 204 205
f 206 207 208
f 209 210 211
f 212 213 214
f 215 216 217
f 218 219 220
f 221 222 223
f 224 225 226
f 227 228 229
f 230 231 232
f 233 234 235
f 236 237 238
f 239 240 241
f 242 243 244
f 245 246 247
f 248 249 250
f 251 252 253
f 254 255 256
f 257 258 259
f 260 261 262
f 263 264 265
f 266 267 268
f 269 270 271
f 272 273 274
f 275 276 277
f 278 279 280
f 281 282 283
f 284 285 286
f 287 288 289
f 290 291 292
f 293 294 295
f 296 297 298
f 299 300 301
f 302 303 304
f 305 306 307
f 308 309 310
f 311 312 313
f 314 315 316
f 317 318 319
f 320 321 322
f 323 324 325
f 326 327 328
f 329 330 331
f 332 333 334
f 335 336 337
f 338 339 340
f 341 342 343
f 344 345 346
f 347 348 349
f 350 351 352
f 353 354 355
f 356 357 358
f 359 360 361
f 362 363 364
f 365 366 367
f 368 369 370
f 371 372 373
f 374 375 376
f 377 378 379
f 380 381 382
f 383 384 385
f 386 387 388
f 389 390 391
f 392 393 394
f 395 396 397
f 398 399 400
f 401 402 403
f 404 405 406
f 407 408 409
f 410 411 412
f 413 414 415
f 416 417 418
f 419 420 421
f 422 423 424
f 425 426 427
f 428 429 430
f 431 428 430
f 432 433 434
f 435 436 437
f 438 439 440
f 441 442 443
f 444 445 446
f 447 448 449
f 450 451 452
f 453 454 455
f 456 457 458
f 459 460 461
f 462 463 464
f 465 466 467
f 468 469 470
f 471 472 473
f 474 475 476
f 477 478 479
f 480 481 482
f 483 484 485
f 486 487 488
f 489 490 491
f 492 493 494
f 495 496 497
f 498 499 500
f 501 502 503
f 504 505 506
f 507 508 509
f 510 511 512
f 513 514 515
f 516 517 518
f 518 517 519
f 520 521 522
f 523 524 525
f 526 524 523
f 527 528 529
f 522 521 530
f 529 528 522
f 521 531 530
f 511 532 512
f 526 533 524
f 530 533 526
f 534 535 536
f 530 531 533
f 537 538 539
f 515 514 540
f 541 542 543
f 514 544 540
f 528 520 522
f 517 545 519
f 534 546 535
f 547 548 549
f 537 550 538
f 551 546 534
f 552 553 554
f 555 556 557
f 548 558 549
f 543 542 559
f 551 560 546
f 561 562 518
f 544 563 540
f 540 563 545
f 537 554 550
f 564 553 552
f 565 561 518
f 566 560 551
f 547 567 548
f 512 554 537
f 557 568 569
f 556 568 557
f 570 567 547
f 532 554 512
f 571 572 573
f 545 574 519
f 565 575 561
f 519 574 576
f 563 574 545
f 549 558 565
f 569 568 577
f 578 579 580
f 562 516 518
f 581 582 583
f 565 584 575
f 585 586 587
f 558 584 565
f 566 588 560
f 541 588 566
f 552 554 532
f 576 589 538
f 559 590 529
f 577 568 591
f 559 592 590
f 542 592 559
f 593 594 595
f 564 525 553
f 575 584 513
f 590 527 529
f 596 597 598
f 556 592 542
f 599 511 510
f 568 521 591
f 591 521 600
f 536 567 570
f 601 602 603
f 523 525 564
f 556 555 592
f 536 535 567
f 588 541 543
f 600 521 520
f 584 514 513
f 604 605 606
f 607 608 609
f 610 611 612
f 613 614 615
f 616 617 618
f 619 620 621
f 622 623 624
f 625 626 627
f 628 629 630
f 631 632 633
f 634 635 636
f 637 638 639
f 640 641 642
f 643 644 645
f 646 647 648
f 649 650 651
f 652 653 654
f 655 656 657
f 658 659 660
f 661 662 663
f 661 664 662
f 665 666 667
f 665 668 669
f 665 669 666
f 670 671 672
f 673 674 675
f 676 677 678
f 679 680 681
f 682 683 684
f 685 683 682
f 686 683 685
f 686 687 683
f 688 689 690
f 691 692 686
f 693 694 695
f 696 697 698
f 699 689 700
f 701 702 703
f 701 704 702
f 703 705 701
f 706 704 701
f 706 707 704
f 706 708 707
f 709 708 706
f 710 684 705
f 696 708 709
f 696 698 708
f 710 711 684
f 711 682 684
f 712 713 714
f 715 716 717
f 718 719 720
f 721 722 723
f 724 725 726
f 727 728 729
f 730 731 732
f 733 734 735
f 736 737 738
f 739 740 741
f 742 743 744
f 745 746 747
f 748 749 750
f 751 752 753
f 754 755 756
f 757 758 759
f 760 761 762
f 763 764 765
f 766 767 768
f 769 770 771
f 772 773 774
f 775 776 777
f 778 779 780
f 781 782 783
f 784 785 786
f 787 788 789
f 790 791 792
f 793 794 795
f 796 797 798
f 799 796 800
f 799 801 796
f 802 803 795
f 799 804 801
f 805 804 799
f 805 806 804
f 805 807 806
f 805 808 807
f 809 810 808
f 810 809 811
f 811 809 812
f 809 813 812
f 812 813 814
f 814 813 815
f 813 816 815
f 817 818 819
f 815 820 821
f 821 820 822
f 815 816 820
f 823 824 825
f 661 826 827
f 827 828 664
f 827 664 661
f 829 824 823
f 825 830 831
f 826 663 832
f 831 833 825
f 826 832 834
f 823 825 833
f 835 836 837
f 838 839 666
f 840 841 842
f 843 835 837
f 844 841 840
f 838 841 844
f 837 669 843
f 845 846 847
f 848 849 850
f 851 849 848
f 852 848 850
f 852 850 853
f 854 852 853
f 851 855 849
f 856 855 851
f 854 853 857
f 856 858 855
f 859 858 856
f 860 854 857
f 861 858 859
f 861 859 862
f 863 860 857
f 863 864 860
f 865 861 862
f 866 864 863
f 867 862 846
f 867 865 862
f 847 864 866
f 845 867 846
f 847 846 864
f 868 869 870
f 871 872 873
f 873 872 874
f 875 876 877
f 878 879 880
f 881 882 883
f 884 885 886
f 887 888 889
f 890 891 892
f 893 894 895
f 896 897 898
f 899 900 901
f 902 903 904
f 905 906 907
f 908 909 910
f 911 912 913
f 914 915 916
f 917 918 919
f 920 921 922
f 923 920 922
f 924 925 921
f 924 921 920
f 923 922 926
f 927 923 926
f 928 925 924
f 928 929 925
f 927 926 930
f 931 927 930
f 928 932 929
f 931 930 933
f 934 932 928
f 933 935 931
f 936 935 933
f 937 932 934
f 937 934 938
f 919 935 936
f 919 918 935
f 917 937 938
f 917 938 918
f 939 940 941
f 942 943 944
f 945 946 947
f 948 949 950
f 951 952 953
f 954 955 956
f 957 958 959
f 960 961 962
f 963 964 965
f 966 967 968
f 969 970 971
f 972 973 974
f 975 976 977
f 978 979 980
f 981 982 983
f 984 985 986
f 987 988 989
f 990 991 992
f 993 994 995
f 996 997 998
f 999 1000 1001
f 1002 1003 1004
f 1005 1006 1007
f 1008 1009 1010
f 1011 1012 1013
f 1014 1015 1016
f 1017 1018 1019
f 1020 1021 1022
f 1023 1024 1025
f 1023 1025 1026
f 1027 1028 1029
f 1030 1031 1032
f 1033 1034 1035
f 1036 1037 1038
f 1039 1040 1041
f 1042 1043 1044
f 1045 1046 1047
f 1045 1048 1046
f 1049 1050 1048
f 1049 1048 1045
f 1051 1050 1049
f 1052 1051 1049
f 1053 1054 1051
f 1053 1055 1054
f 1056 1051 1052
f 1056 1052 1057
f 1058 1056 1059
f 1060 1061 1062
f 1060 1053 1051
f 1060 1062 1053
f 1060 1058 1063
f 1060 1051 1056
f 1060 1056 1058
f 1064 1060 1063
f 1065 1066 1067
f 1068 1069 1070
f 1071 1072 1073
f 1074 1075 1076
f 1077 1078 1079
f 1080 1081 1082
f 1083 1084 1085
f 1086 1087 1088
f 1089 1090 1091
f 1092 1093 1094
f 1095 1096 1097
f 1098 1099 1100
f 1101 1102 1103
f 1104 1105 1106
f 1107 1108 1109
f 1110 1111 1112
f 1113 1114 1115
f 1116 1117 1118
f 1119 1120 1121
f 1122 1123 1124
f 1125 1126 1127
f 1128 1129 1130
f 1131 1132 1133
f 1134 1135 1136
f 1137 1138 1139
f 1140 1141 1142
f 1143 1144 1145
f 1146 1147 1148
f 1147 1149 1148
f 1150 1151 1152
f 1153 1154 1155
f 1156 1157 1158
f 1159 1160 1161
f 1162 1160 1159
f 1163 1164 1165
f 1166 1167 1168
f 1166 1169 1167
f 1169 1170 1167
f 1171 507 509
f 1172 1173 1174
f 1175 1176 1177
f 1178 1179 1180
f 1179 1181 1180
f 1182 1183 1184
f 1185 1186 1187
f 1188 1189 1190
f 1191 1192 1193
f 1194 1195 1196
f 1197 1198 1199
f 1200 1201 1202
f 1203 1204 1205
f 1206 1204 1203
f 1207 1208 1209
f 1210 1211 1212
f 1213 1214 1215
f 1216 1217 1218
f 1219 1220 1221
f 1222 1223 1224
f 1222 1225 1226
f 1222 1224 1225
f 1227 1222 1226
f 1227 1228 1229
f 1227 1229 1230
f 1227 1231 1222
f 1227 1226 1228
f 1232 1233 1234
f 1235 1236 1237
f 1238 1239 1240
f 1241 1242 1243
f 1244 1245 1246
f 1247 1248 1249
f 1250 1251 1252
f 1253 1254 1255
f 1256 1257 1258
f 1259 1260 1261
f 1262 1263 1264
f 1265 1266 1267
f 1268 1269 1270
f 1271 1272 1273
f 1274 1275 1276
f 1277 1278 1279
f 1280 1281 1282
f 1283 1284 1285
f 1286 1287 1288
f 1289 1290 1291
f 1292 1293 1294
f 1295 1296 1297
f 1298 1299 1300
f 1301 1302 1303
f 1304 1305 1306
f 1307 1308 1309
f 1310 1311 1312
f 1313 1314 1315
f 1316 1317 1318
f 1319 1320 1321
f 1322 1323 1324
f 1325 1326 1327
f 1328 1329 1330
f 1331 1332 1333
f 1334 1335 1336
f 1337 1338 1339
f 1340 1341 1342
f 1343 1344 1345
f 1346 1347 1348
f 1349 1350 1351
f 1352 1353 1354
f 1355 1356 1357
f 1358 1359 1360
f 1361 1362 1363
f 1364 1365 1366
f 1367 1368 1369
f 1370 1371 1372
f 1373 1374 1375
f 1376 1377 1378
f 1379 1380 1381
f 1382 1383 1384
f 1385 1386 1387
f 1388 1389 1390
f 1391 1392 1393
f 1394 1395 1396
f 1397 1398 1399
f 1400 1401 1402
f 1403 1404 1405
f 1406 1407 1408
f 1409 1410 1411
f 1412 1413 1414
f 1415 1416 1417
f 1418 1419 1420
f 1421 1422 1423
f 1424 1425 1426
f 1427 1428 1429
f 1430 1431 1432
f 1433 1434 1435
f 1436 1437 1438
f 1439 1440 1441
f 1442 1443 1444
f 1445 1446 1447
f 1448 1449 1450
f 1451 1452 1453
f 1454 1455 1456
f 1457 1458 1459
f 1460 1461 1462
f 1463 1464 1465
f 1466 1467 1468
f 1469 1470 1471
f 1472 1473 1474
f 1475 1476 1477
f 1478 1479 1480
f 1481 1482 1483
f 1484 1485 1486
f 1487 1488 1489
f 1490 1491 1492
f 1493 1494 1495
f 1496 1497 1498
f 1499 1500 1501
f 1502 1503 1504
f 1505 1506 1507
f 1508 1509 1510
f 1511 1512 1513
f 1514 1515 1516
f 1517 1518 1519
f 1520 1521 1522
f 1523 1524 1525
f 1526 1527 1528
f 1529 1530 1531
f 1532 1533 1534
f 1535 1536 1537
f 1538 1539 1540
f 1541 1542 1543
f 1544 1545 1546
f 1547 1548 1549
f 1550 1551 1552
f 1553 1554 1555
f 1556 1557 1558
f 1559 1560 1561
f 1562 1563 1564
f 1565 1566 1567
f 1568 1569 1570
f 1571 1572 1573
f 1574 1575 1576
f 1577 1578 1579
f 1580 1581 1582
f 1583 1584 1585
f 1586 1587 1588
f 1589 1590 1591
f 1592 1593 1594
f 1595 1596 1597
f 1598 1599 1600
f 1601 1602 1603
f 1604 1605 1606
f 1607 1608 1609
f 1610 1611 1612
f 1613 1614 1615
f 1616 1617 1618
f 1619 1620 1621
f 1622 1623 1624
f 1625 1626 1627
f 831 830 828
f 1628 667 839
f 668 843 669
f 667 666 839
f 1628 839 844
f 831 828 827
f 661 663 826
f 831 827 833
f 838 844 839
f 837 666 669
f 1629 1630 1631
f 1632 1633 1634
f 1635 1630 1636
f 1631 1637 1638
f 1638 1639 1640
f 1640 1641 1638
f 1642 1643 1644
f 1645 1646 1643
f 1644 1629 1631
f 1647 1648 1649
f 1649 1629 1647
f 1636 1650 1635
f 1651 1652 1650
f 1653 1635 1652
f 1631 1638 1641
f 1641 1642 1631
f 1646 1644 1643
f 1649 1654 1629
f 1650 1652 1635
f 1630 1629 1654
f 1642 1644 1631
f 1654 1636 1630
f 1655 1656 1657
f 1657 1658 1659
f 1660 1661 1662
f 1663 1662 1661
f 1664 1634 1662
f 1632 1665 1666
f 1667 1668 1665
f 1669 1666 1668
f 1670 1632 1666
f 1671 1672 1673
f 1673 1633 1671
f 1659 1655 1657
f 1658 1660 1634
f 1662 1634 1660
f 1665 1668 1666
f 1670 1674 1632
f 1671 1633 1674
f 1659 1658 1634
f 1634 1633 1659
f 1674 1633 1632

